999
The file was created in CADSoftTools software
999
CADEditorX 14; 
  0
SECTION
  2
HEADER
  9
$ACADVER
  1
AC1018
  9
$DWGCODEPAGE
  3
ANSI_1252
  9
$CLAYER
  8
0
  9
$CELTYPE
  6
ByLayer
  9
$CELTSCALE
 40
1
  9
$CELWEIGHT
370
-1
  9
$DIMALT
 70
0
  9
$DIMALTF
 40
0.03937007874016
  9
$DIMPOST
  1

  9
$DIMAPOST
  1

  9
$DIMSCALE
 40
1
  9
$DIMASZ
 40
2.5
  9
$DIMCLRD
 70
0
  9
$DIMCLRE
 70
0
  9
$DIMCLRT
 70
0
  9
$DIMEXE
 40
1.25
  9
$DIMEXO
 40
0.625
  9
$DIMGAP
 40
0.625
  9
$DIMLFAC
 40
1
  9
$DIMDEC
 70
2
  9
$DIMTAD
 70
1
  9
$DIMCEN
 40
0.09
  9
$DIMTIH
 70
0
  9
$DIMTIX
 70
0
  9
$DIMTOH
 70
0
  9
$DIMSE1
 70
0
  9
$DIMSE2
 70
0
  9
$DIMSD1
 70
0
  9
$DIMSD2
 70
0
  9
$DIMLWD
 70
-2
  9
$DIMLWE
 70
-2
  9
$DIMSAH
 70
0
  9
$DIMBLK
  1

  9
$DIMBLK1
  1

  9
$DIMBLK2
  1

  9
$DIMLDRBLK
  1

  9
$DIMSTYLE
  2
ISO-25
  9
$DIMTP
 40
0
  9
$DIMTM
 40
0
  9
$DIMTXT
 40
2.5
  9
$DIMLUNIT
 70
2
  9
$DIMDSEP
 70
44
  9
$DIMTXSTY
  7
Standard
  9
$TEXTSIZE
 40
2.5
  9
$TEXTSTYLE
  7
Standard
  9
$HANDSEED
  5
0000000000214A99
  9
$FILLETRAD
 40
10
  9
$INSUNITS
 70
4
  9
$LIMMIN
 10
95.6714884220044
 20
320.039734364803
  9
$LIMMAX
 10
278.36457370955
 20
448.121457867831
  9
$FILLMODE
 70
1
  9
$LTSCALE
 40
1
  9
$MEASUREMENT
 70
1
  9
$ATTMODE
 70
1
  9
$PDMODE
 70
0
  9
$PDSIZE
 40
0
  9
$TILEMODE
 70
1
  9
$UCSORG
 10
0
 20
0
 30
0
  9
$UCSXDIR
 10
1
 20
0
 30
0
  9
$UCSYDIR
 10
0
 20
1
 30
0
  9
$INSBASE
 10
0
 20
0
 30
0
  9
$XCLIPFRAME
290
1
  9
$DIMASSOC
280
2
  9
$TDCREATE
 40
2453447.44722286
  9
$TDINDWG
 40
0.238074988425926
  9
$TDUPDATE
 40
2459912.64397184
  0
ENDSEC
  0
SECTION
  2
CLASSES
  0
CLASS
  1
IMAGE
  2
AcDbRasterImage
  3
ISM
 90
2175
 91
1
280
0
281
1
  0
CLASS
  1
IMAGEDEF
  2
AcDbRasterImageDef
  3
ISM
 90
0
 91
1
280
0
281
0
  0
CLASS
  1
WIPEOUT
  2
AcDbWipeout
  3
"WipeOut"
 90
2175
 91
1
280
0
281
1
  0
CLASS
  1
WIPEOUTVARIABLES
  2
AcDbWipeoutVariables
  3
"WipeOut"
 90
0
 91
1
280
0
281
0
  0
CLASS
  1
MPOLYGON
  2
AcDbMPolygon
  3
"AcMPolygonObj15"
 90
3071
 91
1
280
0
281
1
  0
ENDSEC
  0
SECTION
  2
TABLES
  0
TABLE
  2
APPID
  5
214A59
100
AcDbSymbolTable
  0
APPID
  5
12
100
AcDbSymbolTableRecord
100
AcDbRegAppTableRecord
  2
ACAD
 70
0
  0
APPID
  5
2015D9
100
AcDbSymbolTableRecord
100
AcDbRegAppTableRecord
  2
CSTINVENTORY
 70
0
  0
APPID
  5
2015FE
100
AcDbSymbolTableRecord
100
AcDbRegAppTableRecord
  2
AcDbAttr
 70
0
  0
APPID
  5
2015FF
100
AcDbSymbolTableRecord
100
AcDbRegAppTableRecord
  2
PE_URL
 70
0
  0
ENDTAB
  0
TABLE
  2
BLOCK_RECORD
  5
214A5A
100
AcDbSymbolTable
  0
BLOCK_RECORD
  5
1F
100
AcDbSymbolTableRecord
100
AcDbBlockTableRecord
  2
*MODEL_SPACE
  0
BLOCK_RECORD
  5
1B
100
AcDbSymbolTableRecord
100
AcDbBlockTableRecord
  2
*PAPER_SPACE
  0
BLOCK_RECORD
  5
2015DB
100
AcDbSymbolTableRecord
100
AcDbBlockTableRecord
  2
_CLOSEDFILLED
  0
BLOCK_RECORD
  5
2015E1
100
AcDbSymbolTableRecord
100
AcDbBlockTableRecord
  2
ABViewer_RedLine
  0
BLOCK_RECORD
  5
207EA8
102
{ACAD_XDICTIONARY
360
214A07
102
}
100
AcDbSymbolTableRecord
100
AcDbBlockTableRecord
  2
*D4
  0
BLOCK_RECORD
  5
207E9A
100
AcDbSymbolTableRecord
100
AcDbBlockTableRecord
  2
sgCLOSEDFILEDLINE
  0
BLOCK_RECORD
  5
207EDF
102
{ACAD_XDICTIONARY
360
214A09
102
}
100
AcDbSymbolTableRecord
100
AcDbBlockTableRecord
  2
*D6
  0
BLOCK_RECORD
  5
208C98
102
{ACAD_XDICTIONARY
360
214A0B
102
}
100
AcDbSymbolTableRecord
100
AcDbBlockTableRecord
  2
*D7
  0
BLOCK_RECORD
  5
208E0F
102
{ACAD_XDICTIONARY
360
214A0D
102
}
100
AcDbSymbolTableRecord
100
AcDbBlockTableRecord
  2
*D8
  0
BLOCK_RECORD
  5
208E2D
102
{ACAD_XDICTIONARY
360
214A0F
102
}
100
AcDbSymbolTableRecord
100
AcDbBlockTableRecord
  2
*D9
  0
BLOCK_RECORD
  5
209872
102
{ACAD_XDICTIONARY
360
214A11
102
}
100
AcDbSymbolTableRecord
100
AcDbBlockTableRecord
  2
*D10
  0
BLOCK_RECORD
  5
20989D
102
{ACAD_XDICTIONARY
360
214A13
102
}
100
AcDbSymbolTableRecord
100
AcDbBlockTableRecord
  2
*D11
  0
BLOCK_RECORD
  5
20A1A6
102
{ACAD_XDICTIONARY
360
214A15
102
}
100
AcDbSymbolTableRecord
100
AcDbBlockTableRecord
  2
*D12
  0
BLOCK_RECORD
  5
20A1BF
102
{ACAD_XDICTIONARY
360
214A17
102
}
100
AcDbSymbolTableRecord
100
AcDbBlockTableRecord
  2
*D13
  0
BLOCK_RECORD
  5
20A1D8
102
{ACAD_XDICTIONARY
360
214A19
102
}
100
AcDbSymbolTableRecord
100
AcDbBlockTableRecord
  2
*D14
  0
BLOCK_RECORD
  5
20A1F1
102
{ACAD_XDICTIONARY
360
214A1B
102
}
100
AcDbSymbolTableRecord
100
AcDbBlockTableRecord
  2
*D15
  0
BLOCK_RECORD
  5
20A6B0
102
{ACAD_XDICTIONARY
360
214A1D
102
}
100
AcDbSymbolTableRecord
100
AcDbBlockTableRecord
  2
*D16
  0
BLOCK_RECORD
  5
20C439
102
{ACAD_XDICTIONARY
360
214A1F
102
}
100
AcDbSymbolTableRecord
100
AcDbBlockTableRecord
  2
*D17
  0
BLOCK_RECORD
  5
20C557
102
{ACAD_XDICTIONARY
360
214A21
102
}
100
AcDbSymbolTableRecord
100
AcDbBlockTableRecord
  2
*D18
  0
BLOCK_RECORD
  5
20C640
102
{ACAD_XDICTIONARY
360
214A23
102
}
100
AcDbSymbolTableRecord
100
AcDbBlockTableRecord
  2
*D19
  0
BLOCK_RECORD
  5
20C675
102
{ACAD_XDICTIONARY
360
214A25
102
}
100
AcDbSymbolTableRecord
100
AcDbBlockTableRecord
  2
*D20
  0
BLOCK_RECORD
  5
20C737
102
{ACAD_XDICTIONARY
360
214A27
102
}
100
AcDbSymbolTableRecord
100
AcDbBlockTableRecord
  2
*D21
  0
BLOCK_RECORD
  5
20C750
102
{ACAD_XDICTIONARY
360
214A29
102
}
100
AcDbSymbolTableRecord
100
AcDbBlockTableRecord
  2
*D22
  0
BLOCK_RECORD
  5
20C783
102
{ACAD_XDICTIONARY
360
214A2B
102
}
100
AcDbSymbolTableRecord
100
AcDbBlockTableRecord
  2
*D23
  0
BLOCK_RECORD
  5
20C7C6
102
{ACAD_XDICTIONARY
360
214A2D
102
}
100
AcDbSymbolTableRecord
100
AcDbBlockTableRecord
  2
*D24
  0
BLOCK_RECORD
  5
20C807
102
{ACAD_XDICTIONARY
360
214A2F
102
}
100
AcDbSymbolTableRecord
100
AcDbBlockTableRecord
  2
*D25
  0
BLOCK_RECORD
  5
20CC83
102
{ACAD_XDICTIONARY
360
214A31
102
}
100
AcDbSymbolTableRecord
100
AcDbBlockTableRecord
  2
*D26
  0
BLOCK_RECORD
  5
20CCB8
102
{ACAD_XDICTIONARY
360
214A33
102
}
100
AcDbSymbolTableRecord
100
AcDbBlockTableRecord
  2
*D27
  0
BLOCK_RECORD
  5
20CDC5
102
{ACAD_XDICTIONARY
360
214A35
102
}
100
AcDbSymbolTableRecord
100
AcDbBlockTableRecord
  2
*D28
  0
BLOCK_RECORD
  5
20CDFA
102
{ACAD_XDICTIONARY
360
214A37
102
}
100
AcDbSymbolTableRecord
100
AcDbBlockTableRecord
  2
*D29
  0
BLOCK_RECORD
  5
20CE30
102
{ACAD_XDICTIONARY
360
214A39
102
}
100
AcDbSymbolTableRecord
100
AcDbBlockTableRecord
  2
*D30
  0
BLOCK_RECORD
  5
20D0AF
102
{ACAD_XDICTIONARY
360
214A3B
102
}
100
AcDbSymbolTableRecord
100
AcDbBlockTableRecord
  2
*D31
  0
BLOCK_RECORD
  5
20D241
102
{ACAD_XDICTIONARY
360
214A3D
102
}
100
AcDbSymbolTableRecord
100
AcDbBlockTableRecord
  2
*D32
  0
BLOCK_RECORD
  5
20D2D9
102
{ACAD_XDICTIONARY
360
214A3F
102
}
100
AcDbSymbolTableRecord
100
AcDbBlockTableRecord
  2
*D33
  0
BLOCK_RECORD
  5
20D368
102
{ACAD_XDICTIONARY
360
214A41
102
}
100
AcDbSymbolTableRecord
100
AcDbBlockTableRecord
  2
*D34
  0
BLOCK_RECORD
  5
20D3F2
102
{ACAD_XDICTIONARY
360
214A43
102
}
100
AcDbSymbolTableRecord
100
AcDbBlockTableRecord
  2
*D35
  0
BLOCK_RECORD
  5
20D4D4
102
{ACAD_XDICTIONARY
360
214A45
102
}
100
AcDbSymbolTableRecord
100
AcDbBlockTableRecord
  2
*D36
  0
BLOCK_RECORD
  5
20D4ED
102
{ACAD_XDICTIONARY
360
214A47
102
}
100
AcDbSymbolTableRecord
100
AcDbBlockTableRecord
  2
*D37
  0
BLOCK_RECORD
  5
20D577
102
{ACAD_XDICTIONARY
360
214A49
102
}
100
AcDbSymbolTableRecord
100
AcDbBlockTableRecord
  2
*D38
  0
BLOCK_RECORD
  5
20D601
102
{ACAD_XDICTIONARY
360
214A4B
102
}
100
AcDbSymbolTableRecord
100
AcDbBlockTableRecord
  2
*D39
  0
BLOCK_RECORD
  5
20D6C8
102
{ACAD_XDICTIONARY
360
214A4D
102
}
100
AcDbSymbolTableRecord
100
AcDbBlockTableRecord
  2
*D40
  0
BLOCK_RECORD
  5
20D75D
102
{ACAD_XDICTIONARY
360
214A4F
102
}
100
AcDbSymbolTableRecord
100
AcDbBlockTableRecord
  2
*D41
  0
BLOCK_RECORD
  5
20D7E7
102
{ACAD_XDICTIONARY
360
214A51
102
}
100
AcDbSymbolTableRecord
100
AcDbBlockTableRecord
  2
*D42
  0
BLOCK_RECORD
  5
20DBBE
102
{ACAD_XDICTIONARY
360
214A53
102
}
100
AcDbSymbolTableRecord
100
AcDbBlockTableRecord
  2
*D43
  0
BLOCK_RECORD
  5
20DC54
102
{ACAD_XDICTIONARY
360
214A55
102
}
100
AcDbSymbolTableRecord
100
AcDbBlockTableRecord
  2
*D44
  0
BLOCK_RECORD
  5
20DCEA
102
{ACAD_XDICTIONARY
360
214A57
102
}
100
AcDbSymbolTableRecord
100
AcDbBlockTableRecord
  2
*D45
  0
ENDTAB
  0
TABLE
  2
STYLE
  5
3
100
AcDbSymbolTable
  0
STYLE
  5
11
100
AcDbSymbolTableRecord
100
AcDbTextStyleTableRecord
  2
Standard
 70
0
 40
0
 41
1
 50
0
 71
0
 42
2.5
  3
txt
  4

1001
ACAD
1000
txt
1071
0
  0
STYLE
  5
1B0
100
AcDbSymbolTableRecord
100
AcDbTextStyleTableRecord
  2
Helvetica
 70
0
 40
0
 41
1
 50
0
 71
0
 42
0.200000002980232
  3
ARIAL.TTF
  4

1001
ACAD
1000
Arial
1071
0
  0
STYLE
  5
1B1
100
AcDbSymbolTableRecord
100
AcDbTextStyleTableRecord
  2
Times-Roman
 70
0
 40
0
 41
1
 50
0
 71
0
 42
0.200000002980232
  3
TIMES.TTF
  4

1001
ACAD
1000
Times New Roman
1071
0
  0
ENDTAB
  0
TABLE
  2
LTYPE
  5
5
100
AcDbSymbolTable
  0
LTYPE
  5
16
100
AcDbSymbolTableRecord
100
AcDbLinetypeTableRecord
  2
CONTINUOUS
 70
0
  3

 72
65
 73
0
 40
0
  0
LTYPE
  5
14
100
AcDbSymbolTableRecord
100
AcDbLinetypeTableRecord
  2
BYBLOCK
 70
0
  3

 72
65
 73
0
 40
0
  0
LTYPE
  5
15
100
AcDbSymbolTableRecord
100
AcDbLinetypeTableRecord
  2
BYLAYER
 70
0
  3

 72
65
 73
0
 40
0
  0
LTYPE
  5
2E
100
AcDbSymbolTableRecord
100
AcDbLinetypeTableRecord
  2
ACAD_ISO02W100
 70
0
  3
_ 
 72
65
 73
2
 40
15
 49
12
 74
0
 49
-3
 74
0
  0
LTYPE
  5
30
100
AcDbSymbolTableRecord
100
AcDbLinetypeTableRecord
  2
ACAD_ISO07W100
 70
0
  3
. 
 72
65
 73
2
 40
3
 49
0
 74
0
 49
-3
 74
0
  0
LTYPE
  5
31
100
AcDbSymbolTableRecord
100
AcDbLinetypeTableRecord
  2
ACAD_ISO10W100
 70
0
  3
_ . 
 72
65
 73
4
 40
18
 49
12
 74
0
 49
-3
 74
0
 49
0
 74
0
 49
-3
 74
0
  0
LTYPE
  5
32
100
AcDbSymbolTableRecord
100
AcDbLinetypeTableRecord
  2
ACAD_ISO12W100
 70
0
  3
_ . . 
 72
65
 73
6
 40
21
 49
12
 74
0
 49
-3
 74
0
 49
0
 74
0
 49
-3
 74
0
 49
0
 74
0
 49
-3
 74
0
  0
LTYPE
  5
2015E2
100
AcDbSymbolTableRecord
100
AcDbLinetypeTableRecord
  2
CENTER
 70
0
  3
_ _ 
 72
65
 73
4
 40
2
 49
1.25
 74
0
 49
-0.25
 74
0
 49
0.25
 74
0
 49
-0.25
 74
0
  0
LTYPE
  5
2015E3
100
AcDbSymbolTableRecord
100
AcDbLinetypeTableRecord
  2
ISO dash
 70
0
  3
_ 
 72
65
 73
2
 40
1.5
 49
1.2
 74
0
 49
-0.3
 74
0
  0
LTYPE
  5
2015E4
100
AcDbSymbolTableRecord
100
AcDbLinetypeTableRecord
  2
ISO dot
 70
0
  3
. 
 72
65
 73
2
 40
0.3
 49
0
 74
0
 49
-0.3
 74
0
  0
LTYPE
  5
2015E5
100
AcDbSymbolTableRecord
100
AcDbLinetypeTableRecord
  2
ISO dash dot
 70
0
  3
_ . 
 72
65
 73
4
 40
1.8
 49
1.2
 74
0
 49
-0.3
 74
0
 49
0
 74
0
 49
-0.3
 74
0
  0
LTYPE
  5
2015E6
100
AcDbSymbolTableRecord
100
AcDbLinetypeTableRecord
  2
ISO dash double-dot
 70
0
  3
_ . . 
 72
65
 73
6
 40
2.1
 49
1.2
 74
0
 49
-0.3
 74
0
 49
0
 74
0
 49
-0.3
 74
0
 49
0
 74
0
 49
-0.3
 74
0
  0
LTYPE
  5
2015E7
100
AcDbSymbolTableRecord
100
AcDbLinetypeTableRecord
  2
ISO dash triple-dot
 70
0
  3
_ . . . 
 72
65
 73
8
 40
2.4
 49
1.2
 74
0
 49
-0.3
 74
0
 49
0
 74
0
 49
-0.3
 74
0
 49
0
 74
0
 49
-0.3
 74
0
 49
0
 74
0
 49
-0.3
 74
0
  0
LTYPE
  5
2015E8
100
AcDbSymbolTableRecord
100
AcDbLinetypeTableRecord
  2
ISO dash long gaps
 70
0
  3
_ 
 72
65
 73
2
 40
3
 49
1.2
 74
0
 49
-1.8
 74
0
  0
ENDTAB
  0
TABLE
  2
LAYER
  5
B0
100
AcDbSymbolTable
  0
LAYER
  5
B1
100
AcDbSymbolTableRecord
100
AcDbLayerTableRecord
  2
0
 70
0
 62
7
  6
CONTINUOUS
290
1
370
-3
390
0
  0
LAYER
  5
207E9B
100
AcDbSymbolTableRecord
100
AcDbLayerTableRecord
  2
DEFPOINTS
 70
0
 62
7
290
0
370
-3
390
0
  0
ENDTAB
  0
TABLE
  2
VPORT
  5
214A5B
100
AcDbSymbolTable
  0
VPORT
  5
214A5D
100
AcDbSymbolTableRecord
100
AcDbViewportTableRecord
  2
*ACTIVE
 70
0
 10
0
 20
0
 11
1
 21
1
 12
155.95764020617
 22
379.089214167591
 32
0
 13
0
 23
0
 14
1
 24
1
 15
1
 25
1
 16
0
 26
0
 36
1
 17
0
 27
0
 37
0
 40
125.600799644589
 41
2.27700831024931
 42
50
 43
0
 44
0
 50
0
 51
0
 71
0
 72
100
 73
1
 74
1
 75
0
 76
0
 77
0
 78
0
  0
ENDTAB
  0
TABLE
  2
VIEW
  5
214A5E
100
AcDbSymbolTable
  0
ENDTAB
  0
TABLE
  2
UCS
  5
214A5F
100
AcDbSymbolTable
  0
ENDTAB
  0
TABLE
  2
DIMSTYLE
  5
A
100
AcDbSymbolTable
 70
2
100
AcDbDimStyleTable
 71
0
  0
DIMSTYLE
105
27
100
AcDbSymbolTableRecord
100
AcDbDimStyleTableRecord
  2
ISO-25
 70
0
  3

 40
1
 41
2.5
 42
0.625
 44
1.25
 47
0
 48
0
 73
0
 74
0
 75
0
 76
0
 77
1
140
2.5
141
2.5
144
1
147
0.625
173
0
174
0
176
0
177
0
178
0
277
2
278
44
281
0
282
0
271
2
340
11
371
-2
372
-2
  0
DIMSTYLE
105
200000
100
AcDbSymbolTableRecord
100
AcDbDimStyleTableRecord
  2
STANDARD
 70
0
  3

 40
1
 41
0.18
 42
0.0625
 44
0.18
 47
0
 48
0
 73
1
 74
1
 75
0
 76
0
 77
0
140
0.18
141
0.09
144
1
147
0.0625
173
0
174
0
176
0
177
0
178
0
277
2
278
46
281
0
282
0
271
4
371
-1
372
-1
  0
ENDTAB
  0
ENDSEC
  0
SECTION
  2
BLOCKS
  0
BLOCK
  5
214A60
100
AcDbEntity
  8
0
100
AcDbBlockBegin
  2
*MODEL_SPACE
 70
0
 10
0
 20
0
  0
ENDBLK
  5
214A61
100
AcDbEntity
  8
0
100
AcDbBlockEnd
  0
BLOCK
  5
214A62
100
AcDbEntity
  8
0
100
AcDbBlockBegin
  2
*PAPER_SPACE
 70
0
 10
0
 20
0
  0
ENDBLK
  5
214A63
100
AcDbEntity
  8
0
100
AcDbBlockEnd
  0
BLOCK
  5
20000C
100
AcDbEntity
  8
0
100
AcDbBlockBegin
  2
_CLOSEDFILLED
 70
0
 10
0
 20
0
 30
0
  3
_CLOSEDFILLED
  1

  0
SOLID
  5
20000A
100
AcDbEntity
  8
0
100
AcDbTrace
370
-2
 62
0
  6
BYLAYER
 10
-1
 20
0.166666666666667
 30
0
 11
0
 21
0
 31
0
 12
-1
 22
0.166666666666667
 32
0
 13
-1
 23
-0.166666666666667
 33
0
  0
LINE
  5
20000B
100
AcDbEntity
  8
0
100
AcDbLine
370
-2
 62
0
  6
BYLAYER
 10
-1
 20
0
 30
0
 11
-2
 21
0
 31
0
  0
ENDBLK
  5
214A64
100
AcDbEntity
  8
0
100
AcDbBlockEnd
  0
BLOCK
  5
2015E0
100
AcDbEntity
  8
0
100
AcDbBlockBegin
  2
ABViewer_RedLine
 70
1
 10
0
 20
0
 30
0
  3
ABViewer_RedLine
  1

  0
ENDBLK
  5
214A65
100
AcDbEntity
  8
0
100
AcDbBlockEnd
  0
BLOCK
  5
207EA7
100
AcDbEntity
  8
0
100
AcDbBlockBegin
  2
*D4
 70
1
 10
0
 20
0
 30
0
  3
*D4
  1

  0
POINT
  5
208C5D
100
AcDbEntity
  8
DEFPOINTS
100
AcDbPoint
370
-1
 62
0
  6
BYLAYER
 10
149.268642257591
 20
383.513190517571
 30
0
  0
POINT
  5
208C5E
100
AcDbEntity
  8
DEFPOINTS
100
AcDbPoint
370
-1
 62
0
  6
BYLAYER
 10
149.268642257591
 20
417.559482133739
 30
0
  0
LINE
  5
208C60
100
AcDbEntity
  8
0
100
AcDbLine
370
-2
 62
0
 10
149.893642257591
 20
383.513190517571
 30
0
 11
154.099768508993
 21
383.513190517571
 31
0
  0
LINE
  5
208C61
100
AcDbEntity
  8
0
100
AcDbLine
370
-2
 62
0
 10
149.893642257591
 20
417.559482133739
 30
0
 11
154.099768508993
 21
417.559482133739
 31
0
  0
LINE
  5
208C62
100
AcDbEntity
  8
0
100
AcDbLine
370
-2
 62
0
 10
152.849768508993
 20
383.513190517571
 30
0
 11
152.849768508993
 21
417.559482133739
 31
0
  0
LINE
  5
208C63
100
AcDbEntity
  8
0
100
AcDbLine
370
-2
 62
0
 10
152.849768508993
 20
417.559482133739
 30
0
 11
152.849768508993
 21
417.559482133739
 31
0
  0
TEXT
  5
208C5F
100
AcDbEntity
  8
0
100
AcDbText
370
-1
 62
0
 10
151.791626114731
 20
395.555198791643
 30
0
 40
2.27399756987495
  1
34,05
 50
90
 41
1
 51
0
  7
Standard
 71
0
 72
0
 11
0
 21
0
 31
0
100
AcDbText
 73
0
  0
INSERT
  5
208C64
100
AcDbEntity
  8
0
100
AcDbBlockReference
370
-2
 62
0
  6
BYLAYER
  2
_CLOSEDFILLED
 10
152.849768508993
 20
417.559482133739
 30
0
 41
2.5
 42
2.5
 43
2.5
 50
90
  0
INSERT
  5
208C65
100
AcDbEntity
  8
0
100
AcDbBlockReference
370
-2
 62
0
  6
BYLAYER
  2
_CLOSEDFILLED
 10
152.849768508993
 20
383.513190517571
 30
0
 41
2.5
 42
2.5
 43
2.5
 50
270
  0
INSERT
  5
208C66
100
AcDbEntity
  8
0
100
AcDbBlockReference
370
-2
 62
0
  6
BYLAYER
  2
sgCLOSEDFILEDLINE
 10
152.849768508993
 20
417.559482133739
 30
0
 41
1.25
 42
1.25
 43
1.25
 50
270
  0
INSERT
  5
208C67
100
AcDbEntity
  8
0
100
AcDbBlockReference
370
-2
 62
0
  6
BYLAYER
  2
sgCLOSEDFILEDLINE
 10
152.849768508993
 20
383.513190517571
 30
0
 41
1.25
 42
1.25
 43
1.25
 50
270
  0
ENDBLK
  5
214A66
100
AcDbEntity
  8
0
100
AcDbBlockEnd
  0
BLOCK
  5
207E99
100
AcDbEntity
  8
0
100
AcDbBlockBegin
  2
sgCLOSEDFILEDLINE
 70
0
 10
0
 20
0
 30
0
  3
sgCLOSEDFILEDLINE
  1

  0
LINE
  5
207E98
100
AcDbEntity
  8
0
100
AcDbLine
370
-1
 62
0
 10
0
 20
-0.333333333333333
 30
0
 11
0
 21
-1
 31
0
  0
ENDBLK
  5
214A67
100
AcDbEntity
  8
0
100
AcDbBlockEnd
  0
BLOCK
  5
207EDE
100
AcDbEntity
  8
0
100
AcDbBlockBegin
  2
*D6
 70
1
 10
0
 20
0
 30
0
  3
*D6
  1

  0
POINT
  5
208C73
100
AcDbEntity
  8
DEFPOINTS
100
AcDbPoint
370
-1
 62
0
  6
BYLAYER
 10
155.233759737527
 20
380.130781336013
 30
0
  0
POINT
  5
208C74
100
AcDbEntity
  8
DEFPOINTS
100
AcDbPoint
370
-1
 62
0
  6
BYLAYER
 10
155.233759737527
 20
417.557382521981
 30
0
  0
LINE
  5
208C76
100
AcDbEntity
  8
0
100
AcDbLine
370
-2
 62
0
 10
155.858759737527
 20
380.130781336013
 30
0
 11
161.854967677337
 21
380.130781336013
 31
0
  0
LINE
  5
208C77
100
AcDbEntity
  8
0
100
AcDbLine
370
-2
 62
0
 10
155.858759737527
 20
417.557382521981
 30
0
 11
161.854967677337
 21
417.557382521981
 31
0
  0
LINE
  5
208C78
100
AcDbEntity
  8
0
100
AcDbLine
370
-2
 62
0
 10
160.604967677337
 20
380.130781336013
 30
0
 11
160.604967677337
 21
417.557382521981
 31
0
  0
LINE
  5
208C79
100
AcDbEntity
  8
0
100
AcDbLine
370
-2
 62
0
 10
160.604967677337
 20
417.557382521981
 30
0
 11
160.604967677337
 21
417.557382521981
 31
0
  0
TEXT
  5
208C75
100
AcDbEntity
  8
0
100
AcDbText
370
-1
 62
0
 10
159.546825283075
 20
393.862944394985
 30
0
 40
2.27399756987495
  1
37,43
 50
90
 41
1
 51
0
  7
Standard
 71
0
 72
0
 11
0
 21
0
 31
0
100
AcDbText
 73
0
  0
INSERT
  5
208C7A
100
AcDbEntity
  8
0
100
AcDbBlockReference
370
-2
 62
0
  6
BYLAYER
  2
_CLOSEDFILLED
 10
160.604967677337
 20
417.557382521981
 30
0
 41
2.5
 42
2.5
 43
2.5
 50
90
  0
INSERT
  5
208C7B
100
AcDbEntity
  8
0
100
AcDbBlockReference
370
-2
 62
0
  6
BYLAYER
  2
_CLOSEDFILLED
 10
160.604967677337
 20
380.130781336013
 30
0
 41
2.5
 42
2.5
 43
2.5
 50
270
  0
INSERT
  5
208C7C
100
AcDbEntity
  8
0
100
AcDbBlockReference
370
-2
 62
0
  6
BYLAYER
  2
sgCLOSEDFILEDLINE
 10
160.604967677337
 20
417.557382521981
 30
0
 41
1.25
 42
1.25
 43
1.25
 50
270
  0
INSERT
  5
208C7D
100
AcDbEntity
  8
0
100
AcDbBlockReference
370
-2
 62
0
  6
BYLAYER
  2
sgCLOSEDFILEDLINE
 10
160.604967677337
 20
380.130781336013
 30
0
 41
1.25
 42
1.25
 43
1.25
 50
270
  0
ENDBLK
  5
214A68
100
AcDbEntity
  8
0
100
AcDbBlockEnd
  0
BLOCK
  5
208C97
100
AcDbEntity
  8
0
100
AcDbBlockBegin
  2
*D7
 70
1
 10
0
 20
0
 30
0
  3
*D7
  1

  0
POINT
  5
208C9A
100
AcDbEntity
  8
DEFPOINTS
100
AcDbPoint
370
-1
 62
0
  6
BYLAYER
 10
140.286155681116
 20
380.127536362459
 30
0
  0
POINT
  5
208C9B
100
AcDbEntity
  8
DEFPOINTS
100
AcDbPoint
370
-1
 62
0
  6
BYLAYER
 10
140.286155681116
 20
417.557536362459
 30
0
  0
LINE
  5
208C9D
100
AcDbEntity
  8
0
100
AcDbLine
370
-2
 62
0
 10
140.911155681116
 20
380.127536362459
 30
0
 11
170.166825365944
 21
380.127536362459
 31
0
  0
LINE
  5
208C9E
100
AcDbEntity
  8
0
100
AcDbLine
370
-2
 62
0
 10
140.911155681116
 20
417.557536362459
 30
0
 11
170.166825365944
 21
417.557536362459
 31
0
  0
LINE
  5
208C9F
100
AcDbEntity
  8
0
100
AcDbLine
370
-2
 62
0
 10
168.916825365944
 20
380.127536362459
 30
0
 11
168.916825365944
 21
417.557536362459
 31
0
  0
LINE
  5
208CA0
100
AcDbEntity
  8
0
100
AcDbLine
370
-2
 62
0
 10
168.916825365944
 20
417.557536362459
 30
0
 11
168.916825365944
 21
417.557536362459
 31
0
  0
TEXT
  5
208C9C
100
AcDbEntity
  8
0
100
AcDbText
370
-1
 62
0
 10
167.815634889753
 20
393.366345886269
 30
0
 40
2.5
  1
37,43
 50
90
 41
1
 51
0
  7
Standard
 71
0
 72
0
 11
0
 21
0
 31
0
100
AcDbText
 73
0
  0
INSERT
  5
208CA1
100
AcDbEntity
  8
0
100
AcDbBlockReference
370
-2
 62
0
  6
BYLAYER
  2
_CLOSEDFILLED
 10
168.916825365944
 20
417.557536362459
 30
0
 41
2.5
 42
2.5
 43
2.5
 50
90
  0
INSERT
  5
208CA2
100
AcDbEntity
  8
0
100
AcDbBlockReference
370
-2
 62
0
  6
BYLAYER
  2
_CLOSEDFILLED
 10
168.916825365944
 20
380.127536362459
 30
0
 41
2.5
 42
2.5
 43
2.5
 50
270
  0
INSERT
  5
208CA3
100
AcDbEntity
  8
0
100
AcDbBlockReference
370
-2
 62
0
  6
BYLAYER
  2
sgCLOSEDFILEDLINE
 10
168.916825365944
 20
417.557536362459
 30
0
 41
1.25
 42
1.25
 43
1.25
 50
270
  0
INSERT
  5
208CA4
100
AcDbEntity
  8
0
100
AcDbBlockReference
370
-2
 62
0
  6
BYLAYER
  2
sgCLOSEDFILEDLINE
 10
168.916825365944
 20
380.127536362459
 30
0
 41
1.25
 42
1.25
 43
1.25
 50
270
  0
ENDBLK
  5
214A69
100
AcDbEntity
  8
0
100
AcDbBlockEnd
  0
BLOCK
  5
208E0E
100
AcDbEntity
  8
0
100
AcDbBlockBegin
  2
*D8
 70
1
 10
0
 20
0
 30
0
  3
*D8
  1

  0
POINT
  5
208E11
100
AcDbEntity
  8
DEFPOINTS
100
AcDbPoint
370
-1
 62
0
  6
BYLAYER
 10
154.729396374536
 20
378.29655962316
 30
0
  0
POINT
  5
208E12
100
AcDbEntity
  8
DEFPOINTS
100
AcDbPoint
370
-1
 62
0
  6
BYLAYER
 10
140.424283455405
 20
382.129603077477
 30
0
  0
LINE
  5
208E14
100
AcDbEntity
  8
0
100
AcDbLine
370
-2
 62
0
 10
154.729396374536
 20
378.29655962316
 30
0
 11
154.729396374536
 21
378.29655962316
 31
0
  0
LINE
  5
208E15
100
AcDbEntity
  8
0
100
AcDbLine
370
-2
 62
0
 10
140.424283455405
 20
382.129603077477
 30
0
 11
140.424283455405
 21
382.129603077477
 31
0
  0
LINE
  5
208E16
100
AcDbEntity
  8
0
100
AcDbLine
370
-2
 62
0
 10
140.424283455405
 20
382.129603077477
 30
0
 11
140.424283455405
 21
382.129603077477
 31
0
  0
LINE
  5
208E17
100
AcDbEntity
  8
0
100
AcDbLine
370
-2
 62
0
 10
154.729396374536
 20
378.29655962316
 30
0
 11
154.729396374536
 21
378.29655962316
 31
0
  0
TEXT
  5
208E13
100
AcDbEntity
  8
0
100
AcDbText
370
-1
 62
0
 10
145.805813080271
 20
379.853284514328
 30
0
 40
2.5
  1
14,81
 50
345
 41
1
 51
0
  7
Standard
 71
0
 72
0
 11
0
 21
0
 31
0
100
AcDbText
 73
0
  0
INSERT
  5
208E18
100
AcDbEntity
  8
0
100
AcDbBlockReference
370
-2
 62
0
  6
BYLAYER
  2
_CLOSEDFILLED
 10
140.424283455405
 20
382.129603077477
 30
0
 41
2.5
 42
2.5
 43
2.5
 50
-15.0000000000001
  0
INSERT
  5
208E19
100
AcDbEntity
  8
0
100
AcDbBlockReference
370
-2
 62
0
  6
BYLAYER
  2
_CLOSEDFILLED
 10
154.729396374536
 20
378.29655962316
 30
0
 41
2.5
 42
2.5
 43
2.5
 50
165
  0
INSERT
  5
208E1A
100
AcDbEntity
  8
0
100
AcDbBlockReference
370
-2
 62
0
  6
BYLAYER
  2
sgCLOSEDFILEDLINE
 10
140.424283455405
 20
382.129603077477
 30
0
 41
1.25
 42
1.25
 43
1.25
 50
165
  0
INSERT
  5
208E1B
100
AcDbEntity
  8
0
100
AcDbBlockReference
370
-2
 62
0
  6
BYLAYER
  2
sgCLOSEDFILEDLINE
 10
154.729396374536
 20
378.29655962316
 30
0
 41
1.25
 42
1.25
 43
1.25
 50
165
  0
ENDBLK
  5
214A6A
100
AcDbEntity
  8
0
100
AcDbBlockEnd
  0
BLOCK
  5
208E2C
100
AcDbEntity
  8
0
100
AcDbBlockBegin
  2
*D9
 70
1
 10
0
 20
0
 30
0
  3
*D9
  1

  0
POINT
  5
208E2F
100
AcDbEntity
  8
DEFPOINTS
100
AcDbPoint
370
-1
 62
0
  6
BYLAYER
 10
153.36734579293
 20
381.501859492707
 30
0
  0
POINT
  5
208E30
100
AcDbEntity
  8
DEFPOINTS
100
AcDbPoint
370
-1
 62
0
  6
BYLAYER
 10
153.369233555596
 20
382.128784079976
 30
0
  0
LINE
  5
208E32
100
AcDbEntity
  8
0
100
AcDbLine
370
-1
 62
0
 10
153.705077171175
 20
376.500819866093
 30
0
 11
142.961029552127
 21
376.500819866093
 31
0
  0
LINE
  5
208E33
100
AcDbEntity
  8
0
100
AcDbLine
370
-1
 62
0
 10
153.720132842498
 20
381.500797198718
 30
0
 11
153.705077171175
 21
376.500819866093
 31
0
  0
LINE
  5
208E34
100
AcDbEntity
  8
0
100
AcDbLine
370
-2
 62
0
 10
153.992342959508
 20
381.499977533791
 30
0
 11
154.970127175654
 21
381.497033280887
 31
0
  0
LINE
  5
208E35
100
AcDbEntity
  8
0
100
AcDbLine
370
-2
 62
0
 10
153.994230722174
 20
382.12690212106
 30
0
 11
154.972014938318
 21
382.123957868156
 31
0
  0
LINE
  5
208E36
100
AcDbEntity
  8
0
100
AcDbLine
370
-2
 62
0
 10
153.722020605162
 20
382.127721785987
 30
0
 11
153.722020605162
 21
382.127721785987
 31
0
  0
LINE
  5
208E37
100
AcDbEntity
  8
0
100
AcDbLine
370
-2
 62
0
 10
153.720132842498
 20
381.500797198718
 30
0
 11
153.720132842498
 21
381.500797198718
 31
0
  0
TEXT
  5
208E31
100
AcDbEntity
  8
0
100
AcDbText
370
-1
 62
0
 10
142.961029552127
 20
378.227010342283
 30
0
 40
2.5
  1
0,63
 50
0
 41
1
 51
0
  7
Standard
 71
0
 72
0
 11
0
 21
0
 31
0
100
AcDbText
 73
0
  0
INSERT
  5
208E38
100
AcDbEntity
  8
0
100
AcDbBlockReference
370
-2
 62
0
  6
BYLAYER
  2
_CLOSEDFILLED
 10
153.722020605162
 20
382.127721785987
 30
0
 41
2.5
 42
2.5
 43
2.5
 50
89.8274744543742
  0
INSERT
  5
208E39
100
AcDbEntity
  8
0
100
AcDbBlockReference
370
-2
 62
0
  6
BYLAYER
  2
_CLOSEDFILLED
 10
153.720132842498
 20
381.500797198718
 30
0
 41
2.5
 42
2.5
 43
2.5
 50
269.827474454374
  0
INSERT
  5
208E3A
100
AcDbEntity
  8
0
100
AcDbBlockReference
370
-2
 62
0
  6
BYLAYER
  2
sgCLOSEDFILEDLINE
 10
153.722020605162
 20
382.127721785987
 30
0
 41
1.25
 42
1.25
 43
1.25
 50
269.827474454374
  0
INSERT
  5
208E3B
100
AcDbEntity
  8
0
100
AcDbBlockReference
370
-2
 62
0
  6
BYLAYER
  2
sgCLOSEDFILEDLINE
 10
153.720132842498
 20
381.500797198718
 30
0
 41
1.25
 42
1.25
 43
1.25
 50
269.827474454374
  0
ENDBLK
  5
214A6B
100
AcDbEntity
  8
0
100
AcDbBlockEnd
  0
BLOCK
  5
209871
100
AcDbEntity
  8
0
100
AcDbBlockBegin
  2
*D10
 70
1
 10
0
 20
0
 30
0
  3
*D10
  1

  0
POINT
  5
209874
100
AcDbEntity
  8
DEFPOINTS
100
AcDbPoint
370
-1
 62
0
  6
BYLAYER
 10
151.033106103805
 20
404.367025313284
 30
0
  0
POINT
  5
209875
100
AcDbEntity
  8
DEFPOINTS
100
AcDbPoint
370
-1
 62
0
  6
BYLAYER
 10
151.033106103805
 20
412.395601133485
 30
0
  0
LINE
  5
209877
100
AcDbEntity
  8
0
100
AcDbLine
370
-1
 62
0
 10
150.096525974376
 20
401.867025313284
 30
0
 11
139.352478355328
 21
401.867025313284
 31
0
  0
LINE
  5
209878
100
AcDbEntity
  8
0
100
AcDbLine
370
-1
 62
0
 10
150.096525974376
 20
404.367025313284
 30
0
 11
150.096525974376
 21
401.867025313284
 31
0
  0
LINE
  5
209879
100
AcDbEntity
  8
0
100
AcDbLine
370
-2
 62
0
 10
150.408106103805
 20
404.367025313284
 30
0
 11
148.846525974376
 21
404.367025313284
 31
0
  0
LINE
  5
20987A
100
AcDbEntity
  8
0
100
AcDbLine
370
-2
 62
0
 10
150.408106103805
 20
412.395601133485
 30
0
 11
148.846525974376
 21
412.395601133485
 31
0
  0
LINE
  5
20987B
100
AcDbEntity
  8
0
100
AcDbLine
370
-2
 62
0
 10
150.096525974376
 20
404.367025313284
 30
0
 11
150.096525974376
 21
412.395601133485
 31
0
  0
LINE
  5
20987C
100
AcDbEntity
  8
0
100
AcDbLine
370
-2
 62
0
 10
150.096525974376
 20
412.395601133485
 30
0
 11
150.096525974376
 21
404.367025313284
 31
0
  0
TEXT
  5
209876
100
AcDbEntity
  8
0
100
AcDbText
370
-1
 62
0
 10
139.352478355328
 20
403.593215789475
 30
0
 40
2.5
  1
8,03
 50
0
 41
1
 51
0
  7
Standard
 71
0
 72
0
 11
0
 21
0
 31
0
100
AcDbText
 73
0
  0
INSERT
  5
20987D
100
AcDbEntity
  8
0
100
AcDbBlockReference
370
-2
 62
0
  6
BYLAYER
  2
_CLOSEDFILLED
 10
150.096525974376
 20
412.395601133485
 30
0
 41
2.5
 42
2.5
 43
2.5
 50
90
  0
INSERT
  5
20987E
100
AcDbEntity
  8
0
100
AcDbBlockReference
370
-2
 62
0
  6
BYLAYER
  2
_CLOSEDFILLED
 10
150.096525974376
 20
404.367025313284
 30
0
 41
2.5
 42
2.5
 43
2.5
 50
270
  0
INSERT
  5
20987F
100
AcDbEntity
  8
0
100
AcDbBlockReference
370
-2
 62
0
  6
BYLAYER
  2
sgCLOSEDFILEDLINE
 10
150.096525974376
 20
412.395601133485
 30
0
 41
1.25
 42
1.25
 43
1.25
 50
270
  0
INSERT
  5
209880
100
AcDbEntity
  8
0
100
AcDbBlockReference
370
-2
 62
0
  6
BYLAYER
  2
sgCLOSEDFILEDLINE
 10
150.096525974376
 20
404.367025313284
 30
0
 41
1.25
 42
1.25
 43
1.25
 50
270
  0
ENDBLK
  5
214A6C
100
AcDbEntity
  8
0
100
AcDbBlockEnd
  0
BLOCK
  5
20989C
100
AcDbEntity
  8
0
100
AcDbBlockBegin
  2
*D11
 70
1
 10
0
 20
0
 30
0
  3
*D11
  1

  0
POINT
  5
20989F
100
AcDbEntity
  8
DEFPOINTS
100
AcDbPoint
370
-1
 62
0
  6
BYLAYER
 10
168.592005739352
 20
412.395601133485
 30
0
  0
POINT
  5
2098A0
100
AcDbEntity
  8
DEFPOINTS
100
AcDbPoint
370
-1
 62
0
  6
BYLAYER
 10
151.033106103805
 20
412.395601133485
 30
0
  0
LINE
  5
2098A2
100
AcDbEntity
  8
0
100
AcDbLine
370
-2
 62
0
 10
168.592005739352
 20
413.020601133485
 30
0
 11
168.592005739352
 21
417.163064224633
 31
0
  0
LINE
  5
2098A3
100
AcDbEntity
  8
0
100
AcDbLine
370
-2
 62
0
 10
151.033106103805
 20
413.020601133485
 30
0
 11
151.033106103805
 21
417.163064224633
 31
0
  0
LINE
  5
2098A4
100
AcDbEntity
  8
0
100
AcDbLine
370
-2
 62
0
 10
151.033106103805
 20
415.913064224633
 30
0
 11
151.033106103805
 21
415.913064224633
 31
0
  0
LINE
  5
2098A5
100
AcDbEntity
  8
0
100
AcDbLine
370
-2
 62
0
 10
168.592005739352
 20
415.913064224633
 30
0
 11
168.592005739352
 21
415.913064224633
 31
0
  0
TEXT
  5
2098A1
100
AcDbEntity
  8
0
100
AcDbText
370
-1
 62
0
 10
155.110174969198
 20
418.264254700824
 30
0
 40
2.5
  1
17,56
 50
0
 41
1
 51
0
  7
Standard
 71
0
 72
0
 11
0
 21
0
 31
0
100
AcDbText
 73
0
  0
INSERT
  5
2098A6
100
AcDbEntity
  8
0
100
AcDbBlockReference
370
-2
 62
0
  6
BYLAYER
  2
_CLOSEDFILLED
 10
151.033106103805
 20
415.913064224633
 30
0
 41
2.5
 42
2.5
 43
2.5
  0
INSERT
  5
2098A7
100
AcDbEntity
  8
0
100
AcDbBlockReference
370
-2
 62
0
  6
BYLAYER
  2
_CLOSEDFILLED
 10
168.592005739352
 20
415.913064224633
 30
0
 41
2.5
 42
2.5
 43
2.5
 50
180
  0
INSERT
  5
2098A8
100
AcDbEntity
  8
0
100
AcDbBlockReference
370
-2
 62
0
  6
BYLAYER
  2
sgCLOSEDFILEDLINE
 10
151.033106103805
 20
415.913064224633
 30
0
 41
1.25
 42
1.25
 43
1.25
 50
180
  0
INSERT
  5
2098A9
100
AcDbEntity
  8
0
100
AcDbBlockReference
370
-2
 62
0
  6
BYLAYER
  2
sgCLOSEDFILEDLINE
 10
168.592005739352
 20
415.913064224633
 30
0
 41
1.25
 42
1.25
 43
1.25
 50
180
  0
ENDBLK
  5
214A6D
100
AcDbEntity
  8
0
100
AcDbBlockEnd
  0
BLOCK
  5
20A1A5
100
AcDbEntity
  8
0
100
AcDbBlockBegin
  2
*D12
 70
1
 10
0
 20
0
 30
0
  3
*D12
  1

  0
POINT
  5
20A1A8
100
AcDbEntity
  8
DEFPOINTS
100
AcDbPoint
370
-1
 62
0
  6
BYLAYER
 10
162.618329627923
 20
410.893853138339
 30
0
  0
POINT
  5
20A1A9
100
AcDbEntity
  8
DEFPOINTS
100
AcDbPoint
370
-1
 62
0
  6
BYLAYER
 10
134.648329627923
 20
410.893853138339
 30
0
  0
LINE
  5
20A1AB
100
AcDbEntity
  8
0
100
AcDbLine
370
-2
 62
0
 10
162.618329627923
 20
411.518853138339
 30
0
 11
162.618329627923
 21
414.54420910343
 31
0
  0
LINE
  5
20A1AC
100
AcDbEntity
  8
0
100
AcDbLine
370
-2
 62
0
 10
134.648329627923
 20
411.518853138339
 30
0
 11
134.648329627923
 21
414.54420910343
 31
0
  0
LINE
  5
20A1AD
100
AcDbEntity
  8
0
100
AcDbLine
370
-2
 62
0
 10
162.618329627923
 20
413.29420910343
 30
0
 11
134.648329627923
 21
413.29420910343
 31
0
  0
LINE
  5
20A1AE
100
AcDbEntity
  8
0
100
AcDbLine
370
-2
 62
0
 10
134.648329627923
 20
413.29420910343
 30
0
 11
134.648329627923
 21
413.29420910343
 31
0
  0
TEXT
  5
20A1AA
100
AcDbEntity
  8
0
100
AcDbText
370
-1
 62
0
 10
143.633329627923
 20
414.395399579621
 30
0
 40
2.5
  1
27,97
 50
0
 41
1
 51
0
  7
Standard
 71
0
 72
0
 11
0
 21
0
 31
0
100
AcDbText
 73
0
  0
INSERT
  5
20A1AF
100
AcDbEntity
  8
0
100
AcDbBlockReference
370
-2
 62
0
  6
BYLAYER
  2
_CLOSEDFILLED
 10
134.648329627923
 20
413.29420910343
 30
0
 41
2.5
 42
2.5
 43
2.5
 50
180
  0
INSERT
  5
20A1B0
100
AcDbEntity
  8
0
100
AcDbBlockReference
370
-2
 62
0
  6
BYLAYER
  2
_CLOSEDFILLED
 10
162.618329627923
 20
413.29420910343
 30
0
 41
2.5
 42
2.5
 43
2.5
  0
INSERT
  5
20A1B1
100
AcDbEntity
  8
0
100
AcDbBlockReference
370
-2
 62
0
  6
BYLAYER
  2
sgCLOSEDFILEDLINE
 10
134.648329627923
 20
413.29420910343
 30
0
 41
1.25
 42
1.25
 43
1.25
  0
INSERT
  5
20A1B2
100
AcDbEntity
  8
0
100
AcDbBlockReference
370
-2
 62
0
  6
BYLAYER
  2
sgCLOSEDFILEDLINE
 10
162.618329627923
 20
413.29420910343
 30
0
 41
1.25
 42
1.25
 43
1.25
  0
ENDBLK
  5
214A6E
100
AcDbEntity
  8
0
100
AcDbBlockEnd
  0
BLOCK
  5
20A1BE
100
AcDbEntity
  8
0
100
AcDbBlockBegin
  2
*D13
 70
1
 10
0
 20
0
 30
0
  3
*D13
  1

  0
POINT
  5
20A1C1
100
AcDbEntity
  8
DEFPOINTS
100
AcDbPoint
370
-1
 62
0
  6
BYLAYER
 10
162.618329627923
 20
410.893853138339
 30
0
  0
POINT
  5
20A1C2
100
AcDbEntity
  8
DEFPOINTS
100
AcDbPoint
370
-1
 62
0
  6
BYLAYER
 10
134.648329627923
 20
410.893853138339
 30
0
  0
LINE
  5
20A1C4
100
AcDbEntity
  8
0
100
AcDbLine
370
-2
 62
0
 10
162.618329627923
 20
411.518853138339
 30
0
 11
162.618329627923
 21
417.48803137725
 31
0
  0
LINE
  5
20A1C5
100
AcDbEntity
  8
0
100
AcDbLine
370
-2
 62
0
 10
134.648329627923
 20
411.518853138339
 30
0
 11
134.648329627923
 21
417.48803137725
 31
0
  0
LINE
  5
20A1C6
100
AcDbEntity
  8
0
100
AcDbLine
370
-2
 62
0
 10
162.618329627923
 20
416.23803137725
 30
0
 11
134.648329627923
 21
416.23803137725
 31
0
  0
LINE
  5
20A1C7
100
AcDbEntity
  8
0
100
AcDbLine
370
-2
 62
0
 10
134.648329627923
 20
416.23803137725
 30
0
 11
134.648329627923
 21
416.23803137725
 31
0
  0
TEXT
  5
20A1C3
100
AcDbEntity
  8
0
100
AcDbText
370
-1
 62
0
 10
143.633329627923
 20
417.339221853441
 30
0
 40
2.5
  1
27,97
 50
0
 41
1
 51
0
  7
Standard
 71
0
 72
0
 11
0
 21
0
 31
0
100
AcDbText
 73
0
  0
INSERT
  5
20A1C8
100
AcDbEntity
  8
0
100
AcDbBlockReference
370
-2
 62
0
  6
BYLAYER
  2
_CLOSEDFILLED
 10
134.648329627923
 20
416.23803137725
 30
0
 41
2.5
 42
2.5
 43
2.5
 50
180
  0
INSERT
  5
20A1C9
100
AcDbEntity
  8
0
100
AcDbBlockReference
370
-2
 62
0
  6
BYLAYER
  2
_CLOSEDFILLED
 10
162.618329627923
 20
416.23803137725
 30
0
 41
2.5
 42
2.5
 43
2.5
  0
INSERT
  5
20A1CA
100
AcDbEntity
  8
0
100
AcDbBlockReference
370
-2
 62
0
  6
BYLAYER
  2
sgCLOSEDFILEDLINE
 10
134.648329627923
 20
416.23803137725
 30
0
 41
1.25
 42
1.25
 43
1.25
  0
INSERT
  5
20A1CB
100
AcDbEntity
  8
0
100
AcDbBlockReference
370
-2
 62
0
  6
BYLAYER
  2
sgCLOSEDFILEDLINE
 10
162.618329627923
 20
416.23803137725
 30
0
 41
1.25
 42
1.25
 43
1.25
  0
ENDBLK
  5
214A6F
100
AcDbEntity
  8
0
100
AcDbBlockEnd
  0
BLOCK
  5
20A1D7
100
AcDbEntity
  8
0
100
AcDbBlockBegin
  2
*D14
 70
1
 10
0
 20
0
 30
0
  3
*D14
  1

  0
POINT
  5
20A1DA
100
AcDbEntity
  8
DEFPOINTS
100
AcDbPoint
370
-1
 62
0
  6
BYLAYER
 10
172.775757632804
 20
412.091023796914
 30
0
  0
POINT
  5
20A1DB
100
AcDbEntity
  8
DEFPOINTS
100
AcDbPoint
370
-1
 62
0
  6
BYLAYER
 10
134.648329627923
 20
407.409027359225
 30
0
  0
LINE
  5
20A1DD
100
AcDbEntity
  8
0
100
AcDbLine
370
-2
 62
0
 10
172.775757632804
 20
412.091023796914
 30
0
 11
172.775757632804
 21
412.091023796914
 31
0
  0
LINE
  5
20A1DE
100
AcDbEntity
  8
0
100
AcDbLine
370
-2
 62
0
 10
134.648329627923
 20
407.409027359225
 30
0
 11
134.648329627923
 21
407.409027359225
 31
0
  0
LINE
  5
20A1DF
100
AcDbEntity
  8
0
100
AcDbLine
370
-2
 62
0
 10
172.775757632804
 20
412.091023796914
 30
0
 11
134.648329627923
 21
407.409027359225
 31
0
  0
LINE
  5
20A1E0
100
AcDbEntity
  8
0
100
AcDbLine
370
-2
 62
0
 10
134.648329627923
 20
407.409027359225
 30
0
 11
134.648329627923
 21
407.409027359225
 31
0
  0
TEXT
  5
20A1DC
100
AcDbEntity
  8
0
100
AcDbText
370
-1
 62
0
 10
149.089218188129
 20
410.291810999288
 30
0
 40
2.5
  1
38,41
 50
7.00079488754272
 41
1
 51
0
  7
Standard
 71
0
 72
0
 11
0
 21
0
 31
0
100
AcDbText
 73
0
  0
INSERT
  5
20A1E1
100
AcDbEntity
  8
0
100
AcDbBlockReference
370
-2
 62
0
  6
BYLAYER
  2
_CLOSEDFILLED
 10
134.648329627923
 20
407.409027359225
 30
0
 41
2.5
 42
2.5
 43
2.5
 50
187.000794886077
  0
INSERT
  5
20A1E2
100
AcDbEntity
  8
0
100
AcDbBlockReference
370
-2
 62
0
  6
BYLAYER
  2
_CLOSEDFILLED
 10
172.775757632804
 20
412.091023796914
 30
0
 41
2.5
 42
2.5
 43
2.5
 50
7.00079488607696
  0
INSERT
  5
20A1E3
100
AcDbEntity
  8
0
100
AcDbBlockReference
370
-2
 62
0
  6
BYLAYER
  2
sgCLOSEDFILEDLINE
 10
134.648329627923
 20
407.409027359225
 30
0
 41
1.25
 42
1.25
 43
1.25
 50
7.00079488607696
  0
INSERT
  5
20A1E4
100
AcDbEntity
  8
0
100
AcDbBlockReference
370
-2
 62
0
  6
BYLAYER
  2
sgCLOSEDFILEDLINE
 10
172.775757632804
 20
412.091023796914
 30
0
 41
1.25
 42
1.25
 43
1.25
 50
7.00079488607696
  0
ENDBLK
  5
214A70
100
AcDbEntity
  8
0
100
AcDbBlockEnd
  0
BLOCK
  5
20A1F0
100
AcDbEntity
  8
0
100
AcDbBlockBegin
  2
*D15
 70
1
 10
0
 20
0
 30
0
  3
*D15
  1

  0
POINT
  5
20A1F3
100
AcDbEntity
  8
DEFPOINTS
100
AcDbPoint
370
-1
 62
0
  6
BYLAYER
 10
163.770022080443
 20
407.824233838618
 30
0
  0
POINT
  5
20A1F4
100
AcDbEntity
  8
DEFPOINTS
100
AcDbPoint
370
-1
 62
0
  6
BYLAYER
 10
133.700022080443
 20
407.824233838618
 30
0
  0
LINE
  5
20A1F6
100
AcDbEntity
  8
0
100
AcDbLine
370
-2
 62
0
 10
163.770022080443
 20
408.449233838618
 30
0
 11
163.770022080443
 21
417.167232061033
 31
0
  0
LINE
  5
20A1F7
100
AcDbEntity
  8
0
100
AcDbLine
370
-2
 62
0
 10
133.700022080443
 20
408.449233838618
 30
0
 11
133.700022080443
 21
417.167232061033
 31
0
  0
LINE
  5
20A1F8
100
AcDbEntity
  8
0
100
AcDbLine
370
-2
 62
0
 10
163.770022080443
 20
415.917232061033
 30
0
 11
133.700022080443
 21
415.917232061033
 31
0
  0
LINE
  5
20A1F9
100
AcDbEntity
  8
0
100
AcDbLine
370
-2
 62
0
 10
133.700022080443
 20
415.917232061033
 30
0
 11
133.700022080443
 21
415.917232061033
 31
0
  0
TEXT
  5
20A1F5
100
AcDbEntity
  8
0
100
AcDbText
370
-1
 62
0
 10
143.735022080443
 20
417.018422537223
 30
0
 40
2.5
  1
30,07
 50
0
 41
1
 51
0
  7
Standard
 71
0
 72
0
 11
0
 21
0
 31
0
100
AcDbText
 73
0
  0
INSERT
  5
20A1FA
100
AcDbEntity
  8
0
100
AcDbBlockReference
370
-2
 62
0
  6
BYLAYER
  2
_CLOSEDFILLED
 10
133.700022080443
 20
415.917232061033
 30
0
 41
2.5
 42
2.5
 43
2.5
 50
180
  0
INSERT
  5
20A1FB
100
AcDbEntity
  8
0
100
AcDbBlockReference
370
-2
 62
0
  6
BYLAYER
  2
_CLOSEDFILLED
 10
163.770022080443
 20
415.917232061033
 30
0
 41
2.5
 42
2.5
 43
2.5
  0
INSERT
  5
20A1FC
100
AcDbEntity
  8
0
100
AcDbBlockReference
370
-2
 62
0
  6
BYLAYER
  2
sgCLOSEDFILEDLINE
 10
133.700022080443
 20
415.917232061033
 30
0
 41
1.25
 42
1.25
 43
1.25
  0
INSERT
  5
20A1FD
100
AcDbEntity
  8
0
100
AcDbBlockReference
370
-2
 62
0
  6
BYLAYER
  2
sgCLOSEDFILEDLINE
 10
163.770022080443
 20
415.917232061033
 30
0
 41
1.25
 42
1.25
 43
1.25
  0
ENDBLK
  5
214A71
100
AcDbEntity
  8
0
100
AcDbBlockEnd
  0
BLOCK
  5
20A6AF
100
AcDbEntity
  8
0
100
AcDbBlockBegin
  2
*D16
 70
1
 10
0
 20
0
 30
0
  3
*D16
  1

  0
POINT
  5
20C4E4
100
AcDbEntity
  8
DEFPOINTS
100
AcDbPoint
370
-1
 62
0
  6
BYLAYER
 10
160.741254014246
 20
398.921484381621
 30
0
  0
POINT
  5
20C4E5
100
AcDbEntity
  8
DEFPOINTS
100
AcDbPoint
370
-1
 62
0
  6
BYLAYER
 10
133.721154313138
 20
398.921484381621
 30
0
  0
LINE
  5
20C4E7
100
AcDbEntity
  8
0
100
AcDbLine
370
-2
 62
0
 10
160.741254014246
 20
398.296484381621
 30
0
 11
160.741254014246
 21
390.160110525
 31
0
  0
LINE
  5
20C4E8
100
AcDbEntity
  8
0
100
AcDbLine
370
-2
 62
0
 10
133.721154313138
 20
398.296484381621
 30
0
 11
133.721154313138
 21
390.160110525
 31
0
  0
LINE
  5
20C4E9
100
AcDbEntity
  8
0
100
AcDbLine
370
-2
 62
0
 10
160.741254014246
 20
391.410110525
 30
0
 11
133.721154313138
 21
391.410110525
 31
0
  0
LINE
  5
20C4EA
100
AcDbEntity
  8
0
100
AcDbLine
370
-2
 62
0
 10
133.721154313138
 20
391.410110525
 30
0
 11
133.721154313138
 21
391.410110525
 31
0
  0
TEXT
  5
20C4E6
100
AcDbEntity
  8
0
100
AcDbText
370
-1
 62
0
 10
142.231204163692
 20
392.511301001191
 30
0
 40
2.5
  1
27,02
 50
0
 41
1
 51
0
  7
Standard
 71
0
 72
0
 11
0
 21
0
 31
0
100
AcDbText
 73
0
  0
INSERT
  5
20C4EB
100
AcDbEntity
  8
0
100
AcDbBlockReference
370
-2
 62
0
  6
BYLAYER
  2
_CLOSEDFILLED
 10
133.721154313138
 20
391.410110525
 30
0
 41
2.5
 42
2.5
 43
2.5
 50
180
  0
INSERT
  5
20C4EC
100
AcDbEntity
  8
0
100
AcDbBlockReference
370
-2
 62
0
  6
BYLAYER
  2
_CLOSEDFILLED
 10
160.741254014246
 20
391.410110525
 30
0
 41
2.5
 42
2.5
 43
2.5
  0
INSERT
  5
20C4ED
100
AcDbEntity
  8
0
100
AcDbBlockReference
370
-2
 62
0
  6
BYLAYER
  2
sgCLOSEDFILEDLINE
 10
133.721154313138
 20
391.410110525
 30
0
 41
1.25
 42
1.25
 43
1.25
  0
INSERT
  5
20C4EE
100
AcDbEntity
  8
0
100
AcDbBlockReference
370
-2
 62
0
  6
BYLAYER
  2
sgCLOSEDFILEDLINE
 10
160.741254014246
 20
391.410110525
 30
0
 41
1.25
 42
1.25
 43
1.25
  0
ENDBLK
  5
214A72
100
AcDbEntity
  8
0
100
AcDbBlockEnd
  0
BLOCK
  5
20C438
100
AcDbEntity
  8
0
100
AcDbBlockBegin
  2
*D17
 70
1
 10
0
 20
0
 30
0
  3
*D17
  1

  0
POINT
  5
20C43B
100
AcDbEntity
  8
DEFPOINTS
100
AcDbPoint
370
-1
 62
0
  6
BYLAYER
 10
113.185775638445
 20
384.004567389323
 30
0
  0
POINT
  5
20C43C
100
AcDbEntity
  8
DEFPOINTS
100
AcDbPoint
370
-1
 62
0
  6
BYLAYER
 10
113.185775638445
 20
421.434567389323
 30
0
  0
LINE
  5
20C43E
100
AcDbEntity
  8
0
100
AcDbLine
370
-2
 62
0
 10
113.810775638445
 20
384.004567389323
 30
0
 11
115.543517980637
 21
384.004567389323
 31
0
  0
LINE
  5
20C43F
100
AcDbEntity
  8
0
100
AcDbLine
370
-2
 62
0
 10
113.810775638445
 20
421.434567389323
 30
0
 11
115.543517980637
 21
421.434567389323
 31
0
  0
LINE
  5
20C440
100
AcDbEntity
  8
0
100
AcDbLine
370
-2
 62
0
 10
114.293517980637
 20
384.004567389323
 30
0
 11
114.293517980637
 21
421.434567389323
 31
0
  0
LINE
  5
20C441
100
AcDbEntity
  8
0
100
AcDbLine
370
-2
 62
0
 10
114.293517980637
 20
421.434567389323
 30
0
 11
114.293517980637
 21
421.434567389323
 31
0
  0
TEXT
  5
20C43D
100
AcDbEntity
  8
0
100
AcDbText
370
-1
 62
0
 10
113.192327504447
 20
397.243376913133
 30
0
 40
2.5
  1
37,43
 50
90
 41
1
 51
0
  7
Standard
 71
0
 72
0
 11
0
 21
0
 31
0
100
AcDbText
 73
0
  0
INSERT
  5
20C442
100
AcDbEntity
  8
0
100
AcDbBlockReference
370
-2
 62
0
  6
BYLAYER
  2
_CLOSEDFILLED
 10
114.293517980637
 20
421.434567389323
 30
0
 41
2.5
 42
2.5
 43
2.5
 50
90
  0
INSERT
  5
20C443
100
AcDbEntity
  8
0
100
AcDbBlockReference
370
-2
 62
0
  6
BYLAYER
  2
_CLOSEDFILLED
 10
114.293517980637
 20
384.004567389323
 30
0
 41
2.5
 42
2.5
 43
2.5
 50
270
  0
INSERT
  5
20C444
100
AcDbEntity
  8
0
100
AcDbBlockReference
370
-2
 62
0
  6
BYLAYER
  2
sgCLOSEDFILEDLINE
 10
114.293517980637
 20
421.434567389323
 30
0
 41
1.25
 42
1.25
 43
1.25
 50
270
  0
INSERT
  5
20C445
100
AcDbEntity
  8
0
100
AcDbBlockReference
370
-2
 62
0
  6
BYLAYER
  2
sgCLOSEDFILEDLINE
 10
114.293517980637
 20
384.004567389323
 30
0
 41
1.25
 42
1.25
 43
1.25
 50
270
  0
ENDBLK
  5
214A73
100
AcDbEntity
  8
0
100
AcDbBlockEnd
  0
BLOCK
  5
20C556
100
AcDbEntity
  8
0
100
AcDbBlockBegin
  2
*D18
 70
1
 10
0
 20
0
 30
0
  3
*D18
  1

  0
POINT
  5
20C559
100
AcDbEntity
  8
DEFPOINTS
100
AcDbPoint
370
-1
 62
0
  6
BYLAYER
 10
140.395353823479
 20
380.12811352612
 30
0
  0
POINT
  5
20C55A
100
AcDbEntity
  8
DEFPOINTS
100
AcDbPoint
370
-1
 62
0
  6
BYLAYER
 10
140.395353823479
 20
417.55811352612
 30
0
  0
LINE
  5
20C55C
100
AcDbEntity
  8
0
100
AcDbLine
370
-2
 62
0
 10
140.395353823479
 20
380.12811352612
 30
0
 11
140.395353823479
 21
380.12811352612
 31
0
  0
LINE
  5
20C55D
100
AcDbEntity
  8
0
100
AcDbLine
370
-2
 62
0
 10
140.395353823479
 20
417.55811352612
 30
0
 11
140.395353823479
 21
417.55811352612
 31
0
  0
LINE
  5
20C55E
100
AcDbEntity
  8
0
100
AcDbLine
370
-2
 62
0
 10
140.395353823479
 20
380.12811352612
 30
0
 11
140.395353823479
 21
417.55811352612
 31
0
  0
LINE
  5
20C55F
100
AcDbEntity
  8
0
100
AcDbLine
370
-2
 62
0
 10
140.395353823479
 20
417.55811352612
 30
0
 11
140.395353823479
 21
417.55811352612
 31
0
  0
TEXT
  5
20C55B
100
AcDbEntity
  8
0
100
AcDbText
370
-1
 62
0
 10
139.294163347289
 20
393.366923049929
 30
0
 40
2.5
  1
37,43
 50
90
 41
1
 51
0
  7
Standard
 71
0
 72
0
 11
0
 21
0
 31
0
100
AcDbText
 73
0
  0
INSERT
  5
20C560
100
AcDbEntity
  8
0
100
AcDbBlockReference
370
-2
 62
0
  6
BYLAYER
  2
_CLOSEDFILLED
 10
140.395353823479
 20
417.55811352612
 30
0
 41
2.5
 42
2.5
 43
2.5
 50
90
  0
INSERT
  5
20C561
100
AcDbEntity
  8
0
100
AcDbBlockReference
370
-2
 62
0
  6
BYLAYER
  2
_CLOSEDFILLED
 10
140.395353823479
 20
380.12811352612
 30
0
 41
2.5
 42
2.5
 43
2.5
 50
270
  0
INSERT
  5
20C562
100
AcDbEntity
  8
0
100
AcDbBlockReference
370
-2
 62
0
  6
BYLAYER
  2
sgCLOSEDFILEDLINE
 10
140.395353823479
 20
417.55811352612
 30
0
 41
1.25
 42
1.25
 43
1.25
 50
270
  0
INSERT
  5
20C563
100
AcDbEntity
  8
0
100
AcDbBlockReference
370
-2
 62
0
  6
BYLAYER
  2
sgCLOSEDFILEDLINE
 10
140.395353823479
 20
380.12811352612
 30
0
 41
1.25
 42
1.25
 43
1.25
 50
270
  0
ENDBLK
  5
214A74
100
AcDbEntity
  8
0
100
AcDbBlockEnd
  0
BLOCK
  5
20C63F
100
AcDbEntity
  8
0
100
AcDbBlockBegin
  2
*D19
 70
1
 10
0
 20
0
 30
0
  3
*D19
  1

  0
POINT
  5
20C642
100
AcDbEntity
  8
DEFPOINTS
100
AcDbPoint
370
-1
 62
0
  6
BYLAYER
 10
162.284161347299
 20
389.693938904214
 30
0
  0
POINT
  5
20C643
100
AcDbEntity
  8
DEFPOINTS
100
AcDbPoint
370
-1
 62
0
  6
BYLAYER
 10
132.214161347299
 20
389.693938904214
 30
0
  0
LINE
  5
20C645
100
AcDbEntity
  8
0
100
AcDbLine
370
-2
 62
0
 10
162.284161347299
 20
389.068938904214
 30
0
 11
162.284161347299
 21
369.571300609748
 31
0
  0
LINE
  5
20C646
100
AcDbEntity
  8
0
100
AcDbLine
370
-2
 62
0
 10
132.214161347299
 20
389.068938904214
 30
0
 11
132.214161347299
 21
369.571300609748
 31
0
  0
LINE
  5
20C647
100
AcDbEntity
  8
0
100
AcDbLine
370
-2
 62
0
 10
162.284161347299
 20
370.821300609748
 30
0
 11
132.214161347299
 21
370.821300609748
 31
0
  0
LINE
  5
20C648
100
AcDbEntity
  8
0
100
AcDbLine
370
-2
 62
0
 10
132.214161347299
 20
370.821300609748
 30
0
 11
132.214161347299
 21
370.821300609748
 31
0
  0
TEXT
  5
20C644
100
AcDbEntity
  8
0
100
AcDbText
370
-1
 62
0
 10
142.249161347299
 20
371.922491085939
 30
0
 40
2.5
  1
30,07
 50
0
 41
1
 51
0
  7
Standard
 71
0
 72
0
 11
0
 21
0
 31
0
100
AcDbText
 73
0
  0
INSERT
  5
20C649
100
AcDbEntity
  8
0
100
AcDbBlockReference
370
-2
 62
0
  6
BYLAYER
  2
_CLOSEDFILLED
 10
132.214161347299
 20
370.821300609748
 30
0
 41
2.5
 42
2.5
 43
2.5
 50
180
  0
INSERT
  5
20C64A
100
AcDbEntity
  8
0
100
AcDbBlockReference
370
-2
 62
0
  6
BYLAYER
  2
_CLOSEDFILLED
 10
162.284161347299
 20
370.821300609748
 30
0
 41
2.5
 42
2.5
 43
2.5
  0
INSERT
  5
20C64B
100
AcDbEntity
  8
0
100
AcDbBlockReference
370
-2
 62
0
  6
BYLAYER
  2
sgCLOSEDFILEDLINE
 10
132.214161347299
 20
370.821300609748
 30
0
 41
1.25
 42
1.25
 43
1.25
  0
INSERT
  5
20C64C
100
AcDbEntity
  8
0
100
AcDbBlockReference
370
-2
 62
0
  6
BYLAYER
  2
sgCLOSEDFILEDLINE
 10
162.284161347299
 20
370.821300609748
 30
0
 41
1.25
 42
1.25
 43
1.25
  0
ENDBLK
  5
214A75
100
AcDbEntity
  8
0
100
AcDbBlockEnd
  0
BLOCK
  5
20C674
100
AcDbEntity
  8
0
100
AcDbBlockBegin
  2
*D20
 70
1
 10
0
 20
0
 30
0
  3
*D20
  1

  0
POINT
  5
20C677
100
AcDbEntity
  8
DEFPOINTS
100
AcDbPoint
370
-1
 62
0
  6
BYLAYER
 10
147.239908971835
 20
380.12545261297
 30
0
  0
POINT
  5
20C678
100
AcDbEntity
  8
DEFPOINTS
100
AcDbPoint
370
-1
 62
0
  6
BYLAYER
 10
147.239908971835
 20
417.55545261297
 30
0
  0
LINE
  5
20C67A
100
AcDbEntity
  8
0
100
AcDbLine
370
-2
 62
0
 10
147.864908971835
 20
380.12545261297
 30
0
 11
156.634412212762
 21
380.12545261297
 31
0
  0
LINE
  5
20C67B
100
AcDbEntity
  8
0
100
AcDbLine
370
-2
 62
0
 10
147.864908971835
 20
417.55545261297
 30
0
 11
156.634412212762
 21
417.55545261297
 31
0
  0
LINE
  5
20C67C
100
AcDbEntity
  8
0
100
AcDbLine
370
-2
 62
0
 10
155.384412212762
 20
380.12545261297
 30
0
 11
155.384412212762
 21
417.55545261297
 31
0
  0
LINE
  5
20C67D
100
AcDbEntity
  8
0
100
AcDbLine
370
-2
 62
0
 10
155.384412212762
 20
417.55545261297
 30
0
 11
155.384412212762
 21
417.55545261297
 31
0
  0
TEXT
  5
20C679
100
AcDbEntity
  8
0
100
AcDbText
370
-1
 62
0
 10
154.283221736572
 20
393.364262136779
 30
0
 40
2.5
  1
37,43
 50
90
 41
1
 51
0
  7
Standard
 71
0
 72
0
 11
0
 21
0
 31
0
100
AcDbText
 73
0
  0
INSERT
  5
20C67E
100
AcDbEntity
  8
0
100
AcDbBlockReference
370
-2
 62
0
  6
BYLAYER
  2
_CLOSEDFILLED
 10
155.384412212762
 20
417.55545261297
 30
0
 41
2.5
 42
2.5
 43
2.5
 50
90
  0
INSERT
  5
20C67F
100
AcDbEntity
  8
0
100
AcDbBlockReference
370
-2
 62
0
  6
BYLAYER
  2
_CLOSEDFILLED
 10
155.384412212762
 20
380.12545261297
 30
0
 41
2.5
 42
2.5
 43
2.5
 50
270
  0
INSERT
  5
20C680
100
AcDbEntity
  8
0
100
AcDbBlockReference
370
-2
 62
0
  6
BYLAYER
  2
sgCLOSEDFILEDLINE
 10
155.384412212762
 20
417.55545261297
 30
0
 41
1.25
 42
1.25
 43
1.25
 50
270
  0
INSERT
  5
20C681
100
AcDbEntity
  8
0
100
AcDbBlockReference
370
-2
 62
0
  6
BYLAYER
  2
sgCLOSEDFILEDLINE
 10
155.384412212762
 20
380.12545261297
 30
0
 41
1.25
 42
1.25
 43
1.25
 50
270
  0
ENDBLK
  5
214A76
100
AcDbEntity
  8
0
100
AcDbBlockEnd
  0
BLOCK
  5
20C736
100
AcDbEntity
  8
0
100
AcDbBlockBegin
  2
*D21
 70
1
 10
0
 20
0
 30
0
  3
*D21
  1

  0
POINT
  5
20C739
100
AcDbEntity
  8
DEFPOINTS
100
AcDbPoint
370
-1
 62
0
  6
BYLAYER
 10
155.306991757284
 20
416.477274868373
 30
0
  0
POINT
  5
20C73A
100
AcDbEntity
  8
DEFPOINTS
100
AcDbPoint
370
-1
 62
0
  6
BYLAYER
 10
139.153573613359
 20
416.477274868373
 30
0
  0
LINE
  5
20C73C
100
AcDbEntity
  8
0
100
AcDbLine
370
-2
 62
0
 10
155.306991757284
 20
415.852274868373
 30
0
 11
155.306991757284
 21
412.405539387745
 31
0
  0
LINE
  5
20C73D
100
AcDbEntity
  8
0
100
AcDbLine
370
-2
 62
0
 10
139.153573613359
 20
415.852274868373
 30
0
 11
139.153573613359
 21
412.405539387745
 31
0
  0
LINE
  5
20C73E
100
AcDbEntity
  8
0
100
AcDbLine
370
-2
 62
0
 10
139.153573613359
 20
413.655539387745
 30
0
 11
139.153573613359
 21
413.655539387745
 31
0
  0
LINE
  5
20C73F
100
AcDbEntity
  8
0
100
AcDbLine
370
-2
 62
0
 10
155.306991757284
 20
413.655539387745
 30
0
 11
155.306991757284
 21
413.655539387745
 31
0
  0
TEXT
  5
20C73B
100
AcDbEntity
  8
0
100
AcDbText
370
-1
 62
0
 10
142.706473161512
 20
415.054348911554
 30
0
 40
2.5
  1
16,15
 50
0
 41
1
 51
0
  7
Standard
 71
0
 72
0
 11
0
 21
0
 31
0
100
AcDbText
 73
0
  0
INSERT
  5
20C740
100
AcDbEntity
  8
0
100
AcDbBlockReference
370
-2
 62
0
  6
BYLAYER
  2
_CLOSEDFILLED
 10
139.153573613359
 20
413.655539387745
 30
0
 41
2.5
 42
2.5
 43
2.5
  0
INSERT
  5
20C741
100
AcDbEntity
  8
0
100
AcDbBlockReference
370
-2
 62
0
  6
BYLAYER
  2
_CLOSEDFILLED
 10
155.306991757284
 20
413.655539387745
 30
0
 41
2.5
 42
2.5
 43
2.5
 50
180
  0
INSERT
  5
20C742
100
AcDbEntity
  8
0
100
AcDbBlockReference
370
-2
 62
0
  6
BYLAYER
  2
sgCLOSEDFILEDLINE
 10
139.153573613359
 20
413.655539387745
 30
0
 41
1.25
 42
1.25
 43
1.25
 50
180
  0
INSERT
  5
20C743
100
AcDbEntity
  8
0
100
AcDbBlockReference
370
-2
 62
0
  6
BYLAYER
  2
sgCLOSEDFILEDLINE
 10
155.306991757284
 20
413.655539387745
 30
0
 41
1.25
 42
1.25
 43
1.25
 50
180
  0
ENDBLK
  5
214A77
100
AcDbEntity
  8
0
100
AcDbBlockEnd
  0
BLOCK
  5
20C74F
100
AcDbEntity
  8
0
100
AcDbBlockBegin
  2
*D22
 70
1
 10
0
 20
0
 30
0
  3
*D22
  1

  0
POINT
  5
20C752
100
AcDbEntity
  8
DEFPOINTS
100
AcDbPoint
370
-1
 62
0
  6
BYLAYER
 10
155.306991757284
 20
416.477274868373
 30
0
  0
POINT
  5
20C753
100
AcDbEntity
  8
DEFPOINTS
100
AcDbPoint
370
-1
 62
0
  6
BYLAYER
 10
139.153573613359
 20
416.477274868373
 30
0
  0
LINE
  5
20C755
100
AcDbEntity
  8
0
100
AcDbLine
370
-2
 62
0
 10
155.306991757284
 20
415.852274868373
 30
0
 11
155.306991757284
 21
407.985556943577
 31
0
  0
LINE
  5
20C756
100
AcDbEntity
  8
0
100
AcDbLine
370
-2
 62
0
 10
139.153573613359
 20
415.852274868373
 30
0
 11
139.153573613359
 21
407.985556943577
 31
0
  0
LINE
  5
20C757
100
AcDbEntity
  8
0
100
AcDbLine
370
-2
 62
0
 10
139.153573613359
 20
409.235556943577
 30
0
 11
139.153573613359
 21
409.235556943577
 31
0
  0
LINE
  5
20C758
100
AcDbEntity
  8
0
100
AcDbLine
370
-2
 62
0
 10
155.306991757284
 20
409.235556943577
 30
0
 11
155.306991757284
 21
409.235556943577
 31
0
  0
TEXT
  5
20C754
100
AcDbEntity
  8
0
100
AcDbText
370
-1
 62
0
 10
142.706473161512
 20
410.634366467387
 30
0
 40
2.5
  1
16,15
 50
0
 41
1
 51
0
  7
Standard
 71
0
 72
0
 11
0
 21
0
 31
0
100
AcDbText
 73
0
  0
INSERT
  5
20C759
100
AcDbEntity
  8
0
100
AcDbBlockReference
370
-2
 62
0
  6
BYLAYER
  2
_CLOSEDFILLED
 10
139.153573613359
 20
409.235556943577
 30
0
 41
2.5
 42
2.5
 43
2.5
  0
INSERT
  5
20C75A
100
AcDbEntity
  8
0
100
AcDbBlockReference
370
-2
 62
0
  6
BYLAYER
  2
_CLOSEDFILLED
 10
155.306991757284
 20
409.235556943577
 30
0
 41
2.5
 42
2.5
 43
2.5
 50
180
  0
INSERT
  5
20C75B
100
AcDbEntity
  8
0
100
AcDbBlockReference
370
-2
 62
0
  6
BYLAYER
  2
sgCLOSEDFILEDLINE
 10
139.153573613359
 20
409.235556943577
 30
0
 41
1.25
 42
1.25
 43
1.25
 50
180
  0
INSERT
  5
20C75C
100
AcDbEntity
  8
0
100
AcDbBlockReference
370
-2
 62
0
  6
BYLAYER
  2
sgCLOSEDFILEDLINE
 10
155.306991757284
 20
409.235556943577
 30
0
 41
1.25
 42
1.25
 43
1.25
 50
180
  0
ENDBLK
  5
214A78
100
AcDbEntity
  8
0
100
AcDbBlockEnd
  0
BLOCK
  5
20C782
100
AcDbEntity
  8
0
100
AcDbBlockBegin
  2
*D23
 70
1
 10
0
 20
0
 30
0
  3
*D23
  1

  0
POINT
  5
20C785
100
AcDbEntity
  8
DEFPOINTS
100
AcDbPoint
370
-1
 62
0
  6
BYLAYER
 10
147.239908971835
 20
383.847274868372
 30
0
  0
POINT
  5
20C786
100
AcDbEntity
  8
DEFPOINTS
100
AcDbPoint
370
-1
 62
0
  6
BYLAYER
 10
147.239908971835
 20
416.477274868372
 30
0
  0
LINE
  5
20C788
100
AcDbEntity
  8
0
100
AcDbLine
370
-2
 62
0
 10
147.864908971835
 20
383.847274868372
 30
0
 11
183.514263585627
 21
383.847274868372
 31
0
  0
LINE
  5
20C789
100
AcDbEntity
  8
0
100
AcDbLine
370
-2
 62
0
 10
147.864908971835
 20
416.477274868372
 30
0
 11
183.514263585627
 21
416.477274868372
 31
0
  0
LINE
  5
20C78A
100
AcDbEntity
  8
0
100
AcDbLine
370
-2
 62
0
 10
182.264263585627
 20
383.847274868372
 30
0
 11
182.264263585627
 21
416.477274868372
 31
0
  0
LINE
  5
20C78B
100
AcDbEntity
  8
0
100
AcDbLine
370
-2
 62
0
 10
182.264263585627
 20
416.477274868372
 30
0
 11
182.264263585627
 21
416.477274868372
 31
0
  0
TEXT
  5
20C787
100
AcDbEntity
  8
0
100
AcDbText
370
-1
 62
0
 10
181.163073109437
 20
394.686084392182
 30
0
 40
2.5
  1
32,63
 50
90
 41
1
 51
0
  7
Standard
 71
0
 72
0
 11
0
 21
0
 31
0
100
AcDbText
 73
0
  0
INSERT
  5
20C78C
100
AcDbEntity
  8
0
100
AcDbBlockReference
370
-2
 62
0
  6
BYLAYER
  2
_CLOSEDFILLED
 10
182.264263585627
 20
416.477274868372
 30
0
 41
2.5
 42
2.5
 43
2.5
 50
90
  0
INSERT
  5
20C78D
100
AcDbEntity
  8
0
100
AcDbBlockReference
370
-2
 62
0
  6
BYLAYER
  2
_CLOSEDFILLED
 10
182.264263585627
 20
383.847274868372
 30
0
 41
2.5
 42
2.5
 43
2.5
 50
270
  0
INSERT
  5
20C78E
100
AcDbEntity
  8
0
100
AcDbBlockReference
370
-2
 62
0
  6
BYLAYER
  2
sgCLOSEDFILEDLINE
 10
182.264263585627
 20
416.477274868372
 30
0
 41
1.25
 42
1.25
 43
1.25
 50
270
  0
INSERT
  5
20C78F
100
AcDbEntity
  8
0
100
AcDbBlockReference
370
-2
 62
0
  6
BYLAYER
  2
sgCLOSEDFILEDLINE
 10
182.264263585627
 20
383.847274868372
 30
0
 41
1.25
 42
1.25
 43
1.25
 50
270
  0
ENDBLK
  5
214A79
100
AcDbEntity
  8
0
100
AcDbBlockEnd
  0
BLOCK
  5
20C7C5
100
AcDbEntity
  8
0
100
AcDbBlockBegin
  2
*D24
 70
1
 10
0
 20
0
 30
0
  3
*D24
  1

  0
POINT
  5
20C7C8
100
AcDbEntity
  8
DEFPOINTS
100
AcDbPoint
370
-1
 62
0
  6
BYLAYER
 10
134.648329627923
 20
388.829709517356
 30
0
  0
POINT
  5
20C7C9
100
AcDbEntity
  8
DEFPOINTS
100
AcDbPoint
370
-1
 62
0
  6
BYLAYER
 10
134.648329627923
 20
411.471448521088
 30
0
  0
LINE
  5
20C7CB
100
AcDbEntity
  8
0
100
AcDbLine
370
-2
 62
0
 10
135.273329627923
 20
388.829709517356
 30
0
 11
141.171821660601
 21
388.829709517356
 31
0
  0
LINE
  5
20C7CC
100
AcDbEntity
  8
0
100
AcDbLine
370
-2
 62
0
 10
135.273329627923
 20
411.471448521088
 30
0
 11
141.171821660601
 21
411.471448521088
 31
0
  0
LINE
  5
20C7CD
100
AcDbEntity
  8
0
100
AcDbLine
370
-2
 62
0
 10
139.921821660601
 20
388.829709517356
 30
0
 11
139.921821660601
 21
411.471448521088
 31
0
  0
LINE
  5
20C7CE
100
AcDbEntity
  8
0
100
AcDbLine
370
-2
 62
0
 10
139.921821660601
 20
411.471448521088
 30
0
 11
139.921821660601
 21
411.471448521088
 31
0
  0
TEXT
  5
20C7CA
100
AcDbEntity
  8
0
100
AcDbText
370
-1
 62
0
 10
138.820631184411
 20
394.614864733508
 30
0
 40
2.5
  1
22,64
 50
90
 41
1
 51
0
  7
Standard
 71
0
 72
0
 11
0
 21
0
 31
0
100
AcDbText
 73
0
  0
INSERT
  5
20C7CF
100
AcDbEntity
  8
0
100
AcDbBlockReference
370
-2
 62
0
  6
BYLAYER
  2
_CLOSEDFILLED
 10
139.921821660601
 20
411.471448521088
 30
0
 41
2.5
 42
2.5
 43
2.5
 50
90
  0
INSERT
  5
20C7D0
100
AcDbEntity
  8
0
100
AcDbBlockReference
370
-2
 62
0
  6
BYLAYER
  2
_CLOSEDFILLED
 10
139.921821660601
 20
388.829709517356
 30
0
 41
2.5
 42
2.5
 43
2.5
 50
270
  0
INSERT
  5
20C7D1
100
AcDbEntity
  8
0
100
AcDbBlockReference
370
-2
 62
0
  6
BYLAYER
  2
sgCLOSEDFILEDLINE
 10
139.921821660601
 20
411.471448521088
 30
0
 41
1.25
 42
1.25
 43
1.25
 50
270
  0
INSERT
  5
20C7D2
100
AcDbEntity
  8
0
100
AcDbBlockReference
370
-2
 62
0
  6
BYLAYER
  2
sgCLOSEDFILEDLINE
 10
139.921821660601
 20
388.829709517356
 30
0
 41
1.25
 42
1.25
 43
1.25
 50
270
  0
ENDBLK
  5
214A7A
100
AcDbEntity
  8
0
100
AcDbBlockEnd
  0
BLOCK
  5
20C806
100
AcDbEntity
  8
0
100
AcDbBlockBegin
  2
*D25
 70
1
 10
0
 20
0
 30
0
  3
*D25
  1

  0
POINT
  5
20C809
100
AcDbEntity
  8
DEFPOINTS
100
AcDbPoint
370
-1
 62
0
  6
BYLAYER
 10
134.648329627923
 20
388.829709517356
 30
0
  0
POINT
  5
20C80A
100
AcDbEntity
  8
DEFPOINTS
100
AcDbPoint
370
-1
 62
0
  6
BYLAYER
 10
134.648329627923
 20
411.471448521088
 30
0
  0
LINE
  5
20C80C
100
AcDbEntity
  8
0
100
AcDbLine
370
-2
 62
0
 10
135.273329627923
 20
388.829709517356
 30
0
 11
150.147447281256
 21
388.829709517356
 31
0
  0
LINE
  5
20C80D
100
AcDbEntity
  8
0
100
AcDbLine
370
-2
 62
0
 10
135.273329627923
 20
411.471448521088
 30
0
 11
150.147447281256
 21
411.471448521088
 31
0
  0
LINE
  5
20C80E
100
AcDbEntity
  8
0
100
AcDbLine
370
-2
 62
0
 10
148.897447281256
 20
388.829709517356
 30
0
 11
148.897447281256
 21
411.471448521088
 31
0
  0
LINE
  5
20C80F
100
AcDbEntity
  8
0
100
AcDbLine
370
-2
 62
0
 10
148.897447281256
 20
411.471448521088
 30
0
 11
148.897447281256
 21
411.471448521088
 31
0
  0
TEXT
  5
20C80B
100
AcDbEntity
  8
0
100
AcDbText
370
-1
 62
0
 10
147.796256805066
 20
394.614864733508
 30
0
 40
2.5
  1
22,64
 50
90
 41
1
 51
0
  7
Standard
 71
0
 72
0
 11
0
 21
0
 31
0
100
AcDbText
 73
0
  0
INSERT
  5
20C810
100
AcDbEntity
  8
0
100
AcDbBlockReference
370
-2
 62
0
  6
BYLAYER
  2
_CLOSEDFILLED
 10
148.897447281256
 20
411.471448521088
 30
0
 41
2.5
 42
2.5
 43
2.5
 50
90
  0
INSERT
  5
20C811
100
AcDbEntity
  8
0
100
AcDbBlockReference
370
-2
 62
0
  6
BYLAYER
  2
_CLOSEDFILLED
 10
148.897447281256
 20
388.829709517356
 30
0
 41
2.5
 42
2.5
 43
2.5
 50
270
  0
INSERT
  5
20C812
100
AcDbEntity
  8
0
100
AcDbBlockReference
370
-2
 62
0
  6
BYLAYER
  2
sgCLOSEDFILEDLINE
 10
148.897447281256
 20
411.471448521088
 30
0
 41
1.25
 42
1.25
 43
1.25
 50
270
  0
INSERT
  5
20C813
100
AcDbEntity
  8
0
100
AcDbBlockReference
370
-2
 62
0
  6
BYLAYER
  2
sgCLOSEDFILEDLINE
 10
148.897447281256
 20
388.829709517356
 30
0
 41
1.25
 42
1.25
 43
1.25
 50
270
  0
ENDBLK
  5
214A7B
100
AcDbEntity
  8
0
100
AcDbBlockEnd
  0
BLOCK
  5
20CC82
100
AcDbEntity
  8
0
100
AcDbBlockBegin
  2
*D26
 70
1
 10
0
 20
0
 30
0
  3
*D26
  1

  0
POINT
  5
20CC85
100
AcDbEntity
  8
DEFPOINTS
100
AcDbPoint
370
-1
 62
0
  6
BYLAYER
 10
161.221136870208
 20
408.661590822211
 30
0
  0
POINT
  5
20CC86
100
AcDbEntity
  8
DEFPOINTS
100
AcDbPoint
370
-1
 62
0
  6
BYLAYER
 10
133.275328557385
 20
408.661590822211
 30
0
  0
LINE
  5
20CC88
100
AcDbEntity
  8
0
100
AcDbLine
370
-2
 62
0
 10
161.221136870208
 20
409.286590822211
 30
0
 11
161.221136870208
 21
414.345626405414
 31
0
  0
LINE
  5
20CC89
100
AcDbEntity
  8
0
100
AcDbLine
370
-2
 62
0
 10
133.275328557385
 20
409.286590822211
 30
0
 11
133.275328557385
 21
414.345626405414
 31
0
  0
LINE
  5
20CC8A
100
AcDbEntity
  8
0
100
AcDbLine
370
-2
 62
0
 10
161.221136870208
 20
413.095626405414
 30
0
 11
133.275328557385
 21
413.095626405414
 31
0
  0
LINE
  5
20CC8B
100
AcDbEntity
  8
0
100
AcDbLine
370
-2
 62
0
 10
133.275328557385
 20
413.095626405414
 30
0
 11
133.275328557385
 21
413.095626405414
 31
0
  0
TEXT
  5
20CC87
100
AcDbEntity
  8
0
100
AcDbText
370
-1
 62
0
 10
142.248232713796
 20
414.196816881605
 30
0
 40
2.5
  1
27,95
 50
0
 41
1
 51
0
  7
Standard
 71
0
 72
0
 11
0
 21
0
 31
0
100
AcDbText
 73
0
  0
INSERT
  5
20CC8C
100
AcDbEntity
  8
0
100
AcDbBlockReference
370
-2
 62
0
  6
BYLAYER
  2
_CLOSEDFILLED
 10
133.275328557385
 20
413.095626405414
 30
0
 41
2.5
 42
2.5
 43
2.5
 50
180
  0
INSERT
  5
20CC8D
100
AcDbEntity
  8
0
100
AcDbBlockReference
370
-2
 62
0
  6
BYLAYER
  2
_CLOSEDFILLED
 10
161.221136870208
 20
413.095626405414
 30
0
 41
2.5
 42
2.5
 43
2.5
  0
INSERT
  5
20CC8E
100
AcDbEntity
  8
0
100
AcDbBlockReference
370
-2
 62
0
  6
BYLAYER
  2
sgCLOSEDFILEDLINE
 10
133.275328557385
 20
413.095626405414
 30
0
 41
1.25
 42
1.25
 43
1.25
  0
INSERT
  5
20CC8F
100
AcDbEntity
  8
0
100
AcDbBlockReference
370
-2
 62
0
  6
BYLAYER
  2
sgCLOSEDFILEDLINE
 10
161.221136870208
 20
413.095626405414
 30
0
 41
1.25
 42
1.25
 43
1.25
  0
ENDBLK
  5
214A7C
100
AcDbEntity
  8
0
100
AcDbBlockEnd
  0
BLOCK
  5
20CCB7
100
AcDbEntity
  8
0
100
AcDbBlockBegin
  2
*D27
 70
1
 10
0
 20
0
 30
0
  3
*D27
  1

  0
POINT
  5
20CCBA
100
AcDbEntity
  8
DEFPOINTS
100
AcDbPoint
370
-1
 62
0
  6
BYLAYER
 10
161.245328557385
 20
407.494142905803
 30
0
  0
POINT
  5
20CCBB
100
AcDbEntity
  8
DEFPOINTS
100
AcDbPoint
370
-1
 62
0
  6
BYLAYER
 10
133.275328557385
 20
407.494142905803
 30
0
  0
LINE
  5
20CCBD
100
AcDbEntity
  8
0
100
AcDbLine
370
-2
 62
0
 10
161.245328557385
 20
408.119142905803
 30
0
 11
161.245328557385
 21
418.548415364296
 31
0
  0
LINE
  5
20CCBE
100
AcDbEntity
  8
0
100
AcDbLine
370
-2
 62
0
 10
133.275328557385
 20
408.119142905803
 30
0
 11
133.275328557385
 21
418.548415364296
 31
0
  0
LINE
  5
20CCBF
100
AcDbEntity
  8
0
100
AcDbLine
370
-2
 62
0
 10
161.245328557385
 20
417.298415364296
 30
0
 11
133.275328557385
 21
417.298415364296
 31
0
  0
LINE
  5
20CCC0
100
AcDbEntity
  8
0
100
AcDbLine
370
-2
 62
0
 10
133.275328557385
 20
417.298415364296
 30
0
 11
133.275328557385
 21
417.298415364296
 31
0
  0
TEXT
  5
20CCBC
100
AcDbEntity
  8
0
100
AcDbText
370
-1
 62
0
 10
142.260328557385
 20
418.399605840487
 30
0
 40
2.5
  1
27,97
 50
0
 41
1
 51
0
  7
Standard
 71
0
 72
0
 11
0
 21
0
 31
0
100
AcDbText
 73
0
  0
INSERT
  5
20CCC1
100
AcDbEntity
  8
0
100
AcDbBlockReference
370
-2
 62
0
  6
BYLAYER
  2
_CLOSEDFILLED
 10
133.275328557385
 20
417.298415364296
 30
0
 41
2.5
 42
2.5
 43
2.5
 50
180
  0
INSERT
  5
20CCC2
100
AcDbEntity
  8
0
100
AcDbBlockReference
370
-2
 62
0
  6
BYLAYER
  2
_CLOSEDFILLED
 10
161.245328557385
 20
417.298415364296
 30
0
 41
2.5
 42
2.5
 43
2.5
  0
INSERT
  5
20CCC3
100
AcDbEntity
  8
0
100
AcDbBlockReference
370
-2
 62
0
  6
BYLAYER
  2
sgCLOSEDFILEDLINE
 10
133.275328557385
 20
417.298415364296
 30
0
 41
1.25
 42
1.25
 43
1.25
  0
INSERT
  5
20CCC4
100
AcDbEntity
  8
0
100
AcDbBlockReference
370
-2
 62
0
  6
BYLAYER
  2
sgCLOSEDFILEDLINE
 10
161.245328557385
 20
417.298415364296
 30
0
 41
1.25
 42
1.25
 43
1.25
  0
ENDBLK
  5
214A7D
100
AcDbEntity
  8
0
100
AcDbBlockEnd
  0
BLOCK
  5
20CDC4
100
AcDbEntity
  8
0
100
AcDbBlockBegin
  2
*D28
 70
1
 10
0
 20
0
 30
0
  3
*D28
  1

  0
POINT
  5
20CDC7
100
AcDbEntity
  8
DEFPOINTS
100
AcDbPoint
370
-1
 62
0
  6
BYLAYER
 10
161.91963902997
 20
405.829403344699
 30
0
  0
POINT
  5
20CDC8
100
AcDbEntity
  8
DEFPOINTS
100
AcDbPoint
370
-1
 62
0
  6
BYLAYER
 10
132.54963902997
 20
405.829403344699
 30
0
  0
LINE
  5
20CDCA
100
AcDbEntity
  8
0
100
AcDbLine
370
-2
 62
0
 10
161.91963902997
 20
405.204403344699
 30
0
 11
161.91963902997
 21
394.200545636345
 31
0
  0
LINE
  5
20CDCB
100
AcDbEntity
  8
0
100
AcDbLine
370
-2
 62
0
 10
132.54963902997
 20
405.204403344699
 30
0
 11
132.54963902997
 21
394.200545636345
 31
0
  0
LINE
  5
20CDCC
100
AcDbEntity
  8
0
100
AcDbLine
370
-2
 62
0
 10
161.91963902997
 20
395.450545636345
 30
0
 11
132.54963902997
 21
395.450545636345
 31
0
  0
LINE
  5
20CDCD
100
AcDbEntity
  8
0
100
AcDbLine
370
-2
 62
0
 10
132.54963902997
 20
395.450545636345
 30
0
 11
132.54963902997
 21
395.450545636345
 31
0
  0
TEXT
  5
20CDC9
100
AcDbEntity
  8
0
100
AcDbText
370
-1
 62
0
 10
142.23463902997
 20
396.551736112535
 30
0
 40
2.5
  1
29,37
 50
0
 41
1
 51
0
  7
Standard
 71
0
 72
0
 11
0
 21
0
 31
0
100
AcDbText
 73
0
  0
INSERT
  5
20CDCE
100
AcDbEntity
  8
0
100
AcDbBlockReference
370
-2
 62
0
  6
BYLAYER
  2
_CLOSEDFILLED
 10
132.54963902997
 20
395.450545636345
 30
0
 41
2.5
 42
2.5
 43
2.5
 50
180
  0
INSERT
  5
20CDCF
100
AcDbEntity
  8
0
100
AcDbBlockReference
370
-2
 62
0
  6
BYLAYER
  2
_CLOSEDFILLED
 10
161.91963902997
 20
395.450545636345
 30
0
 41
2.5
 42
2.5
 43
2.5
  0
INSERT
  5
20CDD0
100
AcDbEntity
  8
0
100
AcDbBlockReference
370
-2
 62
0
  6
BYLAYER
  2
sgCLOSEDFILEDLINE
 10
132.54963902997
 20
395.450545636345
 30
0
 41
1.25
 42
1.25
 43
1.25
  0
INSERT
  5
20CDD1
100
AcDbEntity
  8
0
100
AcDbBlockReference
370
-2
 62
0
  6
BYLAYER
  2
sgCLOSEDFILEDLINE
 10
161.91963902997
 20
395.450545636345
 30
0
 41
1.25
 42
1.25
 43
1.25
  0
ENDBLK
  5
214A7E
100
AcDbEntity
  8
0
100
AcDbBlockEnd
  0
BLOCK
  5
20CDF9
100
AcDbEntity
  8
0
100
AcDbBlockBegin
  2
*D29
 70
1
 10
0
 20
0
 30
0
  3
*D29
  1

  0
POINT
  5
20CDFC
100
AcDbEntity
  8
DEFPOINTS
100
AcDbPoint
370
-1
 62
0
  6
BYLAYER
 10
153.420179567241
 20
382.147274868373
 30
0
  0
POINT
  5
20CDFD
100
AcDbEntity
  8
DEFPOINTS
100
AcDbPoint
370
-1
 62
0
  6
BYLAYER
 10
153.420179567241
 20
416.477274868372
 30
0
  0
LINE
  5
20CDFF
100
AcDbEntity
  8
0
100
AcDbLine
370
-2
 62
0
 10
154.045179567241
 20
382.147274868373
 30
0
 11
186.452814760461
 21
382.147274868373
 31
0
  0
LINE
  5
20CE00
100
AcDbEntity
  8
0
100
AcDbLine
370
-2
 62
0
 10
154.045179567241
 20
416.477274868372
 30
0
 11
186.452814760461
 21
416.477274868372
 31
0
  0
LINE
  5
20CE01
100
AcDbEntity
  8
0
100
AcDbLine
370
-2
 62
0
 10
185.202814760461
 20
382.147274868373
 30
0
 11
185.202814760461
 21
416.477274868372
 31
0
  0
LINE
  5
20CE02
100
AcDbEntity
  8
0
100
AcDbLine
370
-2
 62
0
 10
185.202814760461
 20
416.477274868372
 30
0
 11
185.202814760461
 21
416.477274868372
 31
0
  0
TEXT
  5
20CDFE
100
AcDbEntity
  8
0
100
AcDbText
370
-1
 62
0
 10
184.10162428427
 20
393.836084392182
 30
0
 40
2.5
  1
34,33
 50
90
 41
1
 51
0
  7
Standard
 71
0
 72
0
 11
0
 21
0
 31
0
100
AcDbText
 73
0
  0
INSERT
  5
20CE03
100
AcDbEntity
  8
0
100
AcDbBlockReference
370
-2
 62
0
  6
BYLAYER
  2
_CLOSEDFILLED
 10
185.202814760461
 20
416.477274868372
 30
0
 41
2.5
 42
2.5
 43
2.5
 50
90
  0
INSERT
  5
20CE04
100
AcDbEntity
  8
0
100
AcDbBlockReference
370
-2
 62
0
  6
BYLAYER
  2
_CLOSEDFILLED
 10
185.202814760461
 20
382.147274868373
 30
0
 41
2.5
 42
2.5
 43
2.5
 50
270
  0
INSERT
  5
20CE05
100
AcDbEntity
  8
0
100
AcDbBlockReference
370
-2
 62
0
  6
BYLAYER
  2
sgCLOSEDFILEDLINE
 10
185.202814760461
 20
416.477274868372
 30
0
 41
1.25
 42
1.25
 43
1.25
 50
270
  0
INSERT
  5
20CE06
100
AcDbEntity
  8
0
100
AcDbBlockReference
370
-2
 62
0
  6
BYLAYER
  2
sgCLOSEDFILEDLINE
 10
185.202814760461
 20
382.147274868373
 30
0
 41
1.25
 42
1.25
 43
1.25
 50
270
  0
ENDBLK
  5
214A7F
100
AcDbEntity
  8
0
100
AcDbBlockEnd
  0
BLOCK
  5
20CE2F
100
AcDbEntity
  8
0
100
AcDbBlockBegin
  2
*D30
 70
1
 10
0
 20
0
 30
0
  3
*D30
  1

  0
POINT
  5
20CE32
100
AcDbEntity
  8
DEFPOINTS
100
AcDbPoint
370
-1
 62
0
  6
BYLAYER
 10
150.509272406661
 20
382.936654921595
 30
0
  0
POINT
  5
20CE33
100
AcDbEntity
  8
DEFPOINTS
100
AcDbPoint
370
-1
 62
0
  6
BYLAYER
 10
150.509272406661
 20
417.266654921595
 30
0
  0
LINE
  5
20CE35
100
AcDbEntity
  8
0
100
AcDbLine
370
-2
 62
0
 10
151.134272406661
 20
382.936654921595
 30
0
 11
182.43956261922
 21
382.936654921595
 31
0
  0
LINE
  5
20CE36
100
AcDbEntity
  8
0
100
AcDbLine
370
-2
 62
0
 10
151.134272406661
 20
417.266654921595
 30
0
 11
182.43956261922
 21
417.266654921595
 31
0
  0
LINE
  5
20CE37
100
AcDbEntity
  8
0
100
AcDbLine
370
-2
 62
0
 10
181.18956261922
 20
382.936654921595
 30
0
 11
181.18956261922
 21
417.266654921595
 31
0
  0
LINE
  5
20CE38
100
AcDbEntity
  8
0
100
AcDbLine
370
-2
 62
0
 10
181.18956261922
 20
417.266654921595
 30
0
 11
181.18956261922
 21
417.266654921595
 31
0
  0
TEXT
  5
20CE34
100
AcDbEntity
  8
0
100
AcDbText
370
-1
 62
0
 10
180.08837214303
 20
394.625464445405
 30
0
 40
2.5
  1
34,33
 50
90
 41
1
 51
0
  7
Standard
 71
0
 72
0
 11
0
 21
0
 31
0
100
AcDbText
 73
0
  0
INSERT
  5
20CE39
100
AcDbEntity
  8
0
100
AcDbBlockReference
370
-2
 62
0
  6
BYLAYER
  2
_CLOSEDFILLED
 10
181.18956261922
 20
417.266654921595
 30
0
 41
2.5
 42
2.5
 43
2.5
 50
90
  0
INSERT
  5
20CE3A
100
AcDbEntity
  8
0
100
AcDbBlockReference
370
-2
 62
0
  6
BYLAYER
  2
_CLOSEDFILLED
 10
181.18956261922
 20
382.936654921595
 30
0
 41
2.5
 42
2.5
 43
2.5
 50
270
  0
INSERT
  5
20CE3B
100
AcDbEntity
  8
0
100
AcDbBlockReference
370
-2
 62
0
  6
BYLAYER
  2
sgCLOSEDFILEDLINE
 10
181.18956261922
 20
417.266654921595
 30
0
 41
1.25
 42
1.25
 43
1.25
 50
270
  0
INSERT
  5
20CE3C
100
AcDbEntity
  8
0
100
AcDbBlockReference
370
-2
 62
0
  6
BYLAYER
  2
sgCLOSEDFILEDLINE
 10
181.18956261922
 20
382.936654921595
 30
0
 41
1.25
 42
1.25
 43
1.25
 50
270
  0
ENDBLK
  5
214A80
100
AcDbEntity
  8
0
100
AcDbBlockEnd
  0
BLOCK
  5
20D0AE
100
AcDbEntity
  8
0
100
AcDbBlockBegin
  2
*D31
 70
1
 10
0
 20
0
 30
0
  3
*D31
  1

  0
POINT
  5
20D918
100
AcDbEntity
  8
DEFPOINTS
100
AcDbPoint
370
-1
 62
0
  6
BYLAYER
 10
161.222292203984
 20
409.961400239176
 30
0
  0
POINT
  5
20D919
100
AcDbEntity
  8
DEFPOINTS
100
AcDbPoint
370
-1
 62
0
  6
BYLAYER
 10
133.252292203984
 20
409.961400239176
 30
0
  0
LINE
  5
20D91B
100
AcDbEntity
  8
0
100
AcDbLine
370
-2
 62
0
 10
161.222292203984
 20
410.586400239176
 30
0
 11
161.222292203984
 21
428.088723479109
 31
0
  0
LINE
  5
20D91C
100
AcDbEntity
  8
0
100
AcDbLine
370
-2
 62
0
 10
133.252292203984
 20
410.586400239176
 30
0
 11
133.252292203984
 21
428.088723479109
 31
0
  0
LINE
  5
20D91D
100
AcDbEntity
  8
0
100
AcDbLine
370
-2
 62
0
 10
161.222292203984
 20
426.838723479109
 30
0
 11
154.183720775412
 21
426.838723479109
 31
0
  0
LINE
  5
20D91E
100
AcDbEntity
  8
0
100
AcDbLine
370
-2
 62
0
 10
133.252292203984
 20
426.838723479109
 30
0
 11
140.290863632555
 21
426.838723479109
 31
0
  0
TEXT
  5
20D91A
100
AcDbEntity
  8
0
100
AcDbText
370
-1
 62
0
 10
140.915863632555
 20
425.695866336252
 30
0
 40
1.5
  1
27,97(A/A)
 50
0
 41
1
 51
0
  7
Standard
 71
0
 72
0
 11
0
 21
0
 31
0
100
AcDbText
 73
0
  0
INSERT
  5
20D91F
100
AcDbEntity
  8
0
100
AcDbBlockReference
370
-2
 62
0
  6
BYLAYER
  2
_CLOSEDFILLED
 10
133.252292203984
 20
426.838723479109
 30
0
 41
1
 42
1
 43
1
 50
180
  0
INSERT
  5
20D920
100
AcDbEntity
  8
0
100
AcDbBlockReference
370
-2
 62
0
  6
BYLAYER
  2
_CLOSEDFILLED
 10
161.222292203984
 20
426.838723479109
 30
0
 41
1
 42
1
 43
1
  0
INSERT
  5
20D921
100
AcDbEntity
  8
0
100
AcDbBlockReference
370
-2
 62
0
  6
BYLAYER
  2
sgCLOSEDFILEDLINE
 10
133.252292203984
 20
426.838723479109
 30
0
 41
1.25
 42
1.25
 43
1.25
  0
INSERT
  5
20D922
100
AcDbEntity
  8
0
100
AcDbBlockReference
370
-2
 62
0
  6
BYLAYER
  2
sgCLOSEDFILEDLINE
 10
161.222292203984
 20
426.838723479109
 30
0
 41
1.25
 42
1.25
 43
1.25
  0
ENDBLK
  5
214A81
100
AcDbEntity
  8
0
100
AcDbBlockEnd
  0
BLOCK
  5
20D240
100
AcDbEntity
  8
0
100
AcDbBlockBegin
  2
*D32
 70
1
 10
0
 20
0
 30
0
  3
*D32
  1

  0
POINT
  5
20D94A
100
AcDbEntity
  8
DEFPOINTS
100
AcDbPoint
370
-1
 62
0
  6
BYLAYER
 10
145.757414459314
 20
383.847274868372
 30
0
  0
POINT
  5
20D94B
100
AcDbEntity
  8
DEFPOINTS
100
AcDbPoint
370
-1
 62
0
  6
BYLAYER
 10
145.757414459314
 20
416.477274868372
 30
0
  0
LINE
  5
20D94D
100
AcDbEntity
  8
0
100
AcDbLine
370
-2
 62
0
 10
145.132414459314
 20
383.847274868372
 30
0
 11
126.582805351555
 21
383.847274868372
 31
0
  0
LINE
  5
20D94E
100
AcDbEntity
  8
0
100
AcDbLine
370
-2
 62
0
 10
145.132414459314
 20
416.477274868372
 30
0
 11
126.582805351555
 21
416.477274868372
 31
0
  0
LINE
  5
20D94F
100
AcDbEntity
  8
0
100
AcDbLine
370
-2
 62
0
 10
127.832805351555
 20
383.847274868372
 30
0
 11
127.832805351555
 21
392.715846296944
 31
0
  0
LINE
  5
20D950
100
AcDbEntity
  8
0
100
AcDbLine
370
-2
 62
0
 10
127.832805351555
 20
416.477274868372
 30
0
 11
127.832805351555
 21
406.608703439801
 31
0
  0
TEXT
  5
20D94C
100
AcDbEntity
  8
0
100
AcDbText
370
-1
 62
0
 10
128.475662494413
 20
393.340846296944
 30
0
 40
1.5
  1
32,63(A/A)
 50
90
 41
1
 51
0
  7
Standard
 71
0
 72
0
 11
0
 21
0
 31
0
100
AcDbText
 73
0
  0
INSERT
  5
20D951
100
AcDbEntity
  8
0
100
AcDbBlockReference
370
-2
 62
0
  6
BYLAYER
  2
_CLOSEDFILLED
 10
127.832805351555
 20
416.477274868372
 30
0
 41
1
 42
1
 43
1
 50
90
  0
INSERT
  5
20D952
100
AcDbEntity
  8
0
100
AcDbBlockReference
370
-2
 62
0
  6
BYLAYER
  2
_CLOSEDFILLED
 10
127.832805351555
 20
383.847274868372
 30
0
 41
1
 42
1
 43
1
 50
270
  0
INSERT
  5
20D953
100
AcDbEntity
  8
0
100
AcDbBlockReference
370
-2
 62
0
  6
BYLAYER
  2
sgCLOSEDFILEDLINE
 10
127.832805351555
 20
416.477274868372
 30
0
 41
1.25
 42
1.25
 43
1.25
 50
270
  0
INSERT
  5
20D954
100
AcDbEntity
  8
0
100
AcDbBlockReference
370
-2
 62
0
  6
BYLAYER
  2
sgCLOSEDFILEDLINE
 10
127.832805351555
 20
383.847274868372
 30
0
 41
1.25
 42
1.25
 43
1.25
 50
270
  0
ENDBLK
  5
214A82
100
AcDbEntity
  8
0
100
AcDbBlockEnd
  0
BLOCK
  5
20D2D8
100
AcDbEntity
  8
0
100
AcDbBlockBegin
  2
*D33
 70
1
 10
0
 20
0
 30
0
  3
*D33
  1

  0
POINT
  5
20D97C
100
AcDbEntity
  8
DEFPOINTS
100
AcDbPoint
370
-1
 62
0
  6
BYLAYER
 10
161.940724117862
 20
411.797274404463
 30
0
  0
POINT
  5
20D97D
100
AcDbEntity
  8
DEFPOINTS
100
AcDbPoint
370
-1
 62
0
  6
BYLAYER
 10
132.570724117862
 20
411.797274404463
 30
0
  0
LINE
  5
20D97F
100
AcDbEntity
  8
0
100
AcDbLine
370
-2
 62
0
 10
161.940724117862
 20
412.422274404463
 30
0
 11
161.940724117862
 21
431.235694054101
 31
0
  0
LINE
  5
20D980
100
AcDbEntity
  8
0
100
AcDbLine
370
-2
 62
0
 10
132.570724117862
 20
412.422274404463
 30
0
 11
132.570724117862
 21
431.235694054101
 31
0
  0
LINE
  5
20D981
100
AcDbEntity
  8
0
100
AcDbLine
370
-2
 62
0
 10
161.940724117862
 20
429.985694054101
 30
0
 11
154.130724117862
 21
429.985694054101
 31
0
  0
LINE
  5
20D982
100
AcDbEntity
  8
0
100
AcDbLine
370
-2
 62
0
 10
132.570724117862
 20
429.985694054101
 30
0
 11
140.380724117862
 21
429.985694054101
 31
0
  0
TEXT
  5
20D97E
100
AcDbEntity
  8
0
100
AcDbText
370
-1
 62
0
 10
141.005724117862
 20
428.842836911244
 30
0
 40
1.5
  1
29,37(V/A)
 50
0
 41
1
 51
0
  7
Standard
 71
0
 72
0
 11
0
 21
0
 31
0
100
AcDbText
 73
0
  0
INSERT
  5
20D983
100
AcDbEntity
  8
0
100
AcDbBlockReference
370
-2
 62
0
  6
BYLAYER
  2
_CLOSEDFILLED
 10
132.570724117862
 20
429.985694054101
 30
0
 41
1
 42
1
 43
1
 50
180
  0
INSERT
  5
20D984
100
AcDbEntity
  8
0
100
AcDbBlockReference
370
-2
 62
0
  6
BYLAYER
  2
_CLOSEDFILLED
 10
161.940724117862
 20
429.985694054101
 30
0
 41
1
 42
1
 43
1
  0
INSERT
  5
20D985
100
AcDbEntity
  8
0
100
AcDbBlockReference
370
-2
 62
0
  6
BYLAYER
  2
sgCLOSEDFILEDLINE
 10
132.570724117862
 20
429.985694054101
 30
0
 41
1.25
 42
1.25
 43
1.25
  0
INSERT
  5
20D986
100
AcDbEntity
  8
0
100
AcDbBlockReference
370
-2
 62
0
  6
BYLAYER
  2
sgCLOSEDFILEDLINE
 10
161.940724117862
 20
429.985694054101
 30
0
 41
1.25
 42
1.25
 43
1.25
  0
ENDBLK
  5
214A83
100
AcDbEntity
  8
0
100
AcDbBlockEnd
  0
BLOCK
  5
20D367
100
AcDbEntity
  8
0
100
AcDbBlockBegin
  2
*D34
 70
1
 10
0
 20
0
 30
0
  3
*D34
  1

  0
POINT
  5
20D9AE
100
AcDbEntity
  8
DEFPOINTS
100
AcDbPoint
370
-1
 62
0
  6
BYLAYER
 10
144.085563808576
 20
382.939673465396
 30
0
  0
POINT
  5
20D9AF
100
AcDbEntity
  8
DEFPOINTS
100
AcDbPoint
370
-1
 62
0
  6
BYLAYER
 10
144.085563808576
 20
417.269673465396
 30
0
  0
LINE
  5
20D9B1
100
AcDbEntity
  8
0
100
AcDbLine
370
-2
 62
0
 10
143.460563808576
 20
382.939673465396
 30
0
 11
121.055884427148
 21
382.939673465396
 31
0
  0
LINE
  5
20D9B2
100
AcDbEntity
  8
0
100
AcDbLine
370
-2
 62
0
 10
143.460563808576
 20
417.269673465396
 30
0
 11
121.055884427148
 21
417.269673465396
 31
0
  0
LINE
  5
20D9B3
100
AcDbEntity
  8
0
100
AcDbLine
370
-2
 62
0
 10
122.305884427148
 20
382.939673465396
 30
0
 11
122.305884427148
 21
392.729673465396
 31
0
  0
LINE
  5
20D9B4
100
AcDbEntity
  8
0
100
AcDbLine
370
-2
 62
0
 10
122.305884427148
 20
417.269673465396
 30
0
 11
122.305884427148
 21
406.479673465396
 31
0
  0
TEXT
  5
20D9B0
100
AcDbEntity
  8
0
100
AcDbText
370
-1
 62
0
 10
122.948741570005
 20
393.354673465396
 30
0
 40
1.5
  1
34,33(V/A)
 50
90
 41
1
 51
0
  7
Standard
 71
0
 72
0
 11
0
 21
0
 31
0
100
AcDbText
 73
0
  0
INSERT
  5
20D9B5
100
AcDbEntity
  8
0
100
AcDbBlockReference
370
-2
 62
0
  6
BYLAYER
  2
_CLOSEDFILLED
 10
122.305884427148
 20
417.269673465396
 30
0
 41
1
 42
1
 43
1
 50
90
  0
INSERT
  5
20D9B6
100
AcDbEntity
  8
0
100
AcDbBlockReference
370
-2
 62
0
  6
BYLAYER
  2
_CLOSEDFILLED
 10
122.305884427148
 20
382.939673465396
 30
0
 41
1
 42
1
 43
1
 50
270
  0
INSERT
  5
20D9B7
100
AcDbEntity
  8
0
100
AcDbBlockReference
370
-2
 62
0
  6
BYLAYER
  2
sgCLOSEDFILEDLINE
 10
122.305884427148
 20
417.269673465396
 30
0
 41
1.25
 42
1.25
 43
1.25
 50
270
  0
INSERT
  5
20D9B8
100
AcDbEntity
  8
0
100
AcDbBlockReference
370
-2
 62
0
  6
BYLAYER
  2
sgCLOSEDFILEDLINE
 10
122.305884427148
 20
382.939673465396
 30
0
 41
1.25
 42
1.25
 43
1.25
 50
270
  0
ENDBLK
  5
214A84
100
AcDbEntity
  8
0
100
AcDbBlockEnd
  0
BLOCK
  5
20D3F1
100
AcDbEntity
  8
0
100
AcDbBlockBegin
  2
*D35
 70
1
 10
0
 20
0
 30
0
  3
*D35
  1

  0
POINT
  5
20DA44
100
AcDbEntity
  8
DEFPOINTS
100
AcDbPoint
370
-1
 62
0
  6
BYLAYER
 10
162.301831907519
 20
411.398374558595
 30
0
  0
POINT
  5
20DA45
100
AcDbEntity
  8
DEFPOINTS
100
AcDbPoint
370
-1
 62
0
  6
BYLAYER
 10
132.231831907519
 20
411.398374558595
 30
0
  0
LINE
  5
20DA47
100
AcDbEntity
  8
0
100
AcDbLine
370
-2
 62
0
 10
162.301831907519
 20
412.023374558595
 30
0
 11
162.301831907519
 21
434.884767461891
 31
0
  0
LINE
  5
20DA48
100
AcDbEntity
  8
0
100
AcDbLine
370
-2
 62
0
 10
132.231831907519
 20
412.023374558595
 30
0
 11
132.231831907519
 21
434.884767461891
 31
0
  0
LINE
  5
20DA49
100
AcDbEntity
  8
0
100
AcDbLine
370
-2
 62
0
 10
162.301831907519
 20
433.634767461891
 30
0
 11
154.07040333609
 21
433.634767461891
 31
0
  0
LINE
  5
20DA4A
100
AcDbEntity
  8
0
100
AcDbLine
370
-2
 62
0
 10
132.231831907519
 20
433.634767461891
 30
0
 11
140.463260478947
 21
433.634767461891
 31
0
  0
TEXT
  5
20DA46
100
AcDbEntity
  8
0
100
AcDbText
370
-1
 62
0
 10
141.088260478947
 20
432.491910319034
 30
0
 40
1.5
  1
30,07(LCM)
 50
0
 41
1
 51
0
  7
Standard
 71
0
 72
0
 11
0
 21
0
 31
0
100
AcDbText
 73
0
  0
INSERT
  5
20DA4B
100
AcDbEntity
  8
0
100
AcDbBlockReference
370
-2
 62
0
  6
BYLAYER
  2
_CLOSEDFILLED
 10
132.231831907519
 20
433.634767461891
 30
0
 41
1
 42
1
 43
1
 50
180
  0
INSERT
  5
20DA4C
100
AcDbEntity
  8
0
100
AcDbBlockReference
370
-2
 62
0
  6
BYLAYER
  2
_CLOSEDFILLED
 10
162.301831907519
 20
433.634767461891
 30
0
 41
1
 42
1
 43
1
  0
INSERT
  5
20DA4D
100
AcDbEntity
  8
0
100
AcDbBlockReference
370
-2
 62
0
  6
BYLAYER
  2
sgCLOSEDFILEDLINE
 10
132.231831907519
 20
433.634767461891
 30
0
 41
1.25
 42
1.25
 43
1.25
  0
INSERT
  5
20DA4E
100
AcDbEntity
  8
0
100
AcDbBlockReference
370
-2
 62
0
  6
BYLAYER
  2
sgCLOSEDFILEDLINE
 10
162.301831907519
 20
433.634767461891
 30
0
 41
1.25
 42
1.25
 43
1.25
  0
ENDBLK
  5
214A85
100
AcDbEntity
  8
0
100
AcDbBlockEnd
  0
BLOCK
  5
20D4D3
100
AcDbEntity
  8
0
100
AcDbBlockBegin
  2
*D36
 70
1
 10
0
 20
0
 30
0
  3
*D36
  1

  0
POINT
  5
20D4D6
100
AcDbEntity
  8
DEFPOINTS
100
AcDbPoint
370
-1
 62
0
  6
BYLAYER
 10
144.834113438365
 20
380.118131718873
 30
0
  0
POINT
  5
20D4D7
100
AcDbEntity
  8
DEFPOINTS
100
AcDbPoint
370
-1
 62
0
  6
BYLAYER
 10
144.834113438365
 20
417.548131718873
 30
0
  0
LINE
  5
20D4D9
100
AcDbEntity
  8
0
100
AcDbLine
370
-2
 62
0
 10
145.459113438365
 20
380.118131718873
 30
0
 11
216.423764617506
 21
380.118131718873
 31
0
  0
LINE
  5
20D4DA
100
AcDbEntity
  8
0
100
AcDbLine
370
-2
 62
0
 10
145.459113438365
 20
417.548131718873
 30
0
 11
216.423764617506
 21
417.548131718873
 31
0
  0
LINE
  5
20D4DB
100
AcDbEntity
  8
0
100
AcDbLine
370
-2
 62
0
 10
215.173764617506
 20
380.118131718873
 30
0
 11
215.173764617506
 21
417.548131718873
 31
0
  0
LINE
  5
20D4DC
100
AcDbEntity
  8
0
100
AcDbLine
370
-2
 62
0
 10
215.173764617506
 20
417.548131718873
 30
0
 11
215.173764617506
 21
417.548131718873
 31
0
  0
TEXT
  5
20D4D8
100
AcDbEntity
  8
0
100
AcDbText
370
-1
 62
0
 10
214.072574141316
 20
393.356941242683
 30
0
 40
2.5
  1
37,43
 50
90
 41
1
 51
0
  7
Standard
 71
0
 72
0
 11
0
 21
0
 31
0
100
AcDbText
 73
0
  0
INSERT
  5
20D4DD
100
AcDbEntity
  8
0
100
AcDbBlockReference
370
-2
 62
0
  6
BYLAYER
  2
_CLOSEDFILLED
 10
215.173764617506
 20
417.548131718873
 30
0
 41
2.5
 42
2.5
 43
2.5
 50
90
  0
INSERT
  5
20D4DE
100
AcDbEntity
  8
0
100
AcDbBlockReference
370
-2
 62
0
  6
BYLAYER
  2
_CLOSEDFILLED
 10
215.173764617506
 20
380.118131718873
 30
0
 41
2.5
 42
2.5
 43
2.5
 50
270
  0
INSERT
  5
20D4DF
100
AcDbEntity
  8
0
100
AcDbBlockReference
370
-2
 62
0
  6
BYLAYER
  2
sgCLOSEDFILEDLINE
 10
215.173764617506
 20
417.548131718873
 30
0
 41
1.25
 42
1.25
 43
1.25
 50
270
  0
INSERT
  5
20D4E0
100
AcDbEntity
  8
0
100
AcDbBlockReference
370
-2
 62
0
  6
BYLAYER
  2
sgCLOSEDFILEDLINE
 10
215.173764617506
 20
380.118131718873
 30
0
 41
1.25
 42
1.25
 43
1.25
 50
270
  0
ENDBLK
  5
214A86
100
AcDbEntity
  8
0
100
AcDbBlockEnd
  0
BLOCK
  5
20D4EC
100
AcDbEntity
  8
0
100
AcDbBlockBegin
  2
*D37
 70
1
 10
0
 20
0
 30
0
  3
*D37
  1

  0
POINT
  5
20DA76
100
AcDbEntity
  8
DEFPOINTS
100
AcDbPoint
370
-1
 62
0
  6
BYLAYER
 10
141.864909378016
 20
380.127542216573
 30
0
  0
POINT
  5
20DA77
100
AcDbEntity
  8
DEFPOINTS
100
AcDbPoint
370
-1
 62
0
  6
BYLAYER
 10
141.864909378016
 20
417.557542216573
 30
0
  0
LINE
  5
20DA79
100
AcDbEntity
  8
0
100
AcDbLine
370
-2
 62
0
 10
141.239909378016
 20
380.127542216573
 30
0
 11
117.15345371784
 21
380.127542216573
 31
0
  0
LINE
  5
20DA7A
100
AcDbEntity
  8
0
100
AcDbLine
370
-2
 62
0
 10
141.239909378016
 20
417.557542216573
 30
0
 11
117.15345371784
 21
417.557542216573
 31
0
  0
LINE
  5
20DA7B
100
AcDbEntity
  8
0
100
AcDbLine
370
-2
 62
0
 10
118.40345371784
 20
380.127542216573
 30
0
 11
118.40345371784
 21
391.538970788001
 31
0
  0
LINE
  5
20DA7C
100
AcDbEntity
  8
0
100
AcDbLine
370
-2
 62
0
 10
118.40345371784
 20
417.557542216573
 30
0
 11
118.40345371784
 21
405.146113645144
 31
0
  0
TEXT
  5
20DA78
100
AcDbEntity
  8
0
100
AcDbText
370
-1
 62
0
 10
119.046310860697
 20
392.163970788001
 30
0
 40
1.5
  1
37,43(LCM)
 50
90
 41
1
 51
0
  7
Standard
 71
0
 72
0
 11
0
 21
0
 31
0
100
AcDbText
 73
0
  0
INSERT
  5
20DA7D
100
AcDbEntity
  8
0
100
AcDbBlockReference
370
-2
 62
0
  6
BYLAYER
  2
_CLOSEDFILLED
 10
118.40345371784
 20
417.557542216573
 30
0
 41
1
 42
1
 43
1
 50
90
  0
INSERT
  5
20DA7E
100
AcDbEntity
  8
0
100
AcDbBlockReference
370
-2
 62
0
  6
BYLAYER
  2
_CLOSEDFILLED
 10
118.40345371784
 20
380.127542216573
 30
0
 41
1
 42
1
 43
1
 50
270
  0
INSERT
  5
20DA7F
100
AcDbEntity
  8
0
100
AcDbBlockReference
370
-2
 62
0
  6
BYLAYER
  2
sgCLOSEDFILEDLINE
 10
118.40345371784
 20
417.557542216573
 30
0
 41
1.25
 42
1.25
 43
1.25
 50
270
  0
INSERT
  5
20DA80
100
AcDbEntity
  8
0
100
AcDbBlockReference
370
-2
 62
0
  6
BYLAYER
  2
sgCLOSEDFILEDLINE
 10
118.40345371784
 20
380.127542216573
 30
0
 41
1.25
 42
1.25
 43
1.25
 50
270
  0
ENDBLK
  5
214A87
100
AcDbEntity
  8
0
100
AcDbBlockEnd
  0
BLOCK
  5
20D576
100
AcDbEntity
  8
0
100
AcDbBlockBegin
  2
*D38
 70
1
 10
0
 20
0
 30
0
  3
*D38
  1

  0
POINT
  5
20D9E0
100
AcDbEntity
  8
DEFPOINTS
100
AcDbPoint
370
-1
 62
0
  6
BYLAYER
 10
162.923343500539
 20
421.764489617429
 30
0
  0
POINT
  5
20D9E1
100
AcDbEntity
  8
DEFPOINTS
100
AcDbPoint
370
-1
 62
0
  6
BYLAYER
 10
131.543343500539
 20
421.764489617429
 30
0
  0
LINE
  5
20D9E3
100
AcDbEntity
  8
0
100
AcDbLine
370
-2
 62
0
 10
162.923343500539
 20
422.389489617429
 30
0
 11
162.923343500539
 21
437.445761252992
 31
0
  0
LINE
  5
20D9E4
100
AcDbEntity
  8
0
100
AcDbLine
370
-2
 62
0
 10
131.543343500539
 20
422.389489617429
 30
0
 11
131.543343500539
 21
437.445761252992
 31
0
  0
LINE
  5
20D9E5
100
AcDbEntity
  8
0
100
AcDbLine
370
-2
 62
0
 10
162.923343500539
 20
436.195761252992
 30
0
 11
153.608343500539
 21
436.195761252992
 31
0
  0
LINE
  5
20D9E6
100
AcDbEntity
  8
0
100
AcDbLine
370
-2
 62
0
 10
131.543343500539
 20
436.195761252992
 30
0
 11
140.858343500539
 21
436.195761252992
 31
0
  0
TEXT
  5
20D9E2
100
AcDbEntity
  8
0
100
AcDbText
370
-1
 62
0
 10
141.483343500539
 20
435.302904110135
 30
0
 40
1.5
  1
31,38 PCB
 50
0
 41
1
 51
0
  7
Standard
 71
0
 72
0
 11
0
 21
0
 31
0
100
AcDbText
 73
0
  0
INSERT
  5
20D9E7
100
AcDbEntity
  8
0
100
AcDbBlockReference
370
-2
 62
0
  6
BYLAYER
  2
_CLOSEDFILLED
 10
131.543343500539
 20
436.195761252992
 30
0
 41
1
 42
1
 43
1
 50
180
  0
INSERT
  5
20D9E8
100
AcDbEntity
  8
0
100
AcDbBlockReference
370
-2
 62
0
  6
BYLAYER
  2
_CLOSEDFILLED
 10
162.923343500539
 20
436.195761252992
 30
0
 41
1
 42
1
 43
1
  0
INSERT
  5
20D9E9
100
AcDbEntity
  8
0
100
AcDbBlockReference
370
-2
 62
0
  6
BYLAYER
  2
sgCLOSEDFILEDLINE
 10
131.543343500539
 20
436.195761252992
 30
0
 41
1.25
 42
1.25
 43
1.25
  0
INSERT
  5
20D9EA
100
AcDbEntity
  8
0
100
AcDbBlockReference
370
-2
 62
0
  6
BYLAYER
  2
sgCLOSEDFILEDLINE
 10
162.923343500539
 20
436.195761252992
 30
0
 41
1.25
 42
1.25
 43
1.25
  0
ENDBLK
  5
214A88
100
AcDbEntity
  8
0
100
AcDbBlockEnd
  0
BLOCK
  5
20D600
100
AcDbEntity
  8
0
100
AcDbBlockBegin
  2
*D39
 70
1
 10
0
 20
0
 30
0
  3
*D39
  1

  0
POINT
  5
20DA12
100
AcDbEntity
  8
DEFPOINTS
100
AcDbPoint
370
-1
 62
0
  6
BYLAYER
 10
130.824353896405
 20
374.974467950207
 30
0
  0
POINT
  5
20DA13
100
AcDbEntity
  8
DEFPOINTS
100
AcDbPoint
370
-1
 62
0
  6
BYLAYER
 10
130.824353896405
 20
423.534467950207
 30
0
  0
LINE
  5
20DA15
100
AcDbEntity
  8
0
100
AcDbLine
370
-2
 62
0
 10
130.199353896405
 20
374.974467950207
 30
0
 11
110.156385063819
 21
374.974467950207
 31
0
  0
LINE
  5
20DA16
100
AcDbEntity
  8
0
100
AcDbLine
370
-2
 62
0
 10
130.199353896405
 20
423.534467950207
 30
0
 11
110.156385063819
 21
423.534467950207
 31
0
  0
LINE
  5
20DA17
100
AcDbEntity
  8
0
100
AcDbLine
370
-2
 62
0
 10
111.406385063819
 20
374.974467950207
 30
0
 11
111.406385063819
 21
392.450896521635
 31
0
  0
LINE
  5
20DA18
100
AcDbEntity
  8
0
100
AcDbLine
370
-2
 62
0
 10
111.406385063819
 20
423.534467950207
 30
0
 11
111.406385063819
 21
405.48661080735
 31
0
  0
TEXT
  5
20DA14
100
AcDbEntity
  8
0
100
AcDbText
370
-1
 62
0
 10
112.013527920962
 20
393.075896521635
 30
0
 40
1.5
  1
48,56 PCB
 50
90
 41
1
 51
0
  7
Standard
 71
0
 72
0
 11
0
 21
0
 31
0
100
AcDbText
 73
0
  0
INSERT
  5
20DA19
100
AcDbEntity
  8
0
100
AcDbBlockReference
370
-2
 62
0
  6
BYLAYER
  2
_CLOSEDFILLED
 10
111.406385063819
 20
423.534467950207
 30
0
 41
1
 42
1
 43
1
 50
90
  0
INSERT
  5
20DA1A
100
AcDbEntity
  8
0
100
AcDbBlockReference
370
-2
 62
0
  6
BYLAYER
  2
_CLOSEDFILLED
 10
111.406385063819
 20
374.974467950207
 30
0
 41
1
 42
1
 43
1
 50
270
  0
INSERT
  5
20DA1B
100
AcDbEntity
  8
0
100
AcDbBlockReference
370
-2
 62
0
  6
BYLAYER
  2
sgCLOSEDFILEDLINE
 10
111.406385063819
 20
423.534467950207
 30
0
 41
1.25
 42
1.25
 43
1.25
 50
270
  0
INSERT
  5
20DA1C
100
AcDbEntity
  8
0
100
AcDbBlockReference
370
-2
 62
0
  6
BYLAYER
  2
sgCLOSEDFILEDLINE
 10
111.406385063819
 20
374.974467950207
 30
0
 41
1.25
 42
1.25
 43
1.25
 50
270
  0
ENDBLK
  5
214A89
100
AcDbEntity
  8
0
100
AcDbBlockEnd
  0
BLOCK
  5
20D6C7
100
AcDbEntity
  8
0
100
AcDbBlockBegin
  2
*D40
 70
1
 10
0
 20
0
 30
0
  3
*D40
  1

  0
POINT
  5
20D745
100
AcDbEntity
  8
DEFPOINTS
100
AcDbPoint
370
-1
 62
0
  6
BYLAYER
 10
143.429908971835
 20
422.01545261297
 30
0
  0
POINT
  5
20D746
100
AcDbEntity
  8
DEFPOINTS
100
AcDbPoint
370
-1
 62
0
  6
BYLAYER
 10
140.889908971835
 20
422.01545261297
 30
0
  0
LINE
  5
20D748
100
AcDbEntity
  8
0
100
AcDbLine
370
-1
 62
0
 10
143.429908971835
 20
423.989024110496
 30
0
 11
145.429908971835
 21
423.989024110496
 31
0
  0
LINE
  5
20D749
100
AcDbEntity
  8
0
100
AcDbLine
370
-2
 62
0
 10
143.429908971835
 20
422.64045261297
 30
0
 11
143.429908971835
 21
425.239024110496
 31
0
  0
LINE
  5
20D74A
100
AcDbEntity
  8
0
100
AcDbLine
370
-2
 62
0
 10
140.889908971835
 20
422.64045261297
 30
0
 11
140.889908971835
 21
425.239024110496
 31
0
  0
LINE
  5
20D74B
100
AcDbEntity
  8
0
100
AcDbLine
370
-2
 62
0
 10
140.889908971835
 20
423.989024110496
 30
0
 11
140.889908971835
 21
423.989024110496
 31
0
  0
LINE
  5
20D74C
100
AcDbEntity
  8
0
100
AcDbLine
370
-2
 62
0
 10
143.429908971835
 20
423.989024110496
 30
0
 11
143.429908971835
 21
423.989024110496
 31
0
  0
TEXT
  5
20D747
100
AcDbEntity
  8
0
100
AcDbText
370
-1
 62
0
 10
146.054908971835
 20
423.096166967639
 30
0
 40
1.5
  1
2,54
 50
0
 41
1
 51
0
  7
Standard
 71
0
 72
0
 11
0
 21
0
 31
0
100
AcDbText
 73
0
  0
INSERT
  5
20D74D
100
AcDbEntity
  8
0
100
AcDbBlockReference
370
-2
 62
0
  6
BYLAYER
  2
_CLOSEDFILLED
 10
140.889908971835
 20
423.989024110496
 30
0
 41
1
 42
1
 43
1
  0
INSERT
  5
20D74E
100
AcDbEntity
  8
0
100
AcDbBlockReference
370
-2
 62
0
  6
BYLAYER
  2
_CLOSEDFILLED
 10
143.429908971835
 20
423.989024110496
 30
0
 41
1
 42
1
 43
1
 50
180
  0
INSERT
  5
20D74F
100
AcDbEntity
  8
0
100
AcDbBlockReference
370
-2
 62
0
  6
BYLAYER
  2
sgCLOSEDFILEDLINE
 10
140.889908971835
 20
423.989024110496
 30
0
 41
1.25
 42
1.25
 43
1.25
 50
180
  0
INSERT
  5
20D750
100
AcDbEntity
  8
0
100
AcDbBlockReference
370
-2
 62
0
  6
BYLAYER
  2
sgCLOSEDFILEDLINE
 10
143.429908971835
 20
423.989024110496
 30
0
 41
1.25
 42
1.25
 43
1.25
 50
180
  0
ENDBLK
  5
214A8A
100
AcDbEntity
  8
0
100
AcDbBlockEnd
  0
BLOCK
  5
20D75C
100
AcDbEntity
  8
0
100
AcDbBlockBegin
  2
*D41
 70
1
 10
0
 20
0
 30
0
  3
*D41
  1

  0
POINT
  5
20D7D0
100
AcDbEntity
  8
DEFPOINTS
100
AcDbPoint
370
-1
 62
0
  6
BYLAYER
 10
160.249908971835
 20
377.69545261297
 30
0
  0
POINT
  5
20D7D1
100
AcDbEntity
  8
DEFPOINTS
100
AcDbPoint
370
-1
 62
0
  6
BYLAYER
 10
134.229908971835
 20
377.69545261297
 30
0
  0
LINE
  5
20D7D3
100
AcDbEntity
  8
0
100
AcDbLine
370
-2
 62
0
 10
160.249908971835
 20
377.07045261297
 30
0
 11
160.249908971835
 21
369.795919490005
 31
0
  0
LINE
  5
20D7D4
100
AcDbEntity
  8
0
100
AcDbLine
370
-2
 62
0
 10
134.229908971835
 20
377.07045261297
 30
0
 11
134.229908971835
 21
369.795919490005
 31
0
  0
LINE
  5
20D7D5
100
AcDbEntity
  8
0
100
AcDbLine
370
-2
 62
0
 10
160.249908971835
 20
371.045919490005
 30
0
 11
150.864908971835
 21
371.045919490005
 31
0
  0
LINE
  5
20D7D6
100
AcDbEntity
  8
0
100
AcDbLine
370
-2
 62
0
 10
134.229908971835
 20
371.045919490005
 30
0
 11
143.614908971835
 21
371.045919490005
 31
0
  0
TEXT
  5
20D7D2
100
AcDbEntity
  8
0
100
AcDbText
370
-1
 62
0
 10
144.239908971835
 20
370.153062347148
 30
0
 40
1.5
  1
26,02
 50
0
 41
1
 51
0
  7
Standard
 71
0
 72
0
 11
0
 21
0
 31
0
100
AcDbText
 73
0
  0
INSERT
  5
20D7D7
100
AcDbEntity
  8
0
100
AcDbBlockReference
370
-2
 62
0
  6
BYLAYER
  2
_CLOSEDFILLED
 10
134.229908971835
 20
371.045919490005
 30
0
 41
1
 42
1
 43
1
 50
180
  0
INSERT
  5
20D7D8
100
AcDbEntity
  8
0
100
AcDbBlockReference
370
-2
 62
0
  6
BYLAYER
  2
_CLOSEDFILLED
 10
160.249908971835
 20
371.045919490005
 30
0
 41
1
 42
1
 43
1
  0
INSERT
  5
20D7D9
100
AcDbEntity
  8
0
100
AcDbBlockReference
370
-2
 62
0
  6
BYLAYER
  2
sgCLOSEDFILEDLINE
 10
134.229908971835
 20
371.045919490005
 30
0
 41
1.25
 42
1.25
 43
1.25
  0
INSERT
  5
20D7DA
100
AcDbEntity
  8
0
100
AcDbBlockReference
370
-2
 62
0
  6
BYLAYER
  2
sgCLOSEDFILEDLINE
 10
160.249908971835
 20
371.045919490005
 30
0
 41
1.25
 42
1.25
 43
1.25
  0
ENDBLK
  5
214A8B
100
AcDbEntity
  8
0
100
AcDbBlockEnd
  0
BLOCK
  5
20D7E6
100
AcDbEntity
  8
0
100
AcDbBlockBegin
  2
*D42
 70
1
 10
0
 20
0
 30
0
  3
*D42
  1

  0
POINT
  5
20D85A
100
AcDbEntity
  8
DEFPOINTS
100
AcDbPoint
370
-1
 62
0
  6
BYLAYER
 10
160.249908971835
 20
377.69545261297
 30
0
  0
POINT
  5
20D85B
100
AcDbEntity
  8
DEFPOINTS
100
AcDbPoint
370
-1
 62
0
  6
BYLAYER
 10
160.249908971835
 20
420.69545261297
 30
0
  0
LINE
  5
20D85D
100
AcDbEntity
  8
0
100
AcDbLine
370
-2
 62
0
 10
160.874908971835
 20
377.69545261297
 30
0
 11
173.371934823405
 21
377.69545261297
 31
0
  0
LINE
  5
20D85E
100
AcDbEntity
  8
0
100
AcDbLine
370
-2
 62
0
 10
160.874908971835
 20
420.69545261297
 30
0
 11
173.371934823405
 21
420.69545261297
 31
0
  0
LINE
  5
20D85F
100
AcDbEntity
  8
0
100
AcDbLine
370
-2
 62
0
 10
172.121934823405
 20
377.69545261297
 30
0
 11
172.121934823405
 21
395.284738327255
 31
0
  0
LINE
  5
20D860
100
AcDbEntity
  8
0
100
AcDbLine
370
-2
 62
0
 10
172.121934823405
 20
420.69545261297
 30
0
 11
172.121934823405
 21
402.534738327255
 31
0
  0
TEXT
  5
20D85C
100
AcDbEntity
  8
0
100
AcDbText
370
-1
 62
0
 10
172.729077680548
 20
395.909738327255
 30
0
 40
1.5
  1
43,00
 50
90
 41
1
 51
0
  7
Standard
 71
0
 72
0
 11
0
 21
0
 31
0
100
AcDbText
 73
0
  0
INSERT
  5
20D861
100
AcDbEntity
  8
0
100
AcDbBlockReference
370
-2
 62
0
  6
BYLAYER
  2
_CLOSEDFILLED
 10
172.121934823405
 20
420.69545261297
 30
0
 41
1
 42
1
 43
1
 50
90
  0
INSERT
  5
20D862
100
AcDbEntity
  8
0
100
AcDbBlockReference
370
-2
 62
0
  6
BYLAYER
  2
_CLOSEDFILLED
 10
172.121934823405
 20
377.69545261297
 30
0
 41
1
 42
1
 43
1
 50
270
  0
INSERT
  5
20D863
100
AcDbEntity
  8
0
100
AcDbBlockReference
370
-2
 62
0
  6
BYLAYER
  2
sgCLOSEDFILEDLINE
 10
172.121934823405
 20
420.69545261297
 30
0
 41
1.25
 42
1.25
 43
1.25
 50
270
  0
INSERT
  5
20D864
100
AcDbEntity
  8
0
100
AcDbBlockReference
370
-2
 62
0
  6
BYLAYER
  2
sgCLOSEDFILEDLINE
 10
172.121934823405
 20
377.69545261297
 30
0
 41
1.25
 42
1.25
 43
1.25
 50
270
  0
ENDBLK
  5
214A8C
100
AcDbEntity
  8
0
100
AcDbBlockEnd
  0
BLOCK
  5
20DBBD
100
AcDbEntity
  8
0
100
AcDbBlockBegin
  2
*D43
 70
1
 10
0
 20
0
 30
0
  3
*D43
  1

  0
POINT
  5
20E91E
100
AcDbEntity
  8
DEFPOINTS
100
AcDbPoint
370
-1
 62
0
  6
BYLAYER
 10
198.419910555013
 20
421.87007567956
 30
0
  0
POINT
  5
20E91F
100
AcDbEntity
  8
DEFPOINTS
100
AcDbPoint
370
-1
 62
0
  6
BYLAYER
 10
199.799910555013
 20
421.87007567956
 30
0
  0
LINE
  5
20E921
100
AcDbEntity
  8
0
100
AcDbLine
370
-1
 62
0
 10
198.419910555013
 20
426.120031393811
 30
0
 11
196.419910555013
 21
426.120031393811
 31
0
  0
LINE
  5
20E922
100
AcDbEntity
  8
0
100
AcDbLine
370
-2
 62
0
 10
198.419910555013
 20
422.49507567956
 30
0
 11
198.419910555013
 21
427.370031393811
 31
0
  0
LINE
  5
20E923
100
AcDbEntity
  8
0
100
AcDbLine
370
-2
 62
0
 10
199.799910555013
 20
422.49507567956
 30
0
 11
199.799910555013
 21
427.370031393811
 31
0
  0
LINE
  5
20E924
100
AcDbEntity
  8
0
100
AcDbLine
370
-2
 62
0
 10
199.799910555013
 20
426.120031393811
 30
0
 11
199.799910555013
 21
426.120031393811
 31
0
  0
LINE
  5
20E925
100
AcDbEntity
  8
0
100
AcDbLine
370
-2
 62
0
 10
198.419910555013
 20
426.120031393811
 30
0
 11
198.419910555013
 21
426.120031393811
 31
0
  0
TEXT
  5
20E920
100
AcDbEntity
  8
0
100
AcDbText
370
-1
 62
0
 10
195.794910555013
 20
425.227174250954
 30
0
 40
1.5
  1
1,38 PCB
 50
0
 41
1
 51
0
  7
Standard
 71
0
 72
0
 11
0
 21
0
 31
0
100
AcDbText
 73
0
  0
INSERT
  5
20E926
100
AcDbEntity
  8
0
100
AcDbBlockReference
370
-2
 62
0
  6
BYLAYER
  2
_CLOSEDFILLED
 10
199.799910555013
 20
426.120031393811
 30
0
 41
1
 42
1
 43
1
  0
INSERT
  5
20E927
100
AcDbEntity
  8
0
100
AcDbBlockReference
370
-2
 62
0
  6
BYLAYER
  2
_CLOSEDFILLED
 10
198.419910555013
 20
426.120031393811
 30
0
 41
1
 42
1
 43
1
 50
180
  0
INSERT
  5
20E928
100
AcDbEntity
  8
0
100
AcDbBlockReference
370
-2
 62
0
  6
BYLAYER
  2
sgCLOSEDFILEDLINE
 10
199.799910555013
 20
426.120031393811
 30
0
 41
1.25
 42
1.25
 43
1.25
 50
180
  0
INSERT
  5
20E929
100
AcDbEntity
  8
0
100
AcDbBlockReference
370
-2
 62
0
  6
BYLAYER
  2
sgCLOSEDFILEDLINE
 10
198.419910555013
 20
426.120031393811
 30
0
 41
1.25
 42
1.25
 43
1.25
 50
180
  0
ENDBLK
  5
214A8D
100
AcDbEntity
  8
0
100
AcDbBlockEnd
  0
BLOCK
  5
20DC53
100
AcDbEntity
  8
0
100
AcDbBlockBegin
  2
*D44
 70
1
 10
0
 20
0
 30
0
  3
*D44
  1

  0
POINT
  5
20E936
100
AcDbEntity
  8
DEFPOINTS
100
AcDbPoint
370
-1
 62
0
  6
BYLAYER
 10
199.807194146959
 20
407.547790012442
 30
0
  0
POINT
  5
20E937
100
AcDbEntity
  8
DEFPOINTS
100
AcDbPoint
370
-1
 62
0
  6
BYLAYER
 10
196.807194146959
 20
407.547790012442
 30
0
  0
LINE
  5
20E939
100
AcDbEntity
  8
0
100
AcDbLine
370
-1
 62
0
 10
199.807194146959
 20
412.49698828627
 30
0
 11
201.807194146959
 21
412.49698828627
 31
0
  0
LINE
  5
20E93A
100
AcDbEntity
  8
0
100
AcDbLine
370
-2
 62
0
 10
199.807194146959
 20
408.172790012442
 30
0
 11
199.807194146959
 21
413.74698828627
 31
0
  0
LINE
  5
20E93B
100
AcDbEntity
  8
0
100
AcDbLine
370
-2
 62
0
 10
196.807194146959
 20
408.172790012442
 30
0
 11
196.807194146959
 21
413.74698828627
 31
0
  0
LINE
  5
20E93C
100
AcDbEntity
  8
0
100
AcDbLine
370
-2
 62
0
 10
196.807194146959
 20
412.49698828627
 30
0
 11
196.807194146959
 21
412.49698828627
 31
0
  0
LINE
  5
20E93D
100
AcDbEntity
  8
0
100
AcDbLine
370
-2
 62
0
 10
199.807194146959
 20
412.49698828627
 30
0
 11
199.807194146959
 21
412.49698828627
 31
0
  0
TEXT
  5
20E938
100
AcDbEntity
  8
0
100
AcDbText
370
-1
 62
0
 10
202.432194146959
 20
411.604131143412
 30
0
 40
1.5
  1
3,00
 50
0
 41
1
 51
0
  7
Standard
 71
0
 72
0
 11
0
 21
0
 31
0
100
AcDbText
 73
0
  0
INSERT
  5
20E93E
100
AcDbEntity
  8
0
100
AcDbBlockReference
370
-2
 62
0
  6
BYLAYER
  2
_CLOSEDFILLED
 10
196.807194146959
 20
412.49698828627
 30
0
 41
1
 42
1
 43
1
  0
INSERT
  5
20E93F
100
AcDbEntity
  8
0
100
AcDbBlockReference
370
-2
 62
0
  6
BYLAYER
  2
_CLOSEDFILLED
 10
199.807194146959
 20
412.49698828627
 30
0
 41
1
 42
1
 43
1
 50
180
  0
INSERT
  5
20E940
100
AcDbEntity
  8
0
100
AcDbBlockReference
370
-2
 62
0
  6
BYLAYER
  2
sgCLOSEDFILEDLINE
 10
196.807194146959
 20
412.49698828627
 30
0
 41
1.25
 42
1.25
 43
1.25
 50
180
  0
INSERT
  5
20E941
100
AcDbEntity
  8
0
100
AcDbBlockReference
370
-2
 62
0
  6
BYLAYER
  2
sgCLOSEDFILEDLINE
 10
199.807194146959
 20
412.49698828627
 30
0
 41
1.25
 42
1.25
 43
1.25
 50
180
  0
ENDBLK
  5
214A8E
100
AcDbEntity
  8
0
100
AcDbBlockEnd
  0
BLOCK
  5
20DCE9
100
AcDbEntity
  8
0
100
AcDbBlockBegin
  2
*D45
 70
1
 10
0
 20
0
 30
0
  3
*D45
  1

  0
POINT
  5
20E94E
100
AcDbEntity
  8
DEFPOINTS
100
AcDbPoint
370
-1
 62
0
  6
BYLAYER
 10
196.835147919548
 20
396.057896475605
 30
0
  0
POINT
  5
20E94F
100
AcDbEntity
  8
DEFPOINTS
100
AcDbPoint
370
-1
 62
0
  6
BYLAYER
 10
198.455147919548
 20
396.057896475605
 30
0
  0
LINE
  5
20E951
100
AcDbEntity
  8
0
100
AcDbLine
370
-1
 62
0
 10
196.835147919548
 20
402.058820585311
 30
0
 11
194.835147919548
 21
402.058820585311
 31
0
  0
LINE
  5
20E952
100
AcDbEntity
  8
0
100
AcDbLine
370
-2
 62
0
 10
196.835147919548
 20
396.682896475605
 30
0
 11
196.835147919548
 21
403.308820585311
 31
0
  0
LINE
  5
20E953
100
AcDbEntity
  8
0
100
AcDbLine
370
-2
 62
0
 10
198.455147919548
 20
396.682896475605
 30
0
 11
198.455147919548
 21
403.308820585311
 31
0
  0
LINE
  5
20E954
100
AcDbEntity
  8
0
100
AcDbLine
370
-2
 62
0
 10
198.455147919548
 20
402.058820585311
 30
0
 11
198.455147919548
 21
402.058820585311
 31
0
  0
LINE
  5
20E955
100
AcDbEntity
  8
0
100
AcDbLine
370
-2
 62
0
 10
196.835147919548
 20
402.058820585311
 30
0
 11
196.835147919548
 21
402.058820585311
 31
0
  0
TEXT
  5
20E950
100
AcDbEntity
  8
0
100
AcDbText
370
-1
 62
0
 10
194.210147919548
 20
401.165963442454
 30
0
 40
1.5
  1
1,62
 50
0
 41
1
 51
0
  7
Standard
 71
0
 72
0
 11
0
 21
0
 31
0
100
AcDbText
 73
0
  0
INSERT
  5
20E956
100
AcDbEntity
  8
0
100
AcDbBlockReference
370
-2
 62
0
  6
BYLAYER
  2
_CLOSEDFILLED
 10
198.455147919548
 20
402.058820585311
 30
0
 41
1
 42
1
 43
1
  0
INSERT
  5
20E957
100
AcDbEntity
  8
0
100
AcDbBlockReference
370
-2
 62
0
  6
BYLAYER
  2
_CLOSEDFILLED
 10
196.835147919548
 20
402.058820585311
 30
0
 41
1
 42
1
 43
1
 50
180
  0
INSERT
  5
20E958
100
AcDbEntity
  8
0
100
AcDbBlockReference
370
-2
 62
0
  6
BYLAYER
  2
sgCLOSEDFILEDLINE
 10
198.455147919548
 20
402.058820585311
 30
0
 41
1.25
 42
1.25
 43
1.25
 50
180
  0
INSERT
  5
20E959
100
AcDbEntity
  8
0
100
AcDbBlockReference
370
-2
 62
0
  6
BYLAYER
  2
sgCLOSEDFILEDLINE
 10
196.835147919548
 20
402.058820585311
 30
0
 41
1.25
 42
1.25
 43
1.25
 50
180
  0
ENDBLK
  5
214A8F
100
AcDbEntity
  8
0
100
AcDbBlockEnd
  0
ENDSEC
  0
SECTION
  2
ENTITIES
  0
MTEXT
  5
1F4
100
AcDbEntity
  8
0
100
AcDbMText
370
-1
 62
7
 10
19.092342
 20
8.18873
 30
0
 40
2.339544
  1
{\fTimes New Roman|b0|i0|c0; }
 50
0
 41
0
  7
Standard
 71
1
 73
1
 44
1
  0
LWPOLYLINE
  5
9F3
100
AcDbEntity
  8
0
100
AcDbPolyline
370
-1
 62
4
420
65535
  6
BYLAYER
 38
0
 90
2
 70
0
 10
154.536864277087
 20
383.823882260473
 10
154.074787970888
 20
383.823882260472
  0
LWPOLYLINE
  5
9F4
100
AcDbEntity
  8
0
100
AcDbPolyline
370
-1
 62
4
420
65535
  6
BYLAYER
 38
0
 90
2
 70
0
 10
153.863003300414
 20
383.823882260472
 10
153.420179567241
 20
383.823882260473
  0
LWPOLYLINE
  5
9F5
100
AcDbEntity
  8
0
100
AcDbPolyline
370
-1
 62
4
420
65535
  6
BYLAYER
 38
0
 90
2
 70
0
 10
153.189141414141
 20
383.823882260472
 10
152.746318590568
 20
383.823882260473
  0
LWPOLYLINE
  5
9F6
100
AcDbEntity
  8
0
100
AcDbPolyline
370
-1
 62
4
420
65535
  6
BYLAYER
 38
0
 90
2
 70
0
 10
152.515280437468
 20
383.823882260473
 10
152.072457613894
 20
383.823882260472
  0
LWPOLYLINE
  5
9F7
100
AcDbEntity
  8
0
100
AcDbPolyline
370
-1
 62
4
420
65535
  6
BYLAYER
 38
0
 90
2
 70
0
 10
151.841419460795
 20
383.823882260472
 10
151.379343154597
 20
383.823882260473
  0
LWPOLYLINE
  5
9F8
100
AcDbEntity
  8
0
100
AcDbPolyline
370
-1
 62
4
420
65535
  6
BYLAYER
 38
0
 90
2
 70
0
 10
151.167557574523
 20
383.823882260472
 10
150.705481268324
 20
383.823882260473
  0
LWPOLYLINE
  5
9F9
100
AcDbEntity
  8
0
100
AcDbPolyline
370
-1
 62
4
420
65535
  6
BYLAYER
 38
0
 90
2
 70
0
 10
150.493696597849
 20
383.823882260473
 10
150.050873774276
 20
383.823882260473
  0
LWPOLYLINE
  5
9FA
100
AcDbEntity
  8
0
100
AcDbPolyline
370
-1
 62
4
420
65535
  6
BYLAYER
 38
0
 90
2
 70
0
 10
149.819835621176
 20
383.823882260473
 10
149.377011888003
 20
383.823882260473
  0
LWPOLYLINE
  5
9FB
100
AcDbEntity
  8
0
100
AcDbPolyline
370
-1
 62
4
420
65535
  6
BYLAYER
 38
0
 90
2
 70
0
 10
149.126721161878
 20
383.823882260472
 10
148.70315091133
 20
383.823882260473
  0
LWPOLYLINE
  5
9FC
100
AcDbEntity
  8
0
100
AcDbPolyline
370
-1
 62
4
420
65535
  6
BYLAYER
 38
0
 90
2
 70
0
 10
148.472112758231
 20
383.823882260473
 10
148.010036452032
 20
383.823882260472
  0
LWPOLYLINE
  5
9FD
100
AcDbEntity
  8
0
100
AcDbPolyline
370
-1
 62
4
420
65535
  6
BYLAYER
 38
0
 90
2
 70
0
 10
147.798251781557
 20
383.823882260473
 10
147.336175475359
 20
383.823882260473
  0
LWPOLYLINE
  5
9FE
100
AcDbEntity
  8
0
100
AcDbPolyline
370
-1
 62
4
420
65535
  6
BYLAYER
 38
0
 90
2
 70
0
 10
147.124389895285
 20
383.823882260472
 10
146.662313589086
 20
383.823882260472
  0
LWPOLYLINE
  5
9FF
100
AcDbEntity
  8
0
100
AcDbPolyline
370
-1
 62
4
420
65535
  6
BYLAYER
 38
0
 90
2
 70
0
 10
146.450528918612
 20
383.823882260473
 10
146.007706095038
 20
383.823882260473
  0
LWPOLYLINE
  5
A00
100
AcDbEntity
  8
0
100
AcDbPolyline
370
-1
 62
4
420
65535
  6
BYLAYER
 38
0
 90
2
 70
0
 10
145.757414459314
 20
383.823882260472
 10
145.333844208765
 20
383.823882260472
  0
LWPOLYLINE
  5
A01
100
AcDbEntity
  8
0
100
AcDbPolyline
370
-1
 62
4
420
65535
  6
BYLAYER
 38
0
 90
2
 70
0
 10
145.08355348264
 20
383.823882260472
 10
144.640729749467
 20
383.823882260472
  0
LWPOLYLINE
  5
A02
100
AcDbEntity
  8
0
100
AcDbPolyline
370
-1
 62
4
420
65535
  6
BYLAYER
 38
0
 90
2
 70
0
 10
144.428945078993
 20
383.823882260473
 10
143.966868772794
 20
383.823882260472
  0
LWPOLYLINE
  5
A03
100
AcDbEntity
  8
0
100
AcDbPolyline
370
-1
 62
4
420
65535
  6
BYLAYER
 38
0
 90
2
 70
0
 10
143.75508410232
 20
383.823882260472
 10
143.293007796121
 20
383.823882260472
  0
LWPOLYLINE
  5
A04
100
AcDbEntity
  8
0
100
AcDbPolyline
370
-1
 62
4
420
65535
  6
BYLAYER
 38
0
 90
2
 70
0
 10
143.081222216047
 20
383.823882260472
 10
142.619145909849
 20
383.823882260472
  0
LWPOLYLINE
  5
A05
100
AcDbEntity
  8
0
100
AcDbPolyline
370
-1
 62
4
420
65535
  6
BYLAYER
 38
0
 90
2
 70
0
 10
142.388107756749
 20
383.823882260473
 10
141.9645384158
 20
383.823882260473
  0
LWPOLYLINE
  5
A06
100
AcDbEntity
  8
0
100
AcDbPolyline
370
-1
 62
4
420
65535
  6
BYLAYER
 38
0
 90
2
 70
0
 10
141.714246780076
 20
383.823882260473
 10
141.271423956502
 20
383.823882260473
  0
LWPOLYLINE
  5
A07
100
AcDbEntity
  8
0
100
AcDbPolyline
370
-1
 62
4
420
65535
  6
BYLAYER
 38
0
 90
2
 70
0
 10
141.059638376428
 20
383.823882260472
 10
140.59756207023
 20
383.823882260473
  0
LWPOLYLINE
  5
A08
100
AcDbEntity
  8
0
100
AcDbPolyline
370
-1
 62
4
420
65535
  6
BYLAYER
 38
0
 90
2
 70
0
 10
140.385777399755
 20
383.823882260473
 10
139.923701093557
 20
383.823882260472
  0
LWPOLYLINE
  5
A3F
100
AcDbEntity
  8
0
100
AcDbPolyline
370
-1
 62
4
420
65535
  6
BYLAYER
 38
0
 90
2
 70
0
 10
139.153573613359
 20
416.477274868373
 10
139.711916423082
 20
416.477274868373
  0
LWPOLYLINE
  5
A40
100
AcDbEntity
  8
0
100
AcDbPolyline
370
-1
 62
4
420
65535
  6
BYLAYER
 38
0
 90
2
 70
0
 10
139.923701093557
 20
416.477274868373
 10
140.385777399755
 20
416.477274868372
  0
LWPOLYLINE
  5
A41
100
AcDbEntity
  8
0
100
AcDbPolyline
370
-1
 62
4
420
65535
  6
BYLAYER
 38
0
 90
2
 70
0
 10
140.59756207023
 20
416.477274868372
 10
141.059638376429
 20
416.477274868373
  0
LWPOLYLINE
  5
A42
100
AcDbEntity
  8
0
100
AcDbPolyline
370
-1
 62
4
420
65535
  6
BYLAYER
 38
0
 90
2
 70
0
 10
141.271423956502
 20
416.477274868373
 10
141.714246780076
 20
416.477274868373
  0
LWPOLYLINE
  5
A43
100
AcDbEntity
  8
0
100
AcDbPolyline
370
-1
 62
4
420
65535
  6
BYLAYER
 38
0
 90
2
 70
0
 10
141.9645384158
 20
416.477274868373
 10
142.38810775675
 20
416.477274868373
  0
LWPOLYLINE
  5
A44
100
AcDbEntity
  8
0
100
AcDbPolyline
370
-1
 62
4
420
65535
  6
BYLAYER
 38
0
 90
2
 70
0
 10
142.619145909849
 20
416.477274868373
 10
143.081222216047
 20
416.477274868372
  0
LWPOLYLINE
  5
A45
100
AcDbEntity
  8
0
100
AcDbPolyline
370
-1
 62
4
420
65535
  6
BYLAYER
 38
0
 90
2
 70
0
 10
143.293007796121
 20
416.477274868373
 10
143.75508410232
 20
416.477274868373
  0
LWPOLYLINE
  5
A46
100
AcDbEntity
  8
0
100
AcDbPolyline
370
-1
 62
4
420
65535
  6
BYLAYER
 38
0
 90
2
 70
0
 10
143.966868772794
 20
416.477274868373
 10
144.428945078993
 20
416.477274868373
  0
LWPOLYLINE
  5
A47
100
AcDbEntity
  8
0
100
AcDbPolyline
370
-1
 62
4
420
65535
  6
BYLAYER
 38
0
 90
2
 70
0
 10
144.640729749468
 20
416.477274868373
 10
145.083553482641
 20
416.477274868373
  0
LWPOLYLINE
  5
A48
100
AcDbEntity
  8
0
100
AcDbPolyline
370
-1
 62
4
420
65535
  6
BYLAYER
 38
0
 90
2
 70
0
 10
145.333844208765
 20
416.477274868372
 10
145.757414459314
 20
416.477274868372
  0
LWPOLYLINE
  5
A49
100
AcDbEntity
  8
0
100
AcDbPolyline
370
-1
 62
4
420
65535
  6
BYLAYER
 38
0
 90
2
 70
0
 10
146.007706095038
 20
416.477274868372
 10
146.450528918612
 20
416.477274868372
  0
LWPOLYLINE
  5
A4A
100
AcDbEntity
  8
0
100
AcDbPolyline
370
-1
 62
4
420
65535
  6
BYLAYER
 38
0
 90
2
 70
0
 10
146.662313589087
 20
416.477274868373
 10
147.124389895285
 20
416.477274868373
  0
LWPOLYLINE
  5
A4B
100
AcDbEntity
  8
0
100
AcDbPolyline
370
-1
 62
4
420
65535
  6
BYLAYER
 38
0
 90
2
 70
0
 10
147.336175475359
 20
416.477274868372
 10
147.798251781557
 20
416.477274868373
  0
LWPOLYLINE
  5
A4C
100
AcDbEntity
  8
0
100
AcDbPolyline
370
-1
 62
4
420
65535
  6
BYLAYER
 38
0
 90
2
 70
0
 10
148.010036452032
 20
416.477274868373
 10
148.472112758231
 20
416.477274868373
  0
LWPOLYLINE
  5
A4D
100
AcDbEntity
  8
0
100
AcDbPolyline
370
-1
 62
4
420
65535
  6
BYLAYER
 38
0
 90
2
 70
0
 10
148.70315091133
 20
416.477274868372
 10
149.126721161878
 20
416.477274868373
  0
LWPOLYLINE
  5
A4E
100
AcDbEntity
  8
0
100
AcDbPolyline
370
-1
 62
4
420
65535
  6
BYLAYER
 38
0
 90
2
 70
0
 10
149.377011888003
 20
416.477274868373
 10
149.819835621176
 20
416.477274868373
  0
LWPOLYLINE
  5
A4F
100
AcDbEntity
  8
0
100
AcDbPolyline
370
-1
 62
4
420
65535
  6
BYLAYER
 38
0
 90
2
 70
0
 10
150.050873774276
 20
416.477274868373
 10
150.493696597849
 20
416.477274868372
  0
LWPOLYLINE
  5
A50
100
AcDbEntity
  8
0
100
AcDbPolyline
370
-1
 62
4
420
65535
  6
BYLAYER
 38
0
 90
2
 70
0
 10
150.705481268324
 20
416.477274868373
 10
151.167557574523
 20
416.477274868372
  0
LWPOLYLINE
  5
A51
100
AcDbEntity
  8
0
100
AcDbPolyline
370
-1
 62
4
420
65535
  6
BYLAYER
 38
0
 90
2
 70
0
 10
151.379343154597
 20
416.477274868373
 10
151.841419460795
 20
416.477274868373
  0
LWPOLYLINE
  5
A52
100
AcDbEntity
  8
0
100
AcDbPolyline
370
-1
 62
4
420
65535
  6
BYLAYER
 38
0
 90
2
 70
0
 10
152.072457613894
 20
416.477274868372
 10
152.515280437468
 20
416.477274868372
  0
LWPOLYLINE
  5
A53
100
AcDbEntity
  8
0
100
AcDbPolyline
370
-1
 62
4
420
65535
  6
BYLAYER
 38
0
 90
2
 70
0
 10
152.746318590568
 20
416.477274868373
 10
153.189141414142
 20
416.477274868373
  0
LWPOLYLINE
  5
A54
100
AcDbEntity
  8
0
100
AcDbPolyline
370
-1
 62
4
420
65535
  6
BYLAYER
 38
0
 90
2
 70
0
 10
153.420179567241
 20
416.477274868372
 10
153.863003300414
 20
416.477274868373
  0
LWPOLYLINE
  5
A55
100
AcDbEntity
  8
0
100
AcDbPolyline
370
-1
 62
4
420
65535
  6
BYLAYER
 38
0
 90
2
 70
0
 10
154.074787970889
 20
416.477274868373
 10
154.536864277087
 20
416.477274868372
  0
LWPOLYLINE
  5
A56
100
AcDbEntity
  8
0
100
AcDbPolyline
370
-1
 62
4
420
65535
  6
BYLAYER
 38
0
 90
2
 70
0
 10
154.748648947562
 20
416.477274868372
 10
155.306991757284
 20
416.477274868373
  0
LWPOLYLINE
  5
BE8
100
AcDbEntity
  8
0
100
AcDbPolyline
370
-1
 62
6
420
16711935
  6
BYLAYER
 38
0
 90
2
 70
0
 10
138.344940077512
 20
417.266654921595
 10
156.115625293132
 20
417.266654921595
  0
HATCH
  5
CDB
100
AcDbEntity
  8
0
100
AcDbHatch
370
-1
 62
7
 10
0
 20
0
 30
0
210
0
220
0
230
1
  2
SOLID
 70
1
 71
0
 91
1
 92
3
 72
0
 73
1
 93
4
 10
135.630241778595
 20
382.9189831307
 10
135.630241778595
 20
382.899730557674
 10
135.649494351621
 20
382.899730557675
 10
135.649494351621
 20
382.9189831307
 97
0
 75
0
 76
1
 98
0
  0
HATCH
  5
D6F
100
AcDbEntity
  8
0
100
AcDbHatch
370
-1
 62
7
 10
0
 20
0
 30
0
210
0
220
0
230
1
  2
SOLID
 70
1
 71
0
 91
1
 92
3
 72
0
 73
1
 93
4
 10
137.09348371809
 20
380.127271810884
 10
137.09348371809
 20
380.108019237858
 10
137.112740839111
 20
380.108019237858
 10
137.112740839111
 20
380.127271810884
 97
0
 75
0
 76
1
 98
0
  0
HATCH
  5
EB4
100
AcDbEntity
  8
0
100
AcDbHatch
370
-1
 62
7
 10
0
 20
0
 30
0
210
0
220
0
230
1
  2
SOLID
 70
1
 71
0
 91
1
 92
3
 72
0
 73
1
 93
4
 10
137.09348371809
 20
380.127271810884
 10
137.09348371809
 20
380.108019237858
 10
137.112740839111
 20
380.108019237858
 10
137.112740839111
 20
380.127271810884
 97
0
 75
0
 76
1
 98
0
  0
HATCH
  5
EC9
100
AcDbEntity
  8
0
100
AcDbHatch
370
-1
 62
5
420
255
 10
0
 20
0
 30
0
210
0
220
0
230
1
  2
SOLID
 70
1
 71
0
 91
1
 92
3
 72
0
 73
1
 93
4
 10
160.640121851594
 20
406.484874746828
 10
160.640121851594
 20
406.465617625807
 10
160.659384430209
 20
406.465617625807
 10
160.659384430209
 20
406.484874746828
 97
0
 75
0
 76
1
 98
0
  0
HATCH
  5
EE6
100
AcDbEntity
  8
0
100
AcDbHatch
370
-1
 62
5
420
255
 10
0
 20
0
 30
0
210
0
220
0
230
1
  2
SOLID
 70
1
 71
0
 91
1
 92
3
 72
0
 73
1
 93
4
 10
162.777224767762
 20
405.368190036982
 10
162.777224767762
 20
405.348937463956
 10
162.796477340788
 20
405.348937463956
 10
162.796477340788
 20
405.368190036982
 97
0
 75
0
 76
1
 98
0
  0
HATCH
  5
EEC
100
AcDbEntity
  8
0
100
AcDbHatch
370
-1
 62
5
420
255
 10
0
 20
0
 30
0
210
0
220
0
230
1
  2
SOLID
 70
1
 71
0
 91
1
 92
3
 72
0
 73
1
 93
4
 10
162.546186614663
 20
404.367025313284
 10
162.546186614663
 20
404.347772740259
 10
162.565439187689
 20
404.347772740259
 10
162.565439187688
 20
404.367025313284
 97
0
 75
0
 76
1
 98
0
  0
HATCH
  5
EF2
100
AcDbEntity
  8
0
100
AcDbHatch
370
-1
 62
5
420
255
 10
0
 20
0
 30
0
210
0
220
0
230
1
  2
SOLID
 70
1
 71
0
 91
1
 92
3
 72
0
 73
1
 93
4
 10
163.39332711576
 20
404.636569522034
 10
163.39332711576
 20
404.617316949008
 10
163.412579688785
 20
404.617316949008
 10
163.412579688785
 20
404.636569522034
 97
0
 75
0
 76
1
 98
0
  0
HATCH
  5
EFA
100
AcDbEntity
  8
0
100
AcDbHatch
370
-1
 62
5
420
255
 10
0
 20
0
 30
0
210
0
220
0
230
1
  2
SOLID
 70
1
 71
0
 91
1
 92
3
 72
0
 73
1
 93
4
 10
166.5123421826
 20
407.389773876601
 10
166.5123421826
 20
407.37051675558
 10
166.531594755626
 20
407.37051675558
 10
166.531594755626
 20
407.389773876601
 97
0
 75
0
 76
1
 98
0
  0
HATCH
  5
EFE
100
AcDbEntity
  8
0
100
AcDbHatch
370
-1
 62
5
420
255
 10
0
 20
0
 30
0
210
0
220
0
230
1
  2
SOLID
 70
1
 71
0
 91
1
 92
3
 72
0
 73
1
 93
4
 10
166.281304029501
 20
406.427115208553
 10
166.281304029501
 20
406.407858087533
 10
166.300556602526
 20
406.407858087532
 10
166.300556602526
 20
406.427115208553
 97
0
 75
0
 76
1
 98
0
  0
HATCH
  5
F01
100
AcDbEntity
  8
0
100
AcDbHatch
370
-1
 62
5
420
255
 10
0
 20
0
 30
0
210
0
220
0
230
1
  2
SOLID
 70
1
 71
0
 91
1
 92
3
 72
0
 73
1
 93
4
 10
166.031012393777
 20
405.425949575257
 10
166.031012393777
 20
405.406697002231
 10
166.050264966803
 20
405.406697002231
 10
166.050264966803
 20
405.425949575257
 97
0
 75
0
 76
1
 98
0
  0
HATCH
  5
F04
100
AcDbEntity
  8
0
100
AcDbHatch
370
-1
 62
5
420
255
 10
0
 20
0
 30
0
210
0
220
0
230
1
  2
SOLID
 70
1
 71
0
 91
1
 92
3
 72
0
 73
1
 93
4
 10
165.799974240678
 20
404.463290907209
 10
165.799974240678
 20
404.444038334184
 10
165.819226813703
 20
404.444038334184
 10
165.819226813704
 20
404.463290907209
 97
0
 75
0
 76
1
 98
0
  0
HATCH
  5
F07
100
AcDbEntity
  8
0
100
AcDbHatch
370
-1
 62
5
420
255
 10
0
 20
0
 30
0
210
0
220
0
230
1
  2
SOLID
 70
1
 71
0
 91
1
 92
3
 72
0
 73
1
 93
4
 10
166.6663673148
 20
404.732835115959
 10
166.6663673148
 20
404.713582542933
 10
166.685619887826
 20
404.713582542933
 10
166.685619887826
 20
404.732835115959
 97
0
 75
0
 76
1
 98
0
  0
LWPOLYLINE
  5
F52
100
AcDbEntity
  8
0
100
AcDbPolyline
370
-1
 62
5
420
255
  6
BYLAYER
 38
0
 90
2
 70
0
 10
163.181862624143
 20
404.367025313284
 10
163.278128218068
 20
404.463290907209
  0
CIRCLE
  5
208D2C
100
AcDbEntity
  8
0
100
AcDbCircle
370
-1
  6
BYLAYER
 10
134.229908971835
 20
420.69545261297
 30
0
 40
1.19999999999998
  0
CIRCLE
  5
208D2E
100
AcDbEntity
  8
0
100
AcDbCircle
370
-1
  6
BYLAYER
 10
160.249908971835
 20
420.69545261297
 30
0
 40
1.19999999999999
  0
CIRCLE
  5
208D30
100
AcDbEntity
  8
0
100
AcDbCircle
370
-1
  6
BYLAYER
 10
160.249908971835
 20
377.69545261297
 30
0
 40
1.19999999999999
  0
CIRCLE
  5
208D32
100
AcDbEntity
  8
0
100
AcDbCircle
370
-1
  6
BYLAYER
 10
134.229908971835
 20
377.69545261297
 30
0
 40
1.19999999999998
  0
CIRCLE
  5
208D61
100
AcDbEntity
  8
0
100
AcDbCircle
370
-1
  6
BYLAYER
 10
145.969908971835
 20
422.01545261297
 30
0
 40
0.610000000000028
  0
CIRCLE
  5
208D63
100
AcDbEntity
  8
0
100
AcDbCircle
370
-1
  6
BYLAYER
 10
143.429908971835
 20
422.01545261297
 30
0
 40
0.609999999999998
  0
CIRCLE
  5
208D65
100
AcDbEntity
  8
0
100
AcDbCircle
370
-1
  6
BYLAYER
 10
140.889908971835
 20
422.01545261297
 30
0
 40
0.609999999999993
  0
CIRCLE
  5
208D67
100
AcDbEntity
  8
0
100
AcDbCircle
370
-1
  6
BYLAYER
 10
138.349908971835
 20
422.01545261297
 30
0
 40
0.61000000000001
  0
CIRCLE
  5
208D69
100
AcDbEntity
  8
0
100
AcDbCircle
370
-1
  6
BYLAYER
 10
148.509908971835
 20
422.01545261297
 30
0
 40
0.610000000000033
  0
CIRCLE
  5
208D6B
100
AcDbEntity
  8
0
100
AcDbCircle
370
-1
  6
BYLAYER
 10
151.045797923375
 20
422.01545261297
 30
0
 40
0.610000000000027
  0
CIRCLE
  5
208D6D
100
AcDbEntity
  8
0
100
AcDbCircle
370
-1
  6
BYLAYER
 10
153.579207780014
 20
422.01545261297
 30
0
 40
0.610000000000014
  0
CIRCLE
  5
208D6F
100
AcDbEntity
  8
0
100
AcDbCircle
370
-1
  6
BYLAYER
 10
156.119207780014
 20
422.01545261297
 30
0
 40
0.610000000000016
  0
TEXT
  5
208D86
100
AcDbEntity
  8
0
100
AcDbText
370
-1
 10
137.534958622102
 20
420.186892198419
 30
0
 40
0.5
  1
GND
 50
0
 41
1
 51
0
  7
Helvetica
 71
0
 72
0
 11
-0.265393809865486
 21
-0.0783303452213886
 31
0
100
AcDbText
 73
0
  0
TEXT
  5
208D8D
100
AcDbEntity
  8
0
100
AcDbText
370
-1
 10
140.142645214573
 20
420.19591604422
 30
0
 40
0.5
  1
VCC
 50
0
 41
1
 51
0
  7
Helvetica
 71
0
 72
0
 11
-0.546602162724923
 21
-0.19491062747818
 31
0
100
AcDbText
 73
0
  0
TEXT
  5
208D8F
100
AcDbEntity
  8
0
100
AcDbText
370
-1
 10
142.731212546957
 20
420.18873866248
 30
0
 40
0.5
  1
SCL
 50
0
 41
1
 51
0
  7
Helvetica
 71
0
 72
0
 11
-0.70338220074899
 21
-0.148257668622762
 31
0
100
AcDbText
 73
0
  0
TEXT
  5
208D91
100
AcDbEntity
  8
0
100
AcDbText
370
-1
 10
145.282769787677
 20
420.197037454536
 30
0
 40
0.5
  1
SDA
 50
0
 41
1
 51
0
  7
Helvetica
 71
0
 72
0
 11
-0.430642711935661
 21
-0.301449898354974
 31
0
100
AcDbText
 73
0
  0
TEXT
  5
208D93
100
AcDbEntity
  8
0
100
AcDbText
370
-1
 10
147.855860064754
 20
420.186271376577
 30
0
 40
0.5
  1
RES
 50
0
 41
1
 51
0
  7
Helvetica
 71
0
 72
0
 11
-0.315804655419498
 21
0.0287095141290479
 31
0
100
AcDbText
 73
0
  0
TEXT
  5
208D95
100
AcDbEntity
  8
0
100
AcDbText
370
-1
 10
150.58685267168
 20
420.186271378716
 30
0
 40
0.5
  1
DC
 50
0
 41
1
 51
0
  7
Helvetica
 71
0
 72
0
 11
-0.114838056516163
 21
-0.0430642711935434
 31
0
100
AcDbText
 73
0
  0
TEXT
  5
208D97
100
AcDbEntity
  8
0
100
AcDbText
370
-1
 10
153.059459653584
 20
420.207803519661
 30
0
 40
0.5
  1
CS
 50
0
 41
1
 51
0
  7
Helvetica
 71
0
 72
0
 11
-0.244030870096879
 21
-0.200966598903335
 31
0
100
AcDbText
 73
0
  0
TEXT
  5
208D99
100
AcDbEntity
  8
0
100
AcDbText
370
-1
 10
155.57154221688
 20
420.20062613792
 30
0
 40
0.5
  1
BLK
 50
0
 41
1
 51
0
  7
Helvetica
 71
0
 72
0
 11
-0.315804655419498
 21
-0.100483299451696
 31
0
100
AcDbText
 73
0
  0
LWPOLYLINE
  5
208FB9
100
AcDbEntity
  8
0
100
AcDbPolyline
370
-1
  6
BYLAYER
 38
0
 90
4
 70
1
 10
154.919909083041
 20
382.150185439326
 10
139.559909083041
 20
382.150185439326
 10
139.559909083041
 20
381.150185439326
 10
154.919909083041
 20
381.150185439326
  0
LINE
  5
209422
100
AcDbEntity
  8
0
100
AcDbLine
370
-1
  6
BYLAYER
 10
147.239908971835
 20
380.652716602274
 30
0
 11
153.669908971835
 21
380.652716602274
 31
0
  0
LWPOLYLINE
  5
209429
100
AcDbEntity
  8
0
100
AcDbPolyline
370
-1
  6
BYLAYER
 38
0
 90
4
 70
1
 10
153.669908971835
 20
380.652716602274
 10
140.809908971835
 20
380.652716602274
 10
140.809908971835
 20
379.192716602274
 10
153.669908971835
 20
379.192716602274
  0
LINE
  5
209454
100
AcDbEntity
  8
0
100
AcDbLine
370
-1
  6
BYLAYER
 10
132.229908971835
 20
374.99545261297
 30
0
 11
135.889908971835
 21
374.99545261297
 31
0
  0
LINE
  5
20945A
100
AcDbEntity
  8
0
100
AcDbLine
370
-1
  6
BYLAYER
 10
162.249908971835
 20
374.99545261297
 30
0
 11
158.589908971835
 21
374.99545261297
 31
0
  0
ARC
  5
209485
100
AcDbEntity
  8
0
100
AcDbCircle
370
-1
  6
BYLAYER
 10
140.850882406488
 20
375.843208689604
 30
0
 40
4.2842590548959
100
AcDbArc
 50
90.5479688871156
 51
182.244069021234
  0
ARC
  5
209489
100
AcDbEntity
  8
0
100
AcDbCircle
370
-1
  6
BYLAYER
 10
153.628935537181
 20
375.843208689604
 30
0
 40
4.28425905489607
100
AcDbArc
 50
357.755930978767
 51
89.4520311128829
  0
ARC
  5
20949F
100
AcDbEntity
  8
0
100
AcDbCircle
370
-1
  6
BYLAYER
 10
131.107848871842
 20
374.553392512977
 30
0
 40
1.20600000000003
100
AcDbArc
 50
21.5030443742439
 51
68.4969556257531
  0
ARC
  5
2094A4
100
AcDbEntity
  8
0
100
AcDbCircle
370
-1
  6
BYLAYER
 10
163.371969071827
 20
374.553392512977
 30
0
 40
1.20599999999998
100
AcDbArc
 50
111.503044374243
 51
158.496955625755
  0
ARC
  5
2094B0
100
AcDbEntity
  8
0
100
AcDbCircle
370
-1
  6
BYLAYER
 10
137.011969071827
 20
374.553392512977
 30
0
 40
1.2059999999999
100
AcDbArc
 50
111.50304437424
 51
158.496955625757
  0
ARC
  5
2094B2
100
AcDbEntity
  8
0
100
AcDbCircle
370
-1
  6
BYLAYER
 10
157.467848871842
 20
374.553392512977
 30
0
 40
1.20599999999999
100
AcDbArc
 50
21.5030443742449
 51
68.4969556257569
  0
LINE
  5
2094BC
100
AcDbEntity
  8
0
100
AcDbLine
370
-1
  6
BYLAYER
 10
140.809908971835
 20
379.192716602274
 30
0
 11
143.829908971835
 21
379.192716602274
 31
0
  0
LINE
  5
2094BE
100
AcDbEntity
  8
0
100
AcDbLine
370
-1
  6
BYLAYER
 10
143.829908971835
 20
379.192716602274
 30
0
 11
143.829908971835
 21
377.652716602274
 31
0
  0
LINE
  5
2094C0
100
AcDbEntity
  8
0
100
AcDbLine
370
-1
  6
BYLAYER
 10
143.829908971835
 20
377.652716602274
 30
0
 11
150.629908971835
 21
377.652716602274
 31
0
  0
LINE
  5
2094C2
100
AcDbEntity
  8
0
100
AcDbLine
370
-1
  6
BYLAYER
 10
150.629908971835
 20
377.652716602274
 30
0
 11
150.629908971835
 21
379.192716602274
 31
0
  0
LINE
  5
2094C6
100
AcDbEntity
  8
0
100
AcDbLine
370
-1
  6
BYLAYER
 10
140.809908971835
 20
379.192716602274
 30
0
 11
140.809908971835
 21
377.652716602274
 31
0
  0
LINE
  5
2094C8
100
AcDbEntity
  8
0
100
AcDbLine
370
-1
  6
BYLAYER
 10
140.809908971835
 20
377.652716602274
 30
0
 11
143.829908971835
 21
377.652716602274
 31
0
  0
LINE
  5
2094CC
100
AcDbEntity
  8
0
100
AcDbLine
370
-1
  6
BYLAYER
 10
153.669908971835
 20
379.192716602274
 30
0
 11
153.669908971835
 21
377.652716602274
 31
0
  0
LINE
  5
2094CE
100
AcDbEntity
  8
0
100
AcDbLine
370
-1
  6
BYLAYER
 10
153.669908971835
 20
377.652716602274
 30
0
 11
150.629908971835
 21
377.652716602274
 31
0
  0
LINE
  5
2094D3
100
AcDbEntity
  8
0
100
AcDbLine
370
-1
  6
BYLAYER
 10
153.669908971835
 20
377.652716602274
 30
0
 11
155.049908971835
 21
377.652716602274
 31
0
  0
LINE
  5
2094D5
100
AcDbEntity
  8
0
100
AcDbLine
370
-1
  6
BYLAYER
 10
155.049908971835
 20
377.652716602274
 30
0
 11
155.049908971835
 21
380.128977906666
 31
0
  0
HATCH
  5
2097CF
100
AcDbEntity
  8
0
100
AcDbHatch
370
-1
 62
1
 10
0
 20
0
 30
0
210
0
220
0
230
1
  2
SOLID
 70
1
 71
0
 91
1
 92
7
 72
0
 73
1
 93
4
 10
154.919909083041
 20
382.150185439326
 10
139.559909083041
 20
382.150185439326
 10
139.559909083041
 20
381.150185439326
 10
154.919909083041
 20
381.150185439326
 97
0
 75
0
 76
1
 47
1E-6
 98
0
  0
LINE
  5
2097E2
100
AcDbEntity
  8
0
100
AcDbLine
370
-1
  6
BYLAYER
 10
131.549908971835
 20
375.67545261297
 30
0
 11
131.549908971835
 21
422.87545261297
 31
0
  0
LINE
  5
2097EF
100
AcDbEntity
  8
0
100
AcDbLine
370
-1
  6
BYLAYER
 10
162.249908971835
 20
423.55545261297
 30
0
 11
132.229908971835
 21
423.55545261297
 31
0
  0
ARC
  5
2097FE
100
AcDbEntity
  8
0
100
AcDbCircle
370
-1
  6
BYLAYER
 10
131.107848871842
 20
423.997512712962
 30
0
 40
1.20600000000046
100
AcDbArc
 50
291.503044374256
 51
338.496955625747
  0
ARC
  5
209800
100
AcDbEntity
  8
0
100
AcDbCircle
370
-1
  6
BYLAYER
 10
163.371969071827
 20
423.997512712962
 30
0
 40
1.20600000000042
100
AcDbArc
 50
201.503044374254
 51
248.496955625748
  0
LWPOLYLINE
  5
2098C1
100
AcDbEntity
  8
0
100
AcDbPolyline
370
-1
  6
BYLAYER
 38
0
 90
4
 70
1
 10
151.033106103805
 20
412.395601133485
 10
166.293106103805
 20
412.395601133485
 10
166.293106103805
 20
404.365601133485
 10
151.033106103805
 20
404.365601133485
  0
LWPOLYLINE
  5
209C45
100
AcDbEntity
  8
0
100
AcDbPolyline
370
-1
  6
BYLAYER
 38
0
 90
4
 70
1
 10
166.293106103805
 20
412.395601133485
 10
161.493106103805
 20
412.395601133485
 10
161.493106103805
 20
404.365601133485
 10
166.293106103805
 20
404.365601133485
  0
LINE
  5
209C54
100
AcDbEntity
  8
0
100
AcDbLine
370
-1
  6
BYLAYER
 10
162.929908971835
 20
422.87545261297
 30
0
 11
162.929908971835
 21
375.67545261297
 31
0
  0
HATCH
  5
209C66
100
AcDbEntity
  8
0
100
AcDbHatch
370
-1
 62
5
 10
0
 20
0
 30
0
210
0
220
0
230
1
  2
ANSI37
 70
0
 71
0
 91
1
 92
7
 72
0
 73
1
 93
4
 10
166.293106103805
 20
412.395601133485
 10
161.493106103805
 20
412.395601133485
 10
161.493106103805
 20
404.365601133485
 10
166.293106103805
 20
404.365601133485
 97
0
 75
0
 76
1
 52
0
 41
0.15
 77
0
 78
2
 53
45
 43
0
 44
0
 45
-0.336759604540093
 46
0.336759604540093
 79
0
 53
135
 43
0
 44
0
 45
-0.336759604540093
 46
-0.336759604540093
 79
0
 47
1E-6
 98
0
  0
MTEXT
  5
209CA2
100
AcDbEntity
  8
0
100
AcDbMText
370
-1
 62
3
 10
138.865381896442
 20
403.290715021579
 30
0
 40
2
  1
{\ftxt|b0|i0|c1|p2;\C3; \fArial|b0|i0|c0|p34; \C256;1.69'' TFT\P240*RGB*280\P }
 50
0
 41
16.8527221679688
  7
Standard
 71
0
 73
1
 44
1
  0
LINE
  5
20A10F
100
AcDbEntity
  8
0
100
AcDbLine
370
-1
  6
BYLAYER
 10
199.831893280742
 20
423.560121872758
 30
0
 11
199.831893280742
 21
375.000121872758
 31
0
  0
LINE
  5
20A111
100
AcDbEntity
  8
0
100
AcDbLine
370
-1
  6
BYLAYER
 10
199.831893280742
 20
375.000121872758
 30
0
 11
198.451893287777
 21
374.999982527993
 31
0
  0
LINE
  5
20A113
100
AcDbEntity
  8
0
100
AcDbLine
370
-1
  6
BYLAYER
 10
198.451893287777
 20
374.999982527993
 30
0
 11
198.451893287777
 21
423.559982527993
 31
0
  0
LINE
  5
20A115
100
AcDbEntity
  8
0
100
AcDbLine
370
-1
  6
BYLAYER
 10
198.451893287777
 20
423.559982527993
 30
0
 11
199.831893287777
 21
423.559982527993
 31
0
  0
LINE
  5
20A11F
100
AcDbEntity
  8
0
100
AcDbLine
370
-1
  6
BYLAYER
 10
198.451893287777
 20
417.55513730266
 30
0
 11
196.831893287777
 21
417.55513730266
 31
0
  0
LINE
  5
20A121
100
AcDbEntity
  8
0
100
AcDbLine
370
-1
  6
BYLAYER
 10
196.831893287777
 20
417.55513730266
 30
0
 11
196.831893287777
 21
380.12513730266
 31
0
  0
LINE
  5
20A125
100
AcDbEntity
  8
0
100
AcDbLine
370
-1
  6
BYLAYER
 10
196.831893287777
 20
380.12513730266
 30
0
 11
198.451893287777
 21
380.12513730266
 31
0
  0
LINE
  5
20C543
100
AcDbEntity
  8
0
100
AcDbLine
370
-1
  6
BYLAYER
 10
147.239908971835
 20
417.55545261297
 30
0
 11
157.342487248335
 21
417.55545261297
 31
0
  0
LINE
  5
20C5B2
100
AcDbEntity
  8
0
100
AcDbLine
370
-1
  6
BYLAYER
 10
132.225934133234
 20
413.976291815105
 30
0
 11
132.225934133234
 21
383.976291815105
 31
0
  0
LINE
  5
20C5DA
100
AcDbEntity
  8
0
100
AcDbLine
370
-1
  6
BYLAYER
 10
147.239908971835
 20
417.55545261297
 30
0
 11
136.489909784196
 21
417.559631820176
 31
0
  0
LINE
  5
20C5DE
100
AcDbEntity
  8
0
100
AcDbLine
370
-1
  6
BYLAYER
 10
147.239908971835
 20
417.55545261297
 30
0
 11
157.989908971835
 21
417.55545261297
 31
0
  0
LINE
  5
20C5E7
100
AcDbEntity
  8
0
100
AcDbLine
370
-1
  6
BYLAYER
 10
147.239908971835
 20
380.127271810884
 30
0
 11
157.989908971835
 21
380.127271810884
 31
0
  0
LINE
  5
20C5ED
100
AcDbEntity
  8
0
100
AcDbLine
370
-1
  6
BYLAYER
 10
147.239908971835
 20
380.127271810884
 30
0
 11
136.489908971835
 21
380.127271810947
 31
0
  0
ARC
  5
20C602
100
AcDbEntity
  8
0
100
AcDbCircle
370
-1
  6
BYLAYER
 10
136.840383481408
 20
412.813970437466
 30
0
 40
4.75858526999236
100
AcDbArc
 50
94.2237054505183
 51
165.862026109087
  0
ARC
  5
20C604
100
AcDbEntity
  8
0
100
AcDbCircle
370
-1
  6
BYLAYER
 10
157.645470009974
 20
412.788488952036
 30
0
 40
4.77939125235683
100
AcDbArc
 50
14.3903040177503
 51
85.8672515436475
  0
ARC
  5
20C60B
100
AcDbEntity
  8
0
100
AcDbCircle
370
-1
  6
BYLAYER
 10
137.127190091856
 20
385.119599429001
 30
0
 40
5.03283839119864
100
AcDbArc
 50
193.130488164158
 51
262.725416253466
  0
ARC
  5
20C616
100
AcDbEntity
  8
0
100
AcDbCircle
370
-1
  6
BYLAYER
 10
157.353969987798
 20
385.144935663465
 30
0
 40
5.05780277679125
100
AcDbArc
 50
277.223159132973
 51
346.640654030172
  0
LINE
  5
20C76C
100
AcDbEntity
  8
0
100
AcDbLine
370
100
  6
BYLAYER
 10
147.336175475359
 20
416.477274868372
 30
0
 11
138.349674735159
 21
416.477274868373
 31
0
  0
LINE
  5
20C772
100
AcDbEntity
  8
0
100
AcDbLine
370
100
  6
BYLAYER
 10
147.239908971835
 20
416.477274868372
 30
0
 11
156.226409712035
 21
416.477274868373
 31
0
  0
LINE
  5
20C7AD
100
AcDbEntity
  8
0
100
AcDbLine
370
100
  6
BYLAYER
 10
147.237474219784
 20
383.82461516239
 30
0
 11
138.2509736193
 21
383.82303050787
 31
0
  0
LINE
  5
20C7B3
100
AcDbEntity
  8
0
100
AcDbLine
370
100
  6
BYLAYER
 10
147.237474219784
 20
383.82461516239
 30
0
 11
156.223974959984
 21
383.82461516239
 31
0
  0
LINE
  5
20C824
100
AcDbEntity
  8
0
100
AcDbLine
370
100
  6
BYLAYER
 10
133.279041599936
 20
399.27545261297
 30
0
 11
133.279041599936
 21
411.87324683947
 31
0
  0
LINE
  5
20C82A
100
AcDbEntity
  8
0
100
AcDbLine
370
100
  6
BYLAYER
 10
133.279041599936
 20
399.27545261297
 30
0
 11
133.279041599936
 21
386.677658386469
 31
0
  0
ARC
  5
20C859
100
AcDbEntity
  8
0
100
AcDbCircle
370
100
  6
BYLAYER
 10
139.891420985837
 20
409.684999350077
 30
0
 40
6.96505478929778
100
AcDbArc
 50
102.788602008237
 51
161.688971371823
  0
ARC
  5
20C85E
100
AcDbEntity
  8
0
100
AcDbCircle
370
100
  6
BYLAYER
 10
154.68503023042
 20
409.799851697694
 30
0
 40
6.85301619045641
100
AcDbArc
 50
17.6109589903182
 51
77.0018339721597
  0
ARC
  5
20C8C1
100
AcDbEntity
  8
0
100
AcDbCircle
370
100
  6
BYLAYER
 10
137.814002246974
 20
388.819097531012
 30
0
 40
5.01514004589666
100
AcDbArc
 50
205.276998574989
 51
274.998544877624
  0
ARC
  5
20C8D9
100
AcDbEntity
  8
0
100
AcDbCircle
370
100
  6
BYLAYER
 10
156.664990997748
 20
388.848183647864
 30
0
 40
5.04288959563976
100
AcDbArc
 50
264.982900692438
 51
334.506226712424
  0
LINE
  5
20CB72
100
AcDbEntity
  8
0
100
AcDbLine
370
100
  6
BYLAYER
 10
161.224908971835
 20
411.87324683947
 30
0
 11
161.224908971835
 21
386.677658386469
 31
0
  0
LINE
  5
20CC61
100
AcDbEntity
  8
0
100
AcDbLine
370
-1
  6
BYLAYER
 10
147.239908971835
 20
417.266654921595
 30
0
 11
137.351594677885
 21
417.266654921595
 31
0
  0
LINE
  5
20CC67
100
AcDbEntity
  8
0
100
AcDbLine
370
-1
  6
BYLAYER
 10
147.239908971835
 20
417.266654921595
 30
0
 11
157.128223265785
 21
417.266654921595
 31
0
  0
LINE
  5
20CCFC
100
AcDbEntity
  8
0
100
AcDbLine
370
-1
  6
BYLAYER
 10
132.572341675185
 20
399.27545261297
 30
0
 11
132.572341675185
 21
413.57545261297
 31
0
  0
LINE
  5
20CD02
100
AcDbEntity
  8
0
100
AcDbLine
370
-1
  6
BYLAYER
 10
132.572341675185
 20
399.27545261297
 30
0
 11
132.572341675185
 21
384.975452612969
 31
0
  0
LINE
  5
20CD20
100
AcDbEntity
  8
0
100
AcDbLine
370
-1
  6
BYLAYER
 10
147.239908971835
 20
382.9189831307
 30
0
 11
137.351594677835
 21
382.9189831307
 31
0
  0
LINE
  5
20CD27
100
AcDbEntity
  8
0
100
AcDbLine
370
-1
  6
BYLAYER
 10
147.239908971835
 20
382.9189831307
 30
0
 11
157.128223265835
 21
382.9189831307
 31
0
  0
ARC
  5
20CE67
100
AcDbEntity
  8
0
100
AcDbCircle
370
-1
  6
BYLAYER
 10
138.200304645798
 20
411.228157252694
 30
0
 40
6.09784902297224
100
AcDbArc
 50
98.000506777892
 51
157.36009290722
  0
LINE
  5
20CE6E
100
AcDbEntity
  8
0
100
AcDbLine
370
-1
  6
BYLAYER
 10
161.942341675185
 20
402.869445962014
 30
0
 11
161.942341675185
 21
392.722683879858
 31
0
  0
LINE
  5
20CE76
100
AcDbEntity
  8
0
100
AcDbLine
370
-1
  6
BYLAYER
 10
161.942341675185
 20
399.27545261297
 30
0
 11
161.942341675185
 21
413.57545261297
 31
0
  0
ARC
  5
20CE7D
100
AcDbEntity
  8
0
100
AcDbCircle
370
-1
  6
BYLAYER
 10
156.279896098138
 20
411.175332683883
 30
0
 40
6.15011102233231
100
AcDbArc
 50
22.9704516849742
 51
82.0715196870055
  0
ARC
  5
20CE83
100
AcDbEntity
  8
0
100
AcDbCircle
370
-1
  6
BYLAYER
 10
136.475685006841
 20
387.465108980307
 30
0
 40
4.62973843669477
100
AcDbArc
 50
212.530815732901
 51
280.905636485063
  0
LINE
  5
20CE8C
100
AcDbEntity
  8
0
100
AcDbLine
370
-1
  6
BYLAYER
 10
161.942341675185
 20
399.27545261297
 30
0
 11
161.942341675185
 21
384.975452612969
 31
0
  0
ARC
  5
20CE8F
100
AcDbEntity
  8
0
100
AcDbCircle
370
-1
  6
BYLAYER
 10
158.01030120538
 20
387.517142174467
 30
0
 40
4.68200043605419
100
AcDbArc
 50
259.140711616185
 51
327.12118149751
  0
LINE
  5
20CE93
100
AcDbEntity
  8
0
100
AcDbLine
370
-1
  6
BYLAYER
 10
162.274908971835
 20
413.976291815105
 30
0
 11
162.274908971835
 21
383.976291815105
 31
0
  0
DIMENSION
  5
20D0B0
100
AcDbEntity
  8
0
100
AcDbDimension
370
-1
  1
27,97(A/A)
  3
ISO-25
  2
*D31
 10
161.222292203984
 20
428.088723479109
 30
0
 11
0
 21
0
 31
0
 70
1
 12
0
 22
0
 32
0
100
AcDbAlignedDimension
 13
133.252292203984
 23
409.961400239176
 33
0
 14
161.222292203984
 24
409.961400239176
 34
0
1001
ACAD
1000
DSTYLE
1002
{
1070
41
1040
1
1070
77
1070
0
1070
140
1040
1.5
1002
}
  0
DIMENSION
  5
20D242
100
AcDbEntity
  8
0
100
AcDbDimension
370
-1
  1
32,63(A/A)
  3
ISO-25
  2
*D32
 10
126.582805351555
 20
383.847274868372
 30
0
 11
0
 21
0
 31
0
 70
1
 12
0
 22
0
 32
0
100
AcDbAlignedDimension
 13
145.757414459314
 23
416.477274868372
 33
0
 14
145.757414459314
 24
383.847274868372
 34
0
1001
ACAD
1000
DSTYLE
1002
{
1070
41
1040
1
1070
42
1040
0.625
1070
44
1040
1.25
1070
73
1070
0
1070
74
1070
0
1070
77
1070
0
1070
140
1040
1.5
1070
144
1040
1
1070
147
1040
0.625
1070
173
1070
1
1070
174
1070
0
1070
178
1070
0
1070
271
1070
2
1070
342
1005
2015DB
1070
343
1005
2015DB
1070
344
1005
2015DB
1002
}
  0
DIMENSION
  5
20D2DA
100
AcDbEntity
  8
0
100
AcDbDimension
370
-1
  1
29,37(V/A)
  3
ISO-25
  2
*D33
 10
161.940724117862
 20
431.235694054101
 30
0
 11
0
 21
0
 31
0
 70
1
 12
0
 22
0
 32
0
100
AcDbAlignedDimension
 13
132.570724117862
 23
411.797274404463
 33
0
 14
161.940724117862
 24
411.797274404463
 34
0
1001
ACAD
1000
DSTYLE
1002
{
1070
41
1040
1
1070
42
1040
0.625
1070
44
1040
1.25
1070
73
1070
0
1070
74
1070
0
1070
77
1070
0
1070
140
1040
1.5
1070
144
1040
1
1070
147
1040
0.625
1070
173
1070
1
1070
174
1070
0
1070
178
1070
0
1070
271
1070
2
1070
342
1005
2015DB
1070
343
1005
2015DB
1070
344
1005
2015DB
1002
}
  0
DIMENSION
  5
20D369
100
AcDbEntity
  8
0
100
AcDbDimension
370
-1
  1
34,33(V/A)
  3
ISO-25
  2
*D34
 10
121.055884427148
 20
382.939673465396
 30
0
 11
0
 21
0
 31
0
 70
1
 12
0
 22
0
 32
0
100
AcDbAlignedDimension
 13
144.085563808576
 23
417.269673465396
 33
0
 14
144.085563808576
 24
382.939673465396
 34
0
1001
ACAD
1000
DSTYLE
1002
{
1070
41
1040
1
1070
42
1040
0.625
1070
44
1040
1.25
1070
73
1070
0
1070
74
1070
0
1070
77
1070
0
1070
140
1040
1.5
1070
144
1040
1
1070
147
1040
0.625
1070
173
1070
1
1070
174
1070
0
1070
178
1070
0
1070
271
1070
2
1070
342
1005
2015DB
1070
343
1005
2015DB
1070
344
1005
2015DB
1002
}
  0
DIMENSION
  5
20D3F3
100
AcDbEntity
  8
0
100
AcDbDimension
370
-1
  1
30,07(LCM)
  3
ISO-25
  2
*D35
 10
162.301831907519
 20
434.884767461891
 30
0
 11
0
 21
0
 31
0
 70
1
 12
0
 22
0
 32
0
100
AcDbAlignedDimension
 13
132.231831907519
 23
411.398374558595
 33
0
 14
162.301831907519
 24
411.398374558595
 34
0
1001
ACAD
1000
DSTYLE
1002
{
1070
41
1040
1
1070
42
1040
0.625
1070
44
1040
1.25
1070
73
1070
0
1070
74
1070
0
1070
77
1070
0
1070
140
1040
1.5
1070
144
1040
1
1070
147
1040
0.625
1070
173
1070
1
1070
174
1070
0
1070
178
1070
0
1070
271
1070
2
1070
342
1005
2015DB
1070
343
1005
2015DB
1070
344
1005
2015DB
1002
}
  0
DIMENSION
  5
20D4EE
100
AcDbEntity
  8
0
100
AcDbDimension
370
-1
  1
37,43(LCM)
  3
ISO-25
  2
*D37
 10
117.15345371784
 20
380.127542216573
 30
0
 11
0
 21
0
 31
0
 70
1
 12
0
 22
0
 32
0
100
AcDbAlignedDimension
 13
141.864909378016
 23
417.557542216573
 33
0
 14
141.864909378016
 24
380.127542216573
 34
0
1001
ACAD
1000
DSTYLE
1002
{
1070
41
1040
1
1070
42
1040
0.625
1070
44
1040
1.25
1070
73
1070
0
1070
74
1070
0
1070
77
1070
0
1070
140
1040
1.5
1070
144
1040
1
1070
147
1040
0.625
1070
173
1070
1
1070
174
1070
0
1070
178
1070
0
1070
271
1070
2
1070
342
1005
2015DB
1070
343
1005
2015DB
1070
344
1005
2015DB
1002
}
  0
DIMENSION
  5
20D578
100
AcDbEntity
  8
0
100
AcDbDimension
370
-1
  1
31,38 PCB
  3
ISO-25
  2
*D38
 10
162.923343500539
 20
437.445761252992
 30
0
 11
0
 21
0
 31
0
 70
1
 12
0
 22
0
 32
0
100
AcDbAlignedDimension
 13
131.543343500539
 23
421.764489617429
 33
0
 14
162.923343500539
 24
421.764489617429
 34
0
1001
ACAD
1000
DSTYLE
1002
{
1070
41
1040
1
1070
42
1040
0.625
1070
44
1040
1.25
1070
73
1070
0
1070
74
1070
0
1070
77
1070
0
1070
140
1040
1.5
1070
144
1040
1
1070
147
1040
0.625
1070
173
1070
1
1070
174
1070
0
1070
178
1070
0
1070
271
1070
2
1070
342
1005
2015DB
1070
343
1005
2015DB
1070
344
1005
2015DB
1002
}
  0
DIMENSION
  5
20D602
100
AcDbEntity
  8
0
100
AcDbDimension
370
-1
  1
48,56 PCB
  3
ISO-25
  2
*D39
 10
110.156385063819
 20
374.974467950207
 30
0
 11
0
 21
0
 31
0
 70
1
 12
0
 22
0
 32
0
100
AcDbAlignedDimension
 13
130.824353896405
 23
423.534467950207
 33
0
 14
130.824353896405
 24
374.974467950207
 34
0
1001
ACAD
1000
DSTYLE
1002
{
1070
41
1040
1
1070
42
1040
0.625
1070
44
1040
1.25
1070
73
1070
0
1070
74
1070
0
1070
77
1070
0
1070
140
1040
1.5
1070
144
1040
1
1070
147
1040
0.625
1070
173
1070
1
1070
174
1070
0
1070
178
1070
0
1070
271
1070
2
1070
342
1005
2015DB
1070
343
1005
2015DB
1070
344
1005
2015DB
1002
}
  0
DIMENSION
  5
20D6C9
100
AcDbEntity
  8
0
100
AcDbDimension
370
-1
  3
ISO-25
  2
*D40
 10
143.429908971835
 20
425.239024110496
 30
0
 11
0
 21
0
 31
0
 70
1
 12
0
 22
0
 32
0
100
AcDbAlignedDimension
 13
140.889908971835
 23
422.01545261297
 33
0
 14
143.429908971835
 24
422.01545261297
 34
0
1001
ACAD
1000
DSTYLE
1002
{
1070
41
1040
1
1070
42
1040
0.625
1070
44
1040
1.25
1070
73
1070
0
1070
74
1070
0
1070
77
1070
0
1070
140
1040
1.5
1070
144
1040
1
1070
147
1040
0.625
1070
173
1070
1
1070
174
1070
0
1070
178
1070
0
1070
271
1070
2
1070
342
1005
2015DB
1070
343
1005
2015DB
1070
344
1005
2015DB
1002
}
  0
DIMENSION
  5
20D75E
100
AcDbEntity
  8
0
100
AcDbDimension
370
-1
  3
ISO-25
  2
*D41
 10
160.249908971835
 20
369.795919490005
 30
0
 11
0
 21
0
 31
0
 70
1
 12
0
 22
0
 32
0
100
AcDbAlignedDimension
 13
134.229908971835
 23
377.69545261297
 33
0
 14
160.249908971835
 24
377.69545261297
 34
0
1001
ACAD
1000
DSTYLE
1002
{
1070
41
1040
1
1070
42
1040
0.625
1070
44
1040
1.25
1070
73
1070
0
1070
74
1070
0
1070
77
1070
0
1070
140
1040
1.5
1070
144
1040
1
1070
147
1040
0.625
1070
173
1070
1
1070
174
1070
0
1070
178
1070
0
1070
271
1070
2
1070
342
1005
2015DB
1070
343
1005
2015DB
1070
344
1005
2015DB
1002
}
  0
DIMENSION
  5
20D7E8
100
AcDbEntity
  8
0
100
AcDbDimension
370
-1
  3
ISO-25
  2
*D42
 10
173.371934823405
 20
377.69545261297
 30
0
 11
0
 21
0
 31
0
 70
1
 12
0
 22
0
 32
0
100
AcDbAlignedDimension
 13
160.249908971835
 23
420.69545261297
 33
0
 14
160.249908971835
 24
377.69545261297
 34
0
1001
ACAD
1000
DSTYLE
1002
{
1070
41
1040
1
1070
42
1040
0.625
1070
44
1040
1.25
1070
73
1070
0
1070
74
1070
0
1070
77
1070
0
1070
140
1040
1.5
1070
144
1040
1
1070
147
1040
0.625
1070
173
1070
1
1070
174
1070
0
1070
178
1070
0
1070
271
1070
2
1070
342
1005
2015DB
1070
343
1005
2015DB
1070
344
1005
2015DB
1002
}
  0
DIMENSION
  5
20DBBF
100
AcDbEntity
  8
0
100
AcDbDimension
370
-1
  1
1,38 PCB
  3
ISO-25
  2
*D43
 10
198.419910555013
 20
427.370031393811
 30
0
 11
0
 21
0
 31
0
 70
1
 12
0
 22
0
 32
0
100
AcDbAlignedDimension
 13
199.799910555013
 23
421.87007567956
 33
0
 14
198.419910555013
 24
421.87007567956
 34
0
1001
ACAD
1000
DSTYLE
1002
{
1070
41
1040
1
1070
42
1040
0.625
1070
44
1040
1.25
1070
73
1070
0
1070
74
1070
0
1070
77
1070
0
1070
140
1040
1.5
1070
144
1040
1
1070
147
1040
0.625
1070
173
1070
1
1070
174
1070
0
1070
178
1070
0
1070
271
1070
2
1070
342
1005
2015DB
1070
343
1005
2015DB
1070
344
1005
2015DB
1002
}
  0
DIMENSION
  5
20DC55
100
AcDbEntity
  8
0
100
AcDbDimension
370
-1
  3
ISO-25
  2
*D44
 10
199.807194146959
 20
413.74698828627
 30
0
 11
0
 21
0
 31
0
 70
1
 12
0
 22
0
 32
0
100
AcDbAlignedDimension
 13
196.807194146959
 23
407.547790012442
 33
0
 14
199.807194146959
 24
407.547790012442
 34
0
1001
ACAD
1000
DSTYLE
1002
{
1070
41
1040
1
1070
42
1040
0.625
1070
44
1040
1.25
1070
73
1070
0
1070
74
1070
0
1070
77
1070
0
1070
140
1040
1.5
1070
144
1040
1
1070
147
1040
0.625
1070
173
1070
1
1070
174
1070
0
1070
178
1070
0
1070
271
1070
2
1070
342
1005
2015DB
1070
343
1005
2015DB
1070
344
1005
2015DB
1002
}
  0
DIMENSION
  5
20DCEB
100
AcDbEntity
  8
0
100
AcDbDimension
370
-1
  3
ISO-25
  2
*D45
 10
196.835147919548
 20
403.308820585311
 30
0
 11
0
 21
0
 31
0
 70
1
 12
0
 22
0
 32
0
100
AcDbAlignedDimension
 13
198.455147919548
 23
396.057896475605
 33
0
 14
196.835147919548
 24
396.057896475605
 34
0
1001
ACAD
1000
DSTYLE
1002
{
1070
41
1040
1
1070
42
1040
0.625
1070
44
1040
1.25
1070
73
1070
0
1070
74
1070
0
1070
77
1070
0
1070
140
1040
1.5
1070
144
1040
1
1070
147
1040
0.625
1070
173
1070
1
1070
174
1070
0
1070
178
1070
0
1070
271
1070
2
1070
342
1005
2015DB
1070
343
1005
2015DB
1070
344
1005
2015DB
1002
}
  0
LWPOLYLINE
  5
20E890
100
AcDbEntity
  8
0
100
AcDbPolyline
370
-1
 62
4
  6
BYLAYER
 38
0
 90
4
 70
1
 10
95.6714884220043
 20
448.121457867831
 10
278.332219635041
 20
448.121457867831
 10
278.332219635041
 20
320.041492767262
 10
95.6714884220043
 20
320.041492767262
  0
MTEXT
  5
20E95A
100
AcDbEntity
  8
0
100
AcDbMText
370
-1
 62
7
 10
254.46823070955
 20
444.094406782742
 30
0
 40
1.493145
  1
{\fSimSun|b0|i0|c0;Original Drawing}
 50
0
 41
0
  7
Standard
 71
1
 73
1
 44
1
  0
MTEXT
  5
20E961
100
AcDbEntity
  8
0
100
AcDbMText
370
-1
 62
7
 10
227.078566709549
 20
443.946310782742
 30
0
 40
1.493145
  1
{\fSimSun|b0|i0|c0;A}
 50
0
 41
0
  7
Standard
 71
1
 73
1
 44
1
  0
MTEXT
  5
20E968
100
AcDbEntity
  8
0
100
AcDbMText
370
-1
 62
7
 10
235.143122709549
 20
443.946310782742
 30
0
 40
1.493145
  1
{\f|b0|i0|c134|p2;\C256;20221128}
 50
0
 41
0
  7
Standard
 71
1
 73
1
 44
1
  0
LWPOLYLINE
  5
20E96F
100
AcDbEntity
  8
0
100
AcDbPolyline
370
-1
 62
4
  6
BYLAYER
 38
0
 90
2
 70
0
 10
223.669906709548
 20
441.648733782742
 10
223.669906709548
 20
448.083400782742
  0
LWPOLYLINE
  5
20E972
100
AcDbEntity
  8
0
100
AcDbPolyline
370
-1
 62
4
  6
BYLAYER
 38
0
 90
2
 70
0
 10
231.501573709549
 20
441.648733782742
 10
231.501573709549
 20
448.083400782742
  0
LWPOLYLINE
  5
20E975
100
AcDbEntity
  8
0
100
AcDbPolyline
370
-1
 62
4
  6
BYLAYER
 38
0
 90
2
 70
0
 10
247.186073709549
 20
441.648733782742
 10
247.186073709549
 20
448.083400782742
  0
MTEXT
  5
20E978
100
AcDbEntity
  8
0
100
AcDbMText
370
-1
 62
7
 10
259.37914470955
 20
447.091381782742
 30
0
 40
1.421074
  1
{\fTimes New Roman|b0|i0|c0;Remark}
 50
0
 41
0
  7
Standard
 71
1
 73
1
 44
1
  0
MTEXT
  5
20E97F
100
AcDbEntity
  8
0
100
AcDbMText
370
-1
 62
7
 10
225.554628709549
 20
447.112638782742
 30
0
 40
1.421074
  1
{\fTimes New Roman|b0|i0|c0;Item}
 50
0
 41
0
  7
Standard
 71
1
 73
1
 44
1
  0
MTEXT
  5
20E986
100
AcDbEntity
  8
0
100
AcDbMText
370
-1
 62
7
 10
237.299114709549
 20
447.112638782742
 30
0
 40
1.421074
  1
{\fTimes New Roman|b0|i0|c0;Date}
 50
0
 41
0
  7
Standard
 71
1
 73
1
 44
1
  0
LWPOLYLINE
  5
20E98D
100
AcDbEntity
  8
0
100
AcDbPolyline
370
-1
 62
4
  6
BYLAYER
 38
0
 90
2
 70
0
 10
223.669906709548
 20
444.866067782742
 10
278.36457370955
 20
444.866067782742
  0
LWPOLYLINE
  5
20E990
100
AcDbEntity
  8
0
100
AcDbPolyline
370
-1
 62
4
  6
BYLAYER
 38
0
 90
2
 70
0
 10
223.669906709548
 20
441.648733782742
 10
278.36457370955
 20
441.648733782742
  0
MTEXT
  5
20ECF2
100
AcDbEntity
  8
0
100
AcDbMText
370
-1
 62
7
 10
227.445064037622
 20
321.519944363429
 30
0
 40
0.914511359999998
  1
{\f|b0|i0|c134|p2;\C256;20221128}
 50
0
 41
0
  7
Standard
 71
1
 73
1
 44
1
  0
MTEXT
  5
20ECF9
100
AcDbEntity
  8
0
100
AcDbMText
370
-1
 62
7
 10
257.803212517623
 20
325.475630763429
 30
0
 40
0.914511359999998
  1
{\fSimSun|b0|i0|c0;P.M.}
 50
0
 41
0
  7
Standard
 71
1
 73
1
 44
1
  0
MTEXT
  5
20ED00
100
AcDbEntity
  8
0
100
AcDbMText
370
-1
 62
7
 10
228.095299557622
 20
323.497781803429
 30
0
 40
0.914511359999998
  1
{\fArial|b0|i0|c0|p34;\C256;Tumbler}
 50
0
 41
0
  7
Standard
 71
1
 73
1
 44
1
  0
MTEXT
  5
20ED07
100
AcDbEntity
  8
0
100
AcDbMText
370
-1
 62
7
 10
275.440998757623
 20
333.400386603429
 30
0
 40
0.914511359999998
  1
{\fSimSun|b0|i0|c0;A}
 50
0
 41
0
  7
Standard
 71
1
 73
1
 44
1
  0
LWPOLYLINE
  5
20ED0E
100
AcDbEntity
  8
0
100
AcDbPolyline
370
-1
 62
4
  6
BYLAYER
 38
0
 90
2
 70
0
 10
254.104776037623
 20
320.104193323429
 10
254.104776037623
 20
326.037633323429
  0
LWPOLYLINE
  5
20ED11
100
AcDbEntity
  8
0
100
AcDbPolyline
370
-1
 62
7
  6
BYLAYER
 38
0
 90
12
 70
1
 10
217.257842917622
 20
326.498219563429
 10
217.501682917623
 20
326.579499563429
 10
217.664242917622
 20
326.769153323429
 10
217.745522917622
 20
327.026539563429
 10
217.664242917622
 20
327.297473323429
 10
217.501682917623
 20
327.487126443429
 10
217.257842917622
 20
327.568406443429
 10
217.014002917622
 20
327.487126443429
 10
216.837896037622
 20
327.297473323429
 10
216.770162917622
 20
327.026539563429
 10
216.837896037622
 20
326.769153323429
 10
217.014002917622
 20
326.579499563429
  0
LWPOLYLINE
  5
20ED1E
100
AcDbEntity
  8
0
100
AcDbPolyline
370
-1
 62
7
  6
BYLAYER
 38
0
 90
2
 70
0
 10
217.257842917622
 20
327.825793323429
 10
217.257842917622
 20
326.254379563429
  0
LWPOLYLINE
  5
20ED21
100
AcDbEntity
  8
0
100
AcDbPolyline
370
-1
 62
7
  6
BYLAYER
 38
0
 90
18
 70
1
 10
217.257842917622
 20
326.769153323429
 10
217.420402917622
 20
326.850433323429
 10
217.472859237622
 20
326.944604203429
 10
217.496834277622
 20
327.028279083429
 10
217.496328677622
 20
327.101017643429
 10
217.475341157622
 20
327.162377003429
 10
217.437871077622
 20
327.211915563429
 10
217.387918437622
 20
327.249193003429
 10
217.329483237622
 20
327.273767083429
 10
217.266563557622
 20
327.285196203429
 10
217.203160037622
 20
327.283039403429
 10
217.143271397622
 20
327.266854443429
 10
217.090898277622
 20
327.236199723429
 10
217.050039397623
 20
327.190634283429
 10
217.024694117622
 20
327.129716523429
 10
217.018861797622
 20
327.053004843429
 10
217.036543077622
 20
326.960057643429
 10
217.081736037622
 20
326.850433323429
  0
LWPOLYLINE
  5
20ED34
100
AcDbEntity
  8
0
100
AcDbPolyline
370
-1
 62
7
  6
BYLAYER
 38
0
 90
4
 70
1
 10
219.181469797622
 20
326.498219563429
 10
219.181469797622
 20
327.568406443429
 10
217.989362917623
 20
327.297473323429
 10
217.989362917623
 20
326.769153323429
  0
MTEXT
  5
20ED39
100
AcDbEntity
  8
0
100
AcDbMText
370
-1
 62
7
 10
216.973384677622
 20
321.506439723429
 30
0
 40
0.914511359999998
  1
{\fSimSun|b0|i0|c0;\U+00A1\U+00C01}
 50
0
 41
0
  7
Standard
 71
1
 73
1
 44
1
  0
MTEXT
  5
20ED42
100
AcDbEntity
  8
0
100
AcDbMText
370
-1
 62
7
 10
265.646157157623
 20
327.363540523429
 30
0
 40
0.729553919999998
  1
{\fSimSun|b0|i0|c0;Soda Lime / Polyimide}
 50
0
 41
0
  7
Standard
 71
1
 73
1
 44
1
  0
LWPOLYLINE
  5
20ED49
100
AcDbEntity
  8
0
100
AcDbPolyline
370
-1
 62
7
  6
BYLAYER
 38
0
 90
2
 70
0
 10
219.411762917622
 20
327.040086443429
 10
216.539869797622
 20
327.040086443429
  0
LWPOLYLINE
  5
20ED4C
100
AcDbEntity
  8
0
100
AcDbPolyline
370
-1
 62
4
  6
BYLAYER
 38
0
 90
2
 70
0
 10
273.354589797623
 20
331.984619563429
 10
273.354589797623
 20
335.940246443429
  0
MTEXT
  5
20ED4F
100
AcDbEntity
  8
0
100
AcDbMText
370
-1
 62
7
 10
274.559771237623
 20
335.344748843429
 30
0
 40
0.881080319999998
  1
{\fTimes New Roman|b0|i0|c0;Rev.}
 50
0
 41
0
  7
Standard
 71
1
 73
1
 44
1
  0
MTEXT
  5
20ED56
100
AcDbEntity
  8
0
100
AcDbMText
370
-1
 62
7
 10
274.587728357623
 20
323.464307243429
 30
0
 40
0.881080319999998
  1
{\fTimes New Roman|b0|i0|c0;Size}
 50
0
 41
0
  7
Standard
 71
1
 73
1
 44
1
  0
MTEXT
  5
20ED5D
100
AcDbEntity
  8
0
100
AcDbMText
370
-1
 62
7
 10
274.980579557623
 20
321.500073643429
 30
0
 40
0.881080319999998
  1
{\fTimes New Roman|b0|i0|c0;A3}
 50
0
 41
0
  7
Standard
 71
1
 73
1
 44
1
  0
MTEXT
  5
20ED64
100
AcDbEntity
  8
0
100
AcDbMText
370
-1
 62
7
 10
264.657949157623
 20
323.464307243429
 30
0
 40
0.881080319999998
  1
{\fTimes New Roman|b0|i0|c0;Scale}
 50
0
 41
0
  7
Standard
 71
1
 73
1
 44
1
  0
MTEXT
  5
20ED6B
100
AcDbEntity
  8
0
100
AcDbMText
370
-1
 62
7
 10
265.281097957623
 20
321.500073643429
 30
0
 40
0.881080319999998
  1
{\fTimes New Roman|b0|i0|c0;1:1}
 50
0
 41
0
  7
Standard
 71
1
 73
1
 44
1
  0
MTEXT
  5
20ED72
100
AcDbEntity
  8
0
100
AcDbMText
370
-1
 62
7
 10
238.539715557622
 20
325.475498283429
 30
0
 40
0.914511359999998
  1
{\fSimSun|b0|i0|c0;E.E.}
 50
0
 41
0
  7
Standard
 71
1
 73
1
 44
1
  0
MTEXT
  5
20ED79
100
AcDbEntity
  8
0
100
AcDbMText
370
-1
 62
7
 10
246.261392997623
 20
325.475498283429
 30
0
 40
0.914511359999998
  1
{\fSimSun|b0|i0|c0;Panel / E.}
 50
0
 41
0
  7
Standard
 71
1
 73
1
 44
1
  0
MTEXT
  5
20ED80
100
AcDbEntity
  8
0
100
AcDbMText
370
-1
 62
7
 10
268.681049317623
 20
331.389129003429
 30
0
 40
0.881080319999998
  1
{\fTimes New Roman|b0|i0|c0;Material}
 50
0
 41
0
  7
Standard
 71
1
 73
1
 44
1
  0
MTEXT
  5
20ED87
100
AcDbEntity
  8
0
100
AcDbMText
370
-1
 62
7
 10
269.412589157623
 20
323.464307243429
 30
0
 40
0.881080319999998
  1
{\fTimes New Roman|b0|i0|c0;Sheet}
 50
0
 41
0
  7
Standard
 71
1
 73
1
 44
1
  0
MTEXT
  5
20ED8E
100
AcDbEntity
  8
0
100
AcDbMText
370
-1
 62
7
 10
269.385403237623
 20
321.486502443429
 30
0
 40
0.881080319999998
  1
{\fTimes New Roman|b0|i0|c0;1 of 1}
 50
0
 41
0
  7
Standard
 71
1
 73
1
 44
1
  0
MTEXT
  5
20ED95
100
AcDbEntity
  8
0
100
AcDbMText
370
-1
 62
7
 10
265.389511397623
 20
335.321764523429
 30
0
 40
0.587372159999998
  1
{\fTimes New Roman|b0|i0|c0;Drawing Number}
 50
0
 41
0
  7
Standard
 71
1
 73
1
 44
1
  0
MTEXT
  5
20ED9C
100
AcDbEntity
  8
0
100
AcDbMText
370
-1
 62
7
 10
228.190064357622
 20
325.469275563429
 30
0
 40
0.881080319999998
  1
{\fTimes New Roman|b0|i0|c0;Drawn}
 50
0
 41
0
  7
Standard
 71
1
 73
1
 44
1
  0
MTEXT
  5
20EDA3
100
AcDbEntity
  8
0
100
AcDbMText
370
-1
 62
7
 10
222.012760037622
 20
323.626981803429
 30
0
 40
0.881080319999998
  1
{\fTimes New Roman|b0|i0|c0;By}
 50
0
 41
0
  7
Standard
 71
1
 73
1
 44
1
  0
MTEXT
  5
20EDAA
100
AcDbEntity
  8
0
100
AcDbMText
370
-1
 62
7
 10
221.538571877623
 20
321.500205483429
 30
0
 40
0.881080319999998
  1
{\fTimes New Roman|b0|i0|c0;Date}
 50
0
 41
0
  7
Standard
 71
1
 73
1
 44
1
  0
MTEXT
  5
20EDB1
100
AcDbEntity
  8
0
100
AcDbMText
370
-1
 62
7
 10
221.524989797623
 20
329.411445803429
 30
0
 40
0.881080319999998
  1
{\fTimes New Roman|b0|i0|c0;Title}
 50
0
 41
0
  7
Standard
 71
1
 73
1
 44
1
  0
MTEXT
  5
20EDB8
100
AcDbEntity
  8
0
100
AcDbMText
370
-1
 62
7
 10
208.479940197623
 20
327.397593003429
 30
0
 40
0.587372159999998
  1
{\fTimes New Roman|b0|i0|c0;General Roughness}
 50
0
 41
0
  7
Standard
 71
1
 73
1
 44
1
  0
MTEXT
  5
20EDBF
100
AcDbEntity
  8
0
100
AcDbMText
370
-1
 62
7
 10
209.021542117622
 20
323.464307243429
 30
0
 40
0.881080319999998
  1
{\fTimes New Roman|b0|i0|c0;Dimension}
 50
0
 41
0
  7
Standard
 71
1
 73
1
 44
1
  0
MTEXT
  5
20EDC6
100
AcDbEntity
  8
0
100
AcDbMText
370
-1
 62
7
 10
210.335595237623
 20
321.635452203429
 30
0
 40
0.881080319999998
  1
{\fTimes New Roman|b0|i0|c0;Angle}
 50
0
 41
0
  7
Standard
 71
1
 73
1
 44
1
  0
MTEXT
  5
20EDCD
100
AcDbEntity
  8
0
100
AcDbMText
370
-1
 62
7
 10
211.703832677623
 20
325.442100523429
 30
0
 40
0.881080319999998
  1
{\fTimes New Roman|b0|i0|c0;Tolerance}
 50
0
 41
0
  7
Standard
 71
1
 73
1
 44
1
  0
MTEXT
  5
20EDD4
100
AcDbEntity
  8
0
100
AcDbMText
370
-1
 62
7
 10
210.755599077622
 20
329.411302443429
 30
0
 40
0.881080319999998
  1
{\fTimes New Roman|b0|i0|c0;Unit}
 50
0
 41
0
  7
Standard
 71
1
 73
1
 44
1
  0
MTEXT
  5
20EDDB
100
AcDbEntity
  8
0
100
AcDbMText
370
-1
 62
7
 10
209.427754597622
 20
331.338826283429
 30
0
 40
0.587372159999998
  1
{\fTimes New Roman|b0|i0|c0;Unless Otherwise Specified}
 50
0
 41
0
  7
Standard
 71
1
 73
1
 44
1
  0
MTEXT
  5
20EDE2
100
AcDbEntity
  8
0
100
AcDbMText
370
-1
 62
7
 10
216.919200357622
 20
329.411313323429
 30
0
 40
0.881080319999998
  1
{\fTimes New Roman|b0|i0|c0;mm}
 50
0
 41
0
  7
Standard
 71
1
 73
1
 44
1
  0
MTEXT
  5
20EDE9
100
AcDbEntity
  8
0
100
AcDbMText
370
-1
 62
7
 10
216.309644517622
 20
323.484156203429
 30
0
 40
0.914511359999998
  1
{\fSimSun|b0|i0|c0;\U+00A1\U+00C00.2}
 50
0
 41
0
  7
Standard
 71
1
 73
1
 44
1
  0
LWPOLYLINE
  5
20EDF2
100
AcDbEntity
  8
0
100
AcDbPolyline
370
-1
 62
4
  6
BYLAYER
 38
0
 90
2
 70
0
 10
273.354589797623
 20
320.104193323429
 10
273.354589797623
 20
324.059819563429
  0
LWPOLYLINE
  5
20EDF5
100
AcDbEntity
  8
0
100
AcDbPolyline
370
-1
 62
4
  6
BYLAYER
 38
0
 90
2
 70
0
 10
268.545522917623
 20
320.104193323429
 10
268.545522917623
 20
324.059819563429
  0
LWPOLYLINE
  5
20EDF8
100
AcDbEntity
  8
0
100
AcDbPolyline
370
-1
 62
4
  6
BYLAYER
 38
0
 90
2
 70
0
 10
234.827869797622
 20
320.104193323429
 10
234.827869797622
 20
326.037633323429
  0
LWPOLYLINE
  5
20EDFB
100
AcDbEntity
  8
0
100
AcDbPolyline
370
-1
 62
4
  6
BYLAYER
 38
0
 90
2
 70
0
 10
244.473096037623
 20
320.104193323429
 10
244.473096037623
 20
326.037633323429
  0
LWPOLYLINE
  5
20EDFE
100
AcDbEntity
  8
0
100
AcDbPolyline
370
-1
 62
4
  6
BYLAYER
 38
0
 90
2
 70
0
 10
263.722909797623
 20
320.104193323429
 10
263.722909797623
 20
335.940246443429
  0
LWPOLYLINE
  5
20EE01
100
AcDbEntity
  8
0
100
AcDbPolyline
370
-1
 62
4
  6
BYLAYER
 38
0
 90
2
 70
0
 10
263.722909797623
 20
330.006806443429
 10
278.177202917623
 20
330.006806443429
  0
LWPOLYLINE
  5
20EE04
100
AcDbEntity
  8
0
100
AcDbPolyline
370
-1
 62
4
  6
BYLAYER
 38
0
 90
2
 70
0
 10
263.722909797623
 20
333.962433323429
 10
278.177202917623
 20
333.962433323429
  0
LWPOLYLINE
  5
20EE07
100
AcDbEntity
  8
0
100
AcDbPolyline
370
-1
 62
4
  6
BYLAYER
 38
0
 90
2
 70
0
 10
225.196189797622
 20
320.104193323429
 10
225.196189797622
 20
331.984619563429
  0
LWPOLYLINE
  5
20EE0A
100
AcDbEntity
  8
0
100
AcDbPolyline
370
-1
 62
4
  6
BYLAYER
 38
0
 90
2
 70
0
 10
220.387122917622
 20
320.104193323429
 10
220.387122917622
 20
331.984619563429
  0
LWPOLYLINE
  5
20EE0D
100
AcDbEntity
  8
0
100
AcDbPolyline
370
-1
 62
4
  6
BYLAYER
 38
0
 90
2
 70
0
 10
215.564509797622
 20
320.104193323429
 10
215.564509797622
 20
324.059819563429
  0
LWPOLYLINE
  5
20EE10
100
AcDbEntity
  8
0
100
AcDbPolyline
370
-1
 62
4
  6
BYLAYER
 38
0
 90
2
 70
0
 10
215.564509797622
 20
326.037633323429
 10
215.564509797622
 20
330.006806443429
  0
LWPOLYLINE
  5
20EE13
100
AcDbEntity
  8
0
100
AcDbPolyline
370
-1
 62
4
  6
BYLAYER
 38
0
 90
2
 70
0
 10
208.357682917623
 20
330.006806443429
 10
220.387122917622
 20
330.006806443429
  0
LWPOLYLINE
  5
20EE16
100
AcDbEntity
  8
0
100
AcDbPolyline
370
-1
 62
4
  6
BYLAYER
 38
0
 90
2
 70
0
 10
208.357682917623
 20
328.028993323429
 10
220.387122917622
 20
328.028993323429
  0
LWPOLYLINE
  5
20EE19
100
AcDbEntity
  8
0
100
AcDbPolyline
370
-1
 62
4
  6
BYLAYER
 38
0
 90
2
 70
0
 10
208.357682917623
 20
326.037633323429
 10
263.722909797623
 20
326.037633323429
  0
LWPOLYLINE
  5
20EE1C
100
AcDbEntity
  8
0
100
AcDbPolyline
370
-1
 62
4
  6
BYLAYER
 38
0
 90
2
 70
0
 10
208.357682917623
 20
324.059819563429
 10
278.177202917623
 20
324.059819563429
  0
LWPOLYLINE
  5
20EE1F
100
AcDbEntity
  8
0
100
AcDbPolyline
370
-1
 62
4
  6
BYLAYER
 38
0
 90
2
 70
0
 10
208.357682917623
 20
322.082006443429
 10
278.177202917623
 20
322.082006443429
  0
MTEXT
  5
20EE22
100
AcDbEntity
  8
0
100
AcDbMText
370
-1
 62
7
 10
235.131940837622
 20
329.805050283429
 30
0
 40
1.62072704
  1
{\fArial|b0|i0|c0|p34;\C256;1.69'' TFT}
 50
0
 41
0
  7
Standard
 71
1
 73
1
 44
1
  0
MTEXT
  5
20EE2D
100
AcDbEntity
  8
0
100
AcDbMText
370
-1
 62
7
 10
213.496384997622
 20
334.886946603429
 30
0
 40
1.62072704
  1
{\fArial|b0|i0|c0;Shenzhen GoldenMorning Electronic Co.,Ltd }
 50
0
 41
0
  7
Standard
 71
1
 73
1
 44
1
  0
LINE
  5
20EE34
100
AcDbEntity
  8
0
100
AcDbLine
370
-1
 62
4
  6
BYLAYER
 10
208.275617405312
 20
335.875787484803
 30
0
 11
208.275617405312
 21
320.039734364803
 31
0
  0
LINE
  5
20EE35
100
AcDbEntity
  8
0
100
AcDbLine
370
-1
 62
4
  6
BYLAYER
 10
208.275617405312
 20
331.984619563429
 30
0
 11
278.189217405313
 21
331.984619563429
 31
0
  0
TEXT
  5
20EE36
100
AcDbEntity
  8
0
100
AcDbText
370
-1
 10
264.795858893673
 20
332.4221861266
 30
0
 40
1.024
  1
1.69 TFT
 50
0
 41
1
 51
0
  7
Standard
 71
0
 72
0
 11
178.720411942846
 21
374.582050258273
 31
0
100
AcDbText
 73
0
  0
LINE
  5
20EE38
100
AcDbEntity
  8
0
100
AcDbLine
370
-1
 62
4
  6
BYLAYER
 10
278.187274274744
 20
335.948303895767
 30
0
 11
208.273674274744
 21
335.948303895767
 31
0
  0
MTEXT
  5
212662
100
AcDbEntity
  8
0
100
AcDbMText
370
-1
 10
123.945494825057
 20
364.514716281476
 30
0
 40
2.4
  3
{\fArial|b0|i0|c0|p34;\C256;NOTES\P1\ftxt|b0|i0|c0|p2;.\fArial|b0|i0|c0|p34;DISPLAY TYPE:1.\fArial|b0|i0|c0|p34;69'' TFT\P2.MATRIX:\fArial|b0|i0|c0|p34;240*\fArial|b0|i0|c0|p34;280\P3.DRIVER IC:ST\fArial|b0|i0|c0|p34;7789V\fArial|b0|i0|c0|p34;3\P4.OP
  1
ERATING TEMP:-20~70\f|b0|i0|c134|p49;\P\fArial|b0|i0|c0|p34;5.STORAGE TEMP:-30~80\P6.INTERFACE:SPI\P7.DOT PITCH:0.11655*0.11655mm\P8.DOT SIZE:0.09655*0.09655mm}
 50
0
 41
73.4016876220703
  7
Standard
 71
0
 73
1
 44
1
  0
MTEXT
  5
212F9A
100
AcDbEntity
  8
0
100
AcDbMText
370
-1
 62
7
 10
261.277862069811
 20
359.622353329802
 30
0
 40
1.8238848
  1
{\fSimSun|b0|i0|c0;2}
 50
0
 41
0
  7
Standard
 71
1
 73
1
 44
1
  0
MTEXT
  5
212FA1
100
AcDbEntity
  8
0
100
AcDbMText
370
-1
 62
7
 10
261.277862069811
 20
363.161417329802
 30
0
 40
1.8238848
  1
{\fSimSun|b0|i0|c0;1}
 50
0
 41
0
  7
Standard
 71
1
 73
1
 44
1
  0
MTEXT
  5
212FA8
100
AcDbEntity
  8
0
100
AcDbMText
370
-1
 62
7
 10
261.277862069811
 20
356.083289329802
 30
0
 40
1.8238848
  1
{\fSimSun|b0|i0|c0;3}
 50
0
 41
0
  7
Standard
 71
1
 73
1
 44
1
  0
MTEXT
  5
212FAF
100
AcDbEntity
  8
0
100
AcDbMText
370
-1
 62
7
 10
261.277862069811
 20
352.544218929802
 30
0
 40
1.8238848
  1
{\fSimSun|b0|i0|c0;4}
 50
0
 41
0
  7
Standard
 71
1
 73
1
 44
1
  0
LWPOLYLINE
  5
212FB6
100
AcDbEntity
  8
0
100
AcDbPolyline
370
-1
 62
4
  6
BYLAYER
 38
0
 90
2
 70
0
 10
259.177925269811
 20
353.463569329802
 10
278.363391669812
 20
353.463569329802
  0
LWPOLYLINE
  5
212FB9
100
AcDbEntity
  8
0
100
AcDbPolyline
370
-1
 62
4
  6
BYLAYER
 38
0
 90
2
 70
0
 10
259.177925269811
 20
349.924502929802
 10
278.363391669812
 20
349.924502929802
  0
LWPOLYLINE
  5
212FBC
100
AcDbEntity
  8
0
100
AcDbPolyline
370
-1
 62
4
  6
BYLAYER
 38
0
 90
2
 70
0
 10
259.177925269811
 20
364.046902929802
 10
278.363391669812
 20
364.046902929802
  0
LWPOLYLINE
  5
212FBF
100
AcDbEntity
  8
0
100
AcDbPolyline
370
-1
 62
4
  6
BYLAYER
 38
0
 90
2
 70
0
 10
259.177925269811
 20
360.507835729802
 10
278.363391669812
 20
360.507835729802
  0
MTEXT
  5
212FC2
100
AcDbEntity
  8
0
100
AcDbMText
370
-1
 62
7
 10
260.648059927739
 20
366.861952614612
 30
0
 40
1.8238848
  1
{\fSimSun|b0|i0|c0;PIN}
 50
0
 41
0
  7
Standard
 71
1
 73
1
 44
1
  0
MTEXT
  5
212FC9
100
AcDbEntity
  8
0
100
AcDbMText
370
-1
 62
7
 10
261.277862069811
 20
345.499880529802
 30
0
 40
1.8238848
  1
{\fSimSun|b0|i0|c0;6}
 50
0
 41
0
  7
Standard
 71
1
 73
1
 44
1
  0
MTEXT
  5
212FD0
100
AcDbEntity
  8
0
100
AcDbMText
370
-1
 62
7
 10
261.277862069811
 20
338.455542129803
 30
0
 40
1.8238848
  1
{\fSimSun|b0|i0|c0;8}
 50
0
 41
0
  7
Standard
 71
1
 73
1
 44
1
  0
MTEXT
  5
212FD7
100
AcDbEntity
  8
0
100
AcDbMText
370
-1
 62
7
 10
261.277862069811
 20
341.960816529802
 30
0
 40
1.8238848
  1
{\fSimSun|b0|i0|c0;7}
 50
0
 41
0
  7
Standard
 71
1
 73
1
 44
1
  0
LWPOLYLINE
  5
212FDE
100
AcDbEntity
  8
0
100
AcDbPolyline
370
-1
 62
4
  6
BYLAYER
 38
0
 90
2
 70
0
 10
259.177925269811
 20
356.968769329802
 10
278.363391669812
 20
356.968769329802
  0
LWPOLYLINE
  5
212FE1
100
AcDbEntity
  8
0
100
AcDbPolyline
370
-1
 62
4
  6
BYLAYER
 38
0
 90
2
 70
0
 10
259.177925269811
 20
346.385435729802
 10
278.363391669812
 20
346.385435729802
  0
LWPOLYLINE
  5
212FE4
100
AcDbEntity
  8
0
100
AcDbPolyline
370
-1
 62
4
  6
BYLAYER
 38
0
 90
2
 70
0
 10
259.177925269811
 20
342.880235729802
 10
278.363391669812
 20
342.880235729802
  0
LWPOLYLINE
  5
212FE7
100
AcDbEntity
  8
0
100
AcDbPolyline
370
-1
 62
4
  6
BYLAYER
 38
0
 90
2
 70
0
 10
259.177925269811
 20
339.341169329802
 10
278.363391669812
 20
339.341169329802
  0
MTEXT
  5
212FEA
100
AcDbEntity
  8
0
100
AcDbMText
370
-1
 62
7
 10
261.277862069811
 20
349.038944529802
 30
0
 40
1.8238848
  1
{\fSimSun|b0|i0|c0;5}
 50
0
 41
0
  7
Standard
 71
1
 73
1
 44
1
  0
MTEXT
  5
212FF1
100
AcDbEntity
  8
0
100
AcDbMText
370
-1
 62
7
 10
266.983478069811
 20
366.483877329802
 30
0
 40
1.38714
  1
{\fSimSun|b0|i0|c0;DESCRIPTION}
 50
0
 41
0
  7
Standard
 71
1
 73
1
 44
1
  0
MTEXT
  5
212FF8
100
AcDbEntity
  8
0
100
AcDbMText
370
-1
 62
7
 10
266.814998869812
 20
348.954332529802
 30
0
 40
1.8238848
  1
{\fArial|b0|i0|c0|p34;\C256;RES}
 50
0
 41
0
  7
Standard
 71
1
 73
1
 44
1
  0
MTEXT
  5
212FFF
100
AcDbEntity
  8
0
100
AcDbMText
370
-1
 62
7
 10
266.814998869812
 20
345.415268529802
 30
0
 40
1.8238848
  1
{\fArial|b0|i0|c0|p34;\C256;DC}
 50
0
 41
0
  7
Standard
 71
1
 73
1
 44
1
  0
MTEXT
  5
213006
100
AcDbEntity
  8
0
100
AcDbMText
370
-1
 62
7
 10
266.814998869812
 20
341.909994129802
 30
0
 40
1.8238848
  1
{\fArial|b0|i0|c0|p34;\C256;CS}
 50
0
 41
0
  7
Standard
 71
1
 73
1
 44
1
  0
MTEXT
  5
21300D
100
AcDbEntity
  8
0
100
AcDbMText
370
-1
 62
7
 10
266.814998869812
 20
338.585142361397
 30
0
 40
1.8238848
  1
{\fArial|b0|i0|c0|p34;\C256;BLK}
 50
0
 41
0
  7
Standard
 71
1
 73
1
 44
1
  0
MTEXT
  5
213014
100
AcDbEntity
  8
0
100
AcDbMText
370
-1
 62
7
 10
266.743216275464
 20
363.099654508003
 30
0
 40
1.8238848
  1
{\fArial|b0|i0|c0|p34;\C256;GND}
 50
0
 41
0
  7
Standard
 71
1
 73
1
 44
1
  0
MTEXT
  5
21301B
100
AcDbEntity
  8
0
100
AcDbMText
370
-1
 62
7
 10
266.815205269811
 20
356.032467729802
 30
0
 40
1.8238848
  1
{\fArial|b0|i0|c0|p34;\C256;SCL}
 50
0
 41
0
  7
Standard
 71
1
 73
1
 44
1
  0
MTEXT
  5
213022
100
AcDbEntity
  8
0
100
AcDbMText
370
-1
 62
7
 10
266.925334317216
 20
359.537742129802
 30
0
 40
1.8238848
  1
{\fArial|b0|i0|c0|p34;\C256;VCC}
 50
0
 41
0
  7
Standard
 71
1
 73
1
 44
1
  0
MTEXT
  5
213029
100
AcDbEntity
  8
0
100
AcDbMText
370
-1
 62
7
 10
266.832031669811
 20
352.476632529802
 30
0
 40
1.8238848
  1
{\fArial|b0|i0|c0|p34;\C256;SDA}
 50
0
 41
0
  7
Standard
 71
1
 73
1
 44
1
  0
LINE
  5
213030
100
AcDbEntity
  8
0
100
AcDbLine
370
-1
 62
4
  6
BYLAYER
 10
259.177925269811
 20
367.585969329802
 30
0
 11
259.177925269811
 21
335.940906476066
 31
0
  0
LINE
  5
213031
100
AcDbEntity
  8
0
100
AcDbLine
370
-1
 62
4
  6
BYLAYER
 10
259.177925269811
 20
335.940906476066
 30
0
 11
278.363391669812
 21
335.940906476066
 31
0
  0
LINE
  5
213032
100
AcDbEntity
  8
0
100
AcDbLine
370
-1
 62
4
  6
BYLAYER
 10
259.177925269811
 20
367.585969329802
 30
0
 11
278.363391669812
 21
367.585969329802
 31
0
  0
LINE
  5
213033
100
AcDbEntity
  8
0
100
AcDbLine
370
-1
 62
4
  6
BYLAYER
 10
266.391525269811
 20
367.585969329802
 30
0
 11
266.391525269811
 21
335.940906476066
 31
0
  0
ENDSEC
  0
SECTION
  2
OBJECTS
  0
DICTIONARY
  5
214A90
100
AcDbDictionary
  3
ACAD_GROUP
350
214A91
  3
ACAD_MATERIAL
350
214A92
  3
ACAD_WIPEOUT_VARS
350
214A93
  3
ACAD_MLINESTYLE
350
214A94
  3
ACAD_IMAGE_VARS
350
214A95
  3
ACAD_LAYOUT
350
214A96
  0
DICTIONARY
  5
214A91
330
214A90
100
AcDbDictionary
  0
DICTIONARY
  5
214A92
330
214A90
100
AcDbDictionary
  0
WIPEOUTVARIABLES
  5
214A93
330
214A90
100
AcDbWipeoutVariables
 70
1
  0
DICTIONARY
  5
214A94
330
214A90
100
AcDbDictionary
  3
Standard
350
18
  0
MLINESTYLE
  5
18
330
214A94
100
AcDbMlineStyle
  2
Standard
 70
0
  3

 62
256
 51
90
 52
90
 71
2
 49
0.5
 62
256
  6
BYLAYER
 49
-0.5
 62
256
  6
BYLAYER
  0
DICTIONARY
  5
214A96
100
AcDbDictionary
281
1
  3
Model
350
22
  0
LAYOUT
  5
22
102
{ACAD_REACTORS
330
214A96
102
}
330
214A96
100
AcDbPlotSettings
  1

  2
HP LaserJet 4/NT4SERVER/Session 2
  4

  6

 40
0
 41
0
 42
0
 43
0
 44
0
 45
0
 46
0
 47
0
 48
0
 49
0
 70
1712
 72
0
 73
0
 74
0
 75
0
 76
0
 77
0
 78
100
140
0
141
0
142
1
143
1
147
1
148
0
149
0
100
AcDbLayout
  1
Model
 70
1
 71
1
 10
95.6714884220043
 20
320.039734364803
 11
278.36457370955
 21
448.121457867831
 12
0
 22
0
 32
0
 14
95.6714884220043
 24
320.039734364803
 34
0
 15
278.36457370955
 25
448.121457867831
 35
0
146
0
 13
0
 23
0
 33
0
 16
1
 26
0
 36
0
 17
0
 27
1
 37
0
 76
0
330
1F
  0
RASTERVARIABLES
  5
214A95
330
214A90
100
AcDbRasterVariables
 90
0
 70
0
 71
1
 72
1
  0
DICTIONARY
  5
214A07
330
207EA8
100
AcDbDictionary
280
1
281
0
  3
XDATA
360
214A08
  0
XRECORD
  5
214A08
102
{ACAD_REACTORS
330
214A07
102
}
330
214A07
100
AcDbXrecord
280
0
 90
0
  1
*sgDim0
  0
DICTIONARY
  5
214A09
330
207EDF
100
AcDbDictionary
280
1
281
0
  3
XDATA
360
214A0A
  0
XRECORD
  5
214A0A
102
{ACAD_REACTORS
330
214A09
102
}
330
214A09
100
AcDbXrecord
280
0
 90
0
  1
*sgDim2
  0
DICTIONARY
  5
214A0B
330
208C98
100
AcDbDictionary
280
1
281
0
  3
XDATA
360
214A0C
  0
XRECORD
  5
214A0C
102
{ACAD_REACTORS
330
214A0B
102
}
330
214A0B
100
AcDbXrecord
280
0
 90
0
  1
*sgDim7
  0
DICTIONARY
  5
214A0D
330
208E0F
100
AcDbDictionary
280
1
281
0
  3
XDATA
360
214A0E
  0
XRECORD
  5
214A0E
102
{ACAD_REACTORS
330
214A0D
102
}
330
214A0D
100
AcDbXrecord
280
0
 90
0
  1
*sgDim11
  0
DICTIONARY
  5
214A0F
330
208E2D
100
AcDbDictionary
280
1
281
0
  3
XDATA
360
214A10
  0
XRECORD
  5
214A10
102
{ACAD_REACTORS
330
214A0F
102
}
330
214A0F
100
AcDbXrecord
280
0
 90
0
  1
*sgDim12
  0
DICTIONARY
  5
214A11
330
209872
100
AcDbDictionary
280
1
281
0
  3
XDATA
360
214A12
  0
XRECORD
  5
214A12
102
{ACAD_REACTORS
330
214A11
102
}
330
214A11
100
AcDbXrecord
280
0
 90
0
  1
*sgDim16
  0
DICTIONARY
  5
214A13
330
20989D
100
AcDbDictionary
280
1
281
0
  3
XDATA
360
214A14
  0
XRECORD
  5
214A14
102
{ACAD_REACTORS
330
214A13
102
}
330
214A13
100
AcDbXrecord
280
0
 90
0
  1
*sgDim18
  0
DICTIONARY
  5
214A15
330
20A1A6
100
AcDbDictionary
280
1
281
0
  3
XDATA
360
214A16
  0
XRECORD
  5
214A16
102
{ACAD_REACTORS
330
214A15
102
}
330
214A15
100
AcDbXrecord
280
0
 90
0
  1
*sgDim22
  0
DICTIONARY
  5
214A17
330
20A1BF
100
AcDbDictionary
280
1
281
0
  3
XDATA
360
214A18
  0
XRECORD
  5
214A18
102
{ACAD_REACTORS
330
214A17
102
}
330
214A17
100
AcDbXrecord
280
0
 90
0
  1
*sgDim23
  0
DICTIONARY
  5
214A19
330
20A1D8
100
AcDbDictionary
280
1
281
0
  3
XDATA
360
214A1A
  0
XRECORD
  5
214A1A
102
{ACAD_REACTORS
330
214A19
102
}
330
214A19
100
AcDbXrecord
280
0
 90
0
  1
*sgDim24
  0
DICTIONARY
  5
214A1B
330
20A1F1
100
AcDbDictionary
280
1
281
0
  3
XDATA
360
214A1C
  0
XRECORD
  5
214A1C
102
{ACAD_REACTORS
330
214A1B
102
}
330
214A1B
100
AcDbXrecord
280
0
 90
0
  1
*sgDim25
  0
DICTIONARY
  5
214A1D
330
20A6B0
100
AcDbDictionary
280
1
281
0
  3
XDATA
360
214A1E
  0
XRECORD
  5
214A1E
102
{ACAD_REACTORS
330
214A1D
102
}
330
214A1D
100
AcDbXrecord
280
0
 90
0
  1
*sgDim28
  0
DICTIONARY
  5
214A1F
330
20C439
100
AcDbDictionary
280
1
281
0
  3
XDATA
360
214A20
  0
XRECORD
  5
214A20
102
{ACAD_REACTORS
330
214A1F
102
}
330
214A1F
100
AcDbXrecord
280
0
 90
0
  1
*sgDim35
  0
DICTIONARY
  5
214A21
330
20C557
100
AcDbDictionary
280
1
281
0
  3
XDATA
360
214A22
  0
XRECORD
  5
214A22
102
{ACAD_REACTORS
330
214A21
102
}
330
214A21
100
AcDbXrecord
280
0
 90
0
  1
*sgDim37
  0
DICTIONARY
  5
214A23
330
20C640
100
AcDbDictionary
280
1
281
0
  3
XDATA
360
214A24
  0
XRECORD
  5
214A24
102
{ACAD_REACTORS
330
214A23
102
}
330
214A23
100
AcDbXrecord
280
0
 90
0
  1
*sgDim39
  0
DICTIONARY
  5
214A25
330
20C675
100
AcDbDictionary
280
1
281
0
  3
XDATA
360
214A26
  0
XRECORD
  5
214A26
102
{ACAD_REACTORS
330
214A25
102
}
330
214A25
100
AcDbXrecord
280
0
 90
0
  1
*sgDim42
  0
DICTIONARY
  5
214A27
330
20C737
100
AcDbDictionary
280
1
281
0
  3
XDATA
360
214A28
  0
XRECORD
  5
214A28
102
{ACAD_REACTORS
330
214A27
102
}
330
214A27
100
AcDbXrecord
280
0
 90
0
  1
*sgDim47
  0
DICTIONARY
  5
214A29
330
20C750
100
AcDbDictionary
280
1
281
0
  3
XDATA
360
214A2A
  0
XRECORD
  5
214A2A
102
{ACAD_REACTORS
330
214A29
102
}
330
214A29
100
AcDbXrecord
280
0
 90
0
  1
*sgDim48
  0
DICTIONARY
  5
214A2B
330
20C783
100
AcDbDictionary
280
1
281
0
  3
XDATA
360
214A2C
  0
XRECORD
  5
214A2C
102
{ACAD_REACTORS
330
214A2B
102
}
330
214A2B
100
AcDbXrecord
280
0
 90
0
  1
*sgDim50
  0
DICTIONARY
  5
214A2D
330
20C7C6
100
AcDbDictionary
280
1
281
0
  3
XDATA
360
214A2E
  0
XRECORD
  5
214A2E
102
{ACAD_REACTORS
330
214A2D
102
}
330
214A2D
100
AcDbXrecord
280
0
 90
0
  1
*sgDim53
  0
DICTIONARY
  5
214A2F
330
20C807
100
AcDbDictionary
280
1
281
0
  3
XDATA
360
214A30
  0
XRECORD
  5
214A30
102
{ACAD_REACTORS
330
214A2F
102
}
330
214A2F
100
AcDbXrecord
280
0
 90
0
  1
*sgDim56
  0
DICTIONARY
  5
214A31
330
20CC83
100
AcDbDictionary
280
1
281
0
  3
XDATA
360
214A32
  0
XRECORD
  5
214A32
102
{ACAD_REACTORS
330
214A31
102
}
330
214A31
100
AcDbXrecord
280
0
 90
0
  1
*sgDim63
  0
DICTIONARY
  5
214A33
330
20CCB8
100
AcDbDictionary
280
1
281
0
  3
XDATA
360
214A34
  0
XRECORD
  5
214A34
102
{ACAD_REACTORS
330
214A33
102
}
330
214A33
100
AcDbXrecord
280
0
 90
0
  1
*sgDim66
  0
DICTIONARY
  5
214A35
330
20CDC5
100
AcDbDictionary
280
1
281
0
  3
XDATA
360
214A36
  0
XRECORD
  5
214A36
102
{ACAD_REACTORS
330
214A35
102
}
330
214A35
100
AcDbXrecord
280
0
 90
0
  1
*sgDim69
  0
DICTIONARY
  5
214A37
330
20CDFA
100
AcDbDictionary
280
1
281
0
  3
XDATA
360
214A38
  0
XRECORD
  5
214A38
102
{ACAD_REACTORS
330
214A37
102
}
330
214A37
100
AcDbXrecord
280
0
 90
0
  1
*sgDim72
  0
DICTIONARY
  5
214A39
330
20CE30
100
AcDbDictionary
280
1
281
0
  3
XDATA
360
214A3A
  0
XRECORD
  5
214A3A
102
{ACAD_REACTORS
330
214A39
102
}
330
214A39
100
AcDbXrecord
280
0
 90
0
  1
*sgDim75
  0
DICTIONARY
  5
214A3B
330
20D0AF
100
AcDbDictionary
280
1
281
0
  3
XDATA
360
214A3C
  0
XRECORD
  5
214A3C
102
{ACAD_REACTORS
330
214A3B
102
}
330
214A3B
100
AcDbXrecord
280
0
 90
0
  1
*sgDim78
  0
DICTIONARY
  5
214A3D
330
20D241
100
AcDbDictionary
280
1
281
0
  3
XDATA
360
214A3E
  0
XRECORD
  5
214A3E
102
{ACAD_REACTORS
330
214A3D
102
}
330
214A3D
100
AcDbXrecord
280
0
 90
0
  1
*sgDim80
  0
DICTIONARY
  5
214A3F
330
20D2D9
100
AcDbDictionary
280
1
281
0
  3
XDATA
360
214A40
  0
XRECORD
  5
214A40
102
{ACAD_REACTORS
330
214A3F
102
}
330
214A3F
100
AcDbXrecord
280
0
 90
0
  1
*sgDim83
  0
DICTIONARY
  5
214A41
330
20D368
100
AcDbDictionary
280
1
281
0
  3
XDATA
360
214A42
  0
XRECORD
  5
214A42
102
{ACAD_REACTORS
330
214A41
102
}
330
214A41
100
AcDbXrecord
280
0
 90
0
  1
*sgDim85
  0
DICTIONARY
  5
214A43
330
20D3F2
100
AcDbDictionary
280
1
281
0
  3
XDATA
360
214A44
  0
XRECORD
  5
214A44
102
{ACAD_REACTORS
330
214A43
102
}
330
214A43
100
AcDbXrecord
280
0
 90
0
  1
*sgDim87
  0
DICTIONARY
  5
214A45
330
20D4D4
100
AcDbDictionary
280
1
281
0
  3
XDATA
360
214A46
  0
XRECORD
  5
214A46
102
{ACAD_REACTORS
330
214A45
102
}
330
214A45
100
AcDbXrecord
280
0
 90
0
  1
*sgDim89
  0
DICTIONARY
  5
214A47
330
20D4ED
100
AcDbDictionary
280
1
281
0
  3
XDATA
360
214A48
  0
XRECORD
  5
214A48
102
{ACAD_REACTORS
330
214A47
102
}
330
214A47
100
AcDbXrecord
280
0
 90
0
  1
*sgDim90
  0
DICTIONARY
  5
214A49
330
20D577
100
AcDbDictionary
280
1
281
0
  3
XDATA
360
214A4A
  0
XRECORD
  5
214A4A
102
{ACAD_REACTORS
330
214A49
102
}
330
214A49
100
AcDbXrecord
280
0
 90
0
  1
*sgDim92
  0
DICTIONARY
  5
214A4B
330
20D601
100
AcDbDictionary
280
1
281
0
  3
XDATA
360
214A4C
  0
XRECORD
  5
214A4C
102
{ACAD_REACTORS
330
214A4B
102
}
330
214A4B
100
AcDbXrecord
280
0
 90
0
  1
*sgDim94
  0
DICTIONARY
  5
214A4D
330
20D6C8
100
AcDbDictionary
280
1
281
0
  3
XDATA
360
214A4E
  0
XRECORD
  5
214A4E
102
{ACAD_REACTORS
330
214A4D
102
}
330
214A4D
100
AcDbXrecord
280
0
 90
0
  1
*sgDim97
  0
DICTIONARY
  5
214A4F
330
20D75D
100
AcDbDictionary
280
1
281
0
  3
XDATA
360
214A50
  0
XRECORD
  5
214A50
102
{ACAD_REACTORS
330
214A4F
102
}
330
214A4F
100
AcDbXrecord
280
0
 90
0
  1
*sgDim99
  0
DICTIONARY
  5
214A51
330
20D7E7
100
AcDbDictionary
280
1
281
0
  3
XDATA
360
214A52
  0
XRECORD
  5
214A52
102
{ACAD_REACTORS
330
214A51
102
}
330
214A51
100
AcDbXrecord
280
0
 90
0
  1
*sgDim101
  0
DICTIONARY
  5
214A53
330
20DBBE
100
AcDbDictionary
280
1
281
0
  3
XDATA
360
214A54
  0
XRECORD
  5
214A54
102
{ACAD_REACTORS
330
214A53
102
}
330
214A53
100
AcDbXrecord
280
0
 90
0
  1
*sgDim122
  0
DICTIONARY
  5
214A55
330
20DC54
100
AcDbDictionary
280
1
281
0
  3
XDATA
360
214A56
  0
XRECORD
  5
214A56
102
{ACAD_REACTORS
330
214A55
102
}
330
214A55
100
AcDbXrecord
280
0
 90
0
  1
*sgDim124
  0
DICTIONARY
  5
214A57
330
20DCEA
100
AcDbDictionary
280
1
281
0
  3
XDATA
360
214A58
  0
XRECORD
  5
214A58
102
{ACAD_REACTORS
330
214A57
102
}
330
214A57
100
AcDbXrecord
280
0
 90
0
  1
*sgDim126
  0
DICTIONARY
  5
214A97
100
AcDbDictionary
280
1
  3
XINFO
360
214A98
  0
XRECORD
  5
214A98
102
{ACAD_REACTORS
330
214A97
102
}
330
214A97
100
AcDbXrecord
280
0
310
0900000000000E00
311
565DEBD2E6D4871C
  0
ENDSEC
  0
EOF
